%FSAX43Y43*%
%MOMM*%
G71*
G01*
G75*
G04 Layer_Physical_Order=4*
G04 Layer_Color=16711680*
%ADD10C,0.300*%
%ADD11R,0.650X0.650*%
%ADD12R,0.650X0.650*%
G04:AMPARAMS|DCode=13|XSize=4.6mm|YSize=4.6mm|CornerRadius=0.115mm|HoleSize=0mm|Usage=FLASHONLY|Rotation=270.000|XOffset=0mm|YOffset=0mm|HoleType=Round|Shape=RoundedRectangle|*
%AMROUNDEDRECTD13*
21,1,4.600,4.370,0,0,270.0*
21,1,4.370,4.600,0,0,270.0*
1,1,0.230,-2.185,-2.185*
1,1,0.230,-2.185,2.185*
1,1,0.230,2.185,2.185*
1,1,0.230,2.185,-2.185*
%
%ADD13ROUNDEDRECTD13*%
%ADD14O,0.300X0.800*%
%ADD15O,0.800X0.300*%
G04:AMPARAMS|DCode=16|XSize=1.7mm|YSize=0.65mm|CornerRadius=0.016mm|HoleSize=0mm|Usage=FLASHONLY|Rotation=180.000|XOffset=0mm|YOffset=0mm|HoleType=Round|Shape=RoundedRectangle|*
%AMROUNDEDRECTD16*
21,1,1.700,0.618,0,0,180.0*
21,1,1.667,0.650,0,0,180.0*
1,1,0.033,-0.834,0.309*
1,1,0.033,0.834,0.309*
1,1,0.033,0.834,-0.309*
1,1,0.033,-0.834,-0.309*
%
%ADD16ROUNDEDRECTD16*%
G04:AMPARAMS|DCode=17|XSize=1.5mm|YSize=0.65mm|CornerRadius=0.016mm|HoleSize=0mm|Usage=FLASHONLY|Rotation=180.000|XOffset=0mm|YOffset=0mm|HoleType=Round|Shape=RoundedRectangle|*
%AMROUNDEDRECTD17*
21,1,1.500,0.618,0,0,180.0*
21,1,1.468,0.650,0,0,180.0*
1,1,0.033,-0.734,0.309*
1,1,0.033,0.734,0.309*
1,1,0.033,0.734,-0.309*
1,1,0.033,-0.734,-0.309*
%
%ADD17ROUNDEDRECTD17*%
G04:AMPARAMS|DCode=18|XSize=1.1mm|YSize=0.65mm|CornerRadius=0.016mm|HoleSize=0mm|Usage=FLASHONLY|Rotation=180.000|XOffset=0mm|YOffset=0mm|HoleType=Round|Shape=RoundedRectangle|*
%AMROUNDEDRECTD18*
21,1,1.100,0.618,0,0,180.0*
21,1,1.067,0.650,0,0,180.0*
1,1,0.033,-0.534,0.309*
1,1,0.033,0.534,0.309*
1,1,0.033,0.534,-0.309*
1,1,0.033,-0.534,-0.309*
%
%ADD18ROUNDEDRECTD18*%
G04:AMPARAMS|DCode=19|XSize=4mm|YSize=2.5mm|CornerRadius=0.063mm|HoleSize=0mm|Usage=FLASHONLY|Rotation=270.000|XOffset=0mm|YOffset=0mm|HoleType=Round|Shape=RoundedRectangle|*
%AMROUNDEDRECTD19*
21,1,4.000,2.375,0,0,270.0*
21,1,3.875,2.500,0,0,270.0*
1,1,0.125,-1.188,-1.938*
1,1,0.125,-1.188,1.938*
1,1,0.125,1.188,1.938*
1,1,0.125,1.188,-1.938*
%
%ADD19ROUNDEDRECTD19*%
G04:AMPARAMS|DCode=20|XSize=0.45mm|YSize=1.1mm|CornerRadius=0.023mm|HoleSize=0mm|Usage=FLASHONLY|Rotation=270.000|XOffset=0mm|YOffset=0mm|HoleType=Round|Shape=RoundedRectangle|*
%AMROUNDEDRECTD20*
21,1,0.450,1.055,0,0,270.0*
21,1,0.405,1.100,0,0,270.0*
1,1,0.045,-0.527,-0.203*
1,1,0.045,-0.527,0.203*
1,1,0.045,0.527,0.203*
1,1,0.045,0.527,-0.203*
%
%ADD20ROUNDEDRECTD20*%
%ADD21R,1.300X1.300*%
%ADD22R,1.300X1.300*%
%ADD23R,0.900X0.900*%
%ADD24R,0.500X0.250*%
G04:AMPARAMS|DCode=25|XSize=1.4mm|YSize=0.8mm|CornerRadius=0.02mm|HoleSize=0mm|Usage=FLASHONLY|Rotation=270.000|XOffset=0mm|YOffset=0mm|HoleType=Round|Shape=RoundedRectangle|*
%AMROUNDEDRECTD25*
21,1,1.400,0.760,0,0,270.0*
21,1,1.360,0.800,0,0,270.0*
1,1,0.040,-0.380,-0.680*
1,1,0.040,-0.380,0.680*
1,1,0.040,0.380,0.680*
1,1,0.040,0.380,-0.680*
%
%ADD25ROUNDEDRECTD25*%
G04:AMPARAMS|DCode=26|XSize=1.4mm|YSize=0.8mm|CornerRadius=0.02mm|HoleSize=0mm|Usage=FLASHONLY|Rotation=180.000|XOffset=0mm|YOffset=0mm|HoleType=Round|Shape=RoundedRectangle|*
%AMROUNDEDRECTD26*
21,1,1.400,0.760,0,0,180.0*
21,1,1.360,0.800,0,0,180.0*
1,1,0.040,-0.680,0.380*
1,1,0.040,0.680,0.380*
1,1,0.040,0.680,-0.380*
1,1,0.040,-0.680,-0.380*
%
%ADD26ROUNDEDRECTD26*%
%ADD27C,1.270*%
G04:AMPARAMS|DCode=28|XSize=0.9mm|YSize=4mm|CornerRadius=0.045mm|HoleSize=0mm|Usage=FLASHONLY|Rotation=90.000|XOffset=0mm|YOffset=0mm|HoleType=Round|Shape=RoundedRectangle|*
%AMROUNDEDRECTD28*
21,1,0.900,3.910,0,0,90.0*
21,1,0.810,4.000,0,0,90.0*
1,1,0.090,1.955,0.405*
1,1,0.090,1.955,-0.405*
1,1,0.090,-1.955,-0.405*
1,1,0.090,-1.955,0.405*
%
%ADD28ROUNDEDRECTD28*%
%ADD29R,0.500X0.500*%
%ADD30R,0.850X0.400*%
%ADD31R,1.050X0.700*%
%ADD32C,0.400*%
%ADD33C,0.500*%
%ADD34C,1.000*%
%ADD35C,0.200*%
%ADD36C,0.650*%
%ADD37C,0.600*%
%ADD38C,0.800*%
%ADD39C,0.250*%
%ADD40C,0.050*%
%ADD41C,1.500*%
G04:AMPARAMS|DCode=42|XSize=1.5mm|YSize=1.5mm|CornerRadius=0.075mm|HoleSize=0mm|Usage=FLASHONLY|Rotation=90.000|XOffset=0mm|YOffset=0mm|HoleType=Round|Shape=RoundedRectangle|*
%AMROUNDEDRECTD42*
21,1,1.500,1.350,0,0,90.0*
21,1,1.350,1.500,0,0,90.0*
1,1,0.150,0.675,0.675*
1,1,0.150,0.675,-0.675*
1,1,0.150,-0.675,-0.675*
1,1,0.150,-0.675,0.675*
%
%ADD42ROUNDEDRECTD42*%
%ADD43C,1.700*%
G04:AMPARAMS|DCode=44|XSize=1.7mm|YSize=1.7mm|CornerRadius=0.17mm|HoleSize=0mm|Usage=FLASHONLY|Rotation=0.000|XOffset=0mm|YOffset=0mm|HoleType=Round|Shape=RoundedRectangle|*
%AMROUNDEDRECTD44*
21,1,1.700,1.360,0,0,0.0*
21,1,1.360,1.700,0,0,0.0*
1,1,0.340,0.680,-0.680*
1,1,0.340,-0.680,-0.680*
1,1,0.340,-0.680,0.680*
1,1,0.340,0.680,0.680*
%
%ADD44ROUNDEDRECTD44*%
G04:AMPARAMS|DCode=45|XSize=2.2mm|YSize=4.4mm|CornerRadius=0.11mm|HoleSize=0mm|Usage=FLASHONLY|Rotation=90.000|XOffset=0mm|YOffset=0mm|HoleType=Round|Shape=RoundedRectangle|*
%AMROUNDEDRECTD45*
21,1,2.200,4.180,0,0,90.0*
21,1,1.980,4.400,0,0,90.0*
1,1,0.220,2.090,0.990*
1,1,0.220,2.090,-0.990*
1,1,0.220,-2.090,-0.990*
1,1,0.220,-2.090,0.990*
%
%ADD45ROUNDEDRECTD45*%
%ADD46C,0.800*%
%ADD47C,0.600*%
%ADD48C,0.580*%
G36*
X0064700Y0000300D02*
X0000300D01*
Y0035700D01*
X0064700D01*
Y0000300D01*
D02*
G37*
%LPC*%
G36*
X0004950Y0015124D02*
X0004774Y0015107D01*
X0004604Y0015056D01*
X0004448Y0014972D01*
X0004311Y0014859D01*
X0004198Y0014722D01*
X0004114Y0014566D01*
X0004063Y0014396D01*
X0004046Y0014220D01*
X0004063Y0014044D01*
X0004114Y0013874D01*
X0004198Y0013718D01*
X0004311Y0013581D01*
X0004448Y0013468D01*
X0004604Y0013384D01*
X0004774Y0013333D01*
X0004950Y0013316D01*
X0005126Y0013333D01*
X0005296Y0013384D01*
X0005452Y0013468D01*
X0005589Y0013581D01*
X0005702Y0013718D01*
X0005786Y0013874D01*
X0005837Y0014044D01*
X0005854Y0014220D01*
X0005837Y0014396D01*
X0005786Y0014566D01*
X0005702Y0014722D01*
X0005589Y0014859D01*
X0005452Y0014972D01*
X0005296Y0015056D01*
X0005126Y0015107D01*
X0004950Y0015124D01*
D02*
G37*
G36*
X0002410D02*
X0002234Y0015107D01*
X0002064Y0015056D01*
X0001908Y0014972D01*
X0001771Y0014859D01*
X0001658Y0014722D01*
X0001574Y0014566D01*
X0001523Y0014396D01*
X0001506Y0014220D01*
X0001523Y0014044D01*
X0001574Y0013874D01*
X0001658Y0013718D01*
X0001771Y0013581D01*
X0001908Y0013468D01*
X0002064Y0013384D01*
X0002234Y0013333D01*
X0002410Y0013316D01*
X0002586Y0013333D01*
X0002756Y0013384D01*
X0002912Y0013468D01*
X0003049Y0013581D01*
X0003162Y0013718D01*
X0003246Y0013874D01*
X0003297Y0014044D01*
X0003314Y0014220D01*
X0003297Y0014396D01*
X0003246Y0014566D01*
X0003162Y0014722D01*
X0003049Y0014859D01*
X0002912Y0014972D01*
X0002756Y0015056D01*
X0002586Y0015107D01*
X0002410Y0015124D01*
D02*
G37*
G36*
X0015600Y0014154D02*
X0015483Y0014138D01*
X0015373Y0014093D01*
X0015279Y0014021D01*
X0015207Y0013927D01*
X0015162Y0013817D01*
X0015146Y0013700D01*
X0015162Y0013583D01*
X0015207Y0013473D01*
X0015279Y0013379D01*
X0015373Y0013307D01*
X0015483Y0013262D01*
X0015600Y0013246D01*
X0015717Y0013262D01*
X0015827Y0013307D01*
X0015921Y0013379D01*
X0015993Y0013473D01*
X0016038Y0013583D01*
X0016054Y0013700D01*
X0016038Y0013817D01*
X0015993Y0013927D01*
X0015921Y0014021D01*
X0015827Y0014093D01*
X0015717Y0014138D01*
X0015600Y0014154D01*
D02*
G37*
G36*
X0028600Y0014555D02*
X0028456Y0014536D01*
X0028323Y0014480D01*
X0028208Y0014392D01*
X0028120Y0014277D01*
X0028064Y0014144D01*
X0028045Y0014000D01*
X0028064Y0013856D01*
X0028120Y0013723D01*
X0028208Y0013608D01*
X0028323Y0013520D01*
X0028456Y0013464D01*
X0028600Y0013445D01*
X0028744Y0013464D01*
X0028877Y0013520D01*
X0028992Y0013608D01*
X0029080Y0013723D01*
X0029136Y0013856D01*
X0029155Y0014000D01*
X0029136Y0014144D01*
X0029080Y0014277D01*
X0028992Y0014392D01*
X0028877Y0014480D01*
X0028744Y0014536D01*
X0028600Y0014555D01*
D02*
G37*
G36*
X0012570Y0015124D02*
X0012394Y0015107D01*
X0012224Y0015056D01*
X0012068Y0014972D01*
X0011931Y0014859D01*
X0011818Y0014722D01*
X0011734Y0014566D01*
X0011683Y0014396D01*
X0011666Y0014220D01*
X0011683Y0014044D01*
X0011734Y0013874D01*
X0011818Y0013718D01*
X0011931Y0013581D01*
X0012068Y0013468D01*
X0012224Y0013384D01*
X0012394Y0013333D01*
X0012570Y0013316D01*
X0012746Y0013333D01*
X0012916Y0013384D01*
X0013072Y0013468D01*
X0013209Y0013581D01*
X0013322Y0013718D01*
X0013406Y0013874D01*
X0013457Y0014044D01*
X0013474Y0014220D01*
X0013457Y0014396D01*
X0013406Y0014566D01*
X0013322Y0014722D01*
X0013209Y0014859D01*
X0013072Y0014972D01*
X0012916Y0015056D01*
X0012746Y0015107D01*
X0012570Y0015124D01*
D02*
G37*
G36*
X0010030D02*
X0009854Y0015107D01*
X0009684Y0015056D01*
X0009528Y0014972D01*
X0009391Y0014859D01*
X0009278Y0014722D01*
X0009194Y0014566D01*
X0009143Y0014396D01*
X0009126Y0014220D01*
X0009143Y0014044D01*
X0009194Y0013874D01*
X0009278Y0013718D01*
X0009391Y0013581D01*
X0009528Y0013468D01*
X0009684Y0013384D01*
X0009854Y0013333D01*
X0010030Y0013316D01*
X0010206Y0013333D01*
X0010376Y0013384D01*
X0010532Y0013468D01*
X0010669Y0013581D01*
X0010782Y0013718D01*
X0010866Y0013874D01*
X0010917Y0014044D01*
X0010934Y0014220D01*
X0010917Y0014396D01*
X0010866Y0014566D01*
X0010782Y0014722D01*
X0010669Y0014859D01*
X0010532Y0014972D01*
X0010376Y0015056D01*
X0010206Y0015107D01*
X0010030Y0015124D01*
D02*
G37*
G36*
X0050450Y0012854D02*
X0050333Y0012838D01*
X0050223Y0012793D01*
X0050129Y0012721D01*
X0050057Y0012627D01*
X0050012Y0012517D01*
X0049996Y0012400D01*
X0050012Y0012283D01*
X0050057Y0012173D01*
X0050129Y0012079D01*
X0050223Y0012007D01*
X0050333Y0011962D01*
X0050450Y0011946D01*
X0050567Y0011962D01*
X0050677Y0012007D01*
X0050771Y0012079D01*
X0050843Y0012173D01*
X0050888Y0012283D01*
X0050904Y0012400D01*
X0050888Y0012517D01*
X0050843Y0012627D01*
X0050771Y0012721D01*
X0050677Y0012793D01*
X0050567Y0012838D01*
X0050450Y0012854D01*
D02*
G37*
G36*
X0002410Y0012584D02*
X0002234Y0012567D01*
X0002064Y0012516D01*
X0001908Y0012432D01*
X0001771Y0012319D01*
X0001658Y0012182D01*
X0001574Y0012026D01*
X0001523Y0011856D01*
X0001506Y0011680D01*
X0001523Y0011504D01*
X0001574Y0011334D01*
X0001658Y0011178D01*
X0001771Y0011041D01*
X0001908Y0010928D01*
X0002064Y0010844D01*
X0002234Y0010793D01*
X0002410Y0010776D01*
X0002586Y0010793D01*
X0002756Y0010844D01*
X0002912Y0010928D01*
X0003049Y0011041D01*
X0003162Y0011178D01*
X0003246Y0011334D01*
X0003297Y0011504D01*
X0003314Y0011680D01*
X0003297Y0011856D01*
X0003246Y0012026D01*
X0003162Y0012182D01*
X0003049Y0012319D01*
X0002912Y0012432D01*
X0002756Y0012516D01*
X0002586Y0012567D01*
X0002410Y0012584D01*
D02*
G37*
G36*
X0010330Y0009989D02*
Y0009440D01*
X0010879D01*
X0010866Y0009486D01*
X0010782Y0009642D01*
X0010669Y0009779D01*
X0010532Y0009892D01*
X0010376Y0009976D01*
X0010330Y0009989D01*
D02*
G37*
G36*
X0009730D02*
X0009684Y0009976D01*
X0009528Y0009892D01*
X0009391Y0009779D01*
X0009278Y0009642D01*
X0009194Y0009486D01*
X0009181Y0009440D01*
X0009730D01*
Y0009989D01*
D02*
G37*
G36*
X0012570Y0012584D02*
X0012394Y0012567D01*
X0012224Y0012516D01*
X0012068Y0012432D01*
X0011931Y0012319D01*
X0011818Y0012182D01*
X0011734Y0012026D01*
X0011683Y0011856D01*
X0011666Y0011680D01*
X0011683Y0011504D01*
X0011734Y0011334D01*
X0011818Y0011178D01*
X0011931Y0011041D01*
X0012068Y0010928D01*
X0012224Y0010844D01*
X0012394Y0010793D01*
X0012570Y0010776D01*
X0012746Y0010793D01*
X0012916Y0010844D01*
X0013072Y0010928D01*
X0013209Y0011041D01*
X0013322Y0011178D01*
X0013406Y0011334D01*
X0013457Y0011504D01*
X0013474Y0011680D01*
X0013457Y0011856D01*
X0013406Y0012026D01*
X0013322Y0012182D01*
X0013209Y0012319D01*
X0013072Y0012432D01*
X0012916Y0012516D01*
X0012746Y0012567D01*
X0012570Y0012584D01*
D02*
G37*
G36*
X0010030D02*
X0009854Y0012567D01*
X0009684Y0012516D01*
X0009528Y0012432D01*
X0009391Y0012319D01*
X0009278Y0012182D01*
X0009194Y0012026D01*
X0009143Y0011856D01*
X0009126Y0011680D01*
X0009143Y0011504D01*
X0009194Y0011334D01*
X0009278Y0011178D01*
X0009391Y0011041D01*
X0009528Y0010928D01*
X0009684Y0010844D01*
X0009854Y0010793D01*
X0010030Y0010776D01*
X0010206Y0010793D01*
X0010376Y0010844D01*
X0010532Y0010928D01*
X0010669Y0011041D01*
X0010782Y0011178D01*
X0010866Y0011334D01*
X0010917Y0011504D01*
X0010934Y0011680D01*
X0010917Y0011856D01*
X0010866Y0012026D01*
X0010782Y0012182D01*
X0010669Y0012319D01*
X0010532Y0012432D01*
X0010376Y0012516D01*
X0010206Y0012567D01*
X0010030Y0012584D01*
D02*
G37*
G36*
X0004950D02*
X0004774Y0012567D01*
X0004604Y0012516D01*
X0004448Y0012432D01*
X0004311Y0012319D01*
X0004198Y0012182D01*
X0004114Y0012026D01*
X0004063Y0011856D01*
X0004046Y0011680D01*
X0004063Y0011504D01*
X0004114Y0011334D01*
X0004198Y0011178D01*
X0004311Y0011041D01*
X0004448Y0010928D01*
X0004604Y0010844D01*
X0004774Y0010793D01*
X0004950Y0010776D01*
X0005126Y0010793D01*
X0005296Y0010844D01*
X0005452Y0010928D01*
X0005589Y0011041D01*
X0005702Y0011178D01*
X0005786Y0011334D01*
X0005837Y0011504D01*
X0005854Y0011680D01*
X0005837Y0011856D01*
X0005786Y0012026D01*
X0005702Y0012182D01*
X0005589Y0012319D01*
X0005452Y0012432D01*
X0005296Y0012516D01*
X0005126Y0012567D01*
X0004950Y0012584D01*
D02*
G37*
G36*
X0010879Y0019000D02*
X0010330D01*
Y0018451D01*
X0010376Y0018464D01*
X0010532Y0018548D01*
X0010669Y0018661D01*
X0010782Y0018798D01*
X0010866Y0018954D01*
X0010879Y0019000D01*
D02*
G37*
G36*
X0009730D02*
X0009181D01*
X0009194Y0018954D01*
X0009278Y0018798D01*
X0009391Y0018661D01*
X0009528Y0018548D01*
X0009684Y0018464D01*
X0009730Y0018451D01*
Y0019000D01*
D02*
G37*
G36*
X0012570Y0020204D02*
X0012394Y0020187D01*
X0012224Y0020136D01*
X0012068Y0020052D01*
X0011931Y0019939D01*
X0011818Y0019802D01*
X0011734Y0019646D01*
X0011683Y0019476D01*
X0011666Y0019300D01*
X0011683Y0019124D01*
X0011734Y0018954D01*
X0011818Y0018798D01*
X0011931Y0018661D01*
X0012068Y0018548D01*
X0012224Y0018464D01*
X0012394Y0018413D01*
X0012570Y0018396D01*
X0012746Y0018413D01*
X0012916Y0018464D01*
X0013072Y0018548D01*
X0013209Y0018661D01*
X0013322Y0018798D01*
X0013406Y0018954D01*
X0013457Y0019124D01*
X0013474Y0019300D01*
X0013457Y0019476D01*
X0013406Y0019646D01*
X0013322Y0019802D01*
X0013209Y0019939D01*
X0013072Y0020052D01*
X0012916Y0020136D01*
X0012746Y0020187D01*
X0012570Y0020204D01*
D02*
G37*
G36*
X0010330Y0020149D02*
Y0019600D01*
X0010879D01*
X0010866Y0019646D01*
X0010782Y0019802D01*
X0010669Y0019939D01*
X0010532Y0020052D01*
X0010376Y0020136D01*
X0010330Y0020149D01*
D02*
G37*
G36*
X0009730D02*
X0009684Y0020136D01*
X0009528Y0020052D01*
X0009391Y0019939D01*
X0009278Y0019802D01*
X0009194Y0019646D01*
X0009181Y0019600D01*
X0009730D01*
Y0020149D01*
D02*
G37*
G36*
X0015900Y0020354D02*
X0015783Y0020338D01*
X0015673Y0020293D01*
X0015579Y0020221D01*
X0015507Y0020127D01*
X0015462Y0020017D01*
X0015446Y0019900D01*
X0015462Y0019783D01*
X0015507Y0019673D01*
X0015579Y0019579D01*
X0015673Y0019507D01*
X0015783Y0019462D01*
X0015900Y0019446D01*
X0016017Y0019462D01*
X0016127Y0019507D01*
X0016221Y0019579D01*
X0016293Y0019673D01*
X0016338Y0019783D01*
X0016354Y0019900D01*
X0016338Y0020017D01*
X0016293Y0020127D01*
X0016221Y0020221D01*
X0016127Y0020293D01*
X0016017Y0020338D01*
X0015900Y0020354D01*
D02*
G37*
G36*
X0004950Y0020204D02*
X0004774Y0020187D01*
X0004604Y0020136D01*
X0004448Y0020052D01*
X0004311Y0019939D01*
X0004198Y0019802D01*
X0004114Y0019646D01*
X0004063Y0019476D01*
X0004046Y0019300D01*
X0004063Y0019124D01*
X0004114Y0018954D01*
X0004198Y0018798D01*
X0004311Y0018661D01*
X0004448Y0018548D01*
X0004604Y0018464D01*
X0004774Y0018413D01*
X0004950Y0018396D01*
X0005126Y0018413D01*
X0005296Y0018464D01*
X0005452Y0018548D01*
X0005589Y0018661D01*
X0005702Y0018798D01*
X0005786Y0018954D01*
X0005837Y0019124D01*
X0005854Y0019300D01*
X0005837Y0019476D01*
X0005786Y0019646D01*
X0005702Y0019802D01*
X0005589Y0019939D01*
X0005452Y0020052D01*
X0005296Y0020136D01*
X0005126Y0020187D01*
X0004950Y0020204D01*
D02*
G37*
G36*
X0010030Y0017664D02*
X0009854Y0017647D01*
X0009684Y0017596D01*
X0009528Y0017512D01*
X0009391Y0017399D01*
X0009278Y0017262D01*
X0009194Y0017106D01*
X0009143Y0016936D01*
X0009126Y0016760D01*
X0009143Y0016584D01*
X0009194Y0016414D01*
X0009278Y0016258D01*
X0009391Y0016121D01*
X0009528Y0016008D01*
X0009684Y0015924D01*
X0009854Y0015873D01*
X0010030Y0015856D01*
X0010206Y0015873D01*
X0010376Y0015924D01*
X0010532Y0016008D01*
X0010669Y0016121D01*
X0010782Y0016258D01*
X0010866Y0016414D01*
X0010917Y0016584D01*
X0010934Y0016760D01*
X0010917Y0016936D01*
X0010866Y0017106D01*
X0010782Y0017262D01*
X0010669Y0017399D01*
X0010532Y0017512D01*
X0010376Y0017596D01*
X0010206Y0017647D01*
X0010030Y0017664D01*
D02*
G37*
G36*
X0004950D02*
X0004774Y0017647D01*
X0004604Y0017596D01*
X0004448Y0017512D01*
X0004311Y0017399D01*
X0004198Y0017262D01*
X0004114Y0017106D01*
X0004063Y0016936D01*
X0004046Y0016760D01*
X0004063Y0016584D01*
X0004114Y0016414D01*
X0004198Y0016258D01*
X0004311Y0016121D01*
X0004448Y0016008D01*
X0004604Y0015924D01*
X0004774Y0015873D01*
X0004950Y0015856D01*
X0005126Y0015873D01*
X0005296Y0015924D01*
X0005452Y0016008D01*
X0005589Y0016121D01*
X0005702Y0016258D01*
X0005786Y0016414D01*
X0005837Y0016584D01*
X0005854Y0016760D01*
X0005837Y0016936D01*
X0005786Y0017106D01*
X0005702Y0017262D01*
X0005589Y0017399D01*
X0005452Y0017512D01*
X0005296Y0017596D01*
X0005126Y0017647D01*
X0004950Y0017664D01*
D02*
G37*
G36*
X0002410D02*
X0002234Y0017647D01*
X0002064Y0017596D01*
X0001908Y0017512D01*
X0001771Y0017399D01*
X0001658Y0017262D01*
X0001574Y0017106D01*
X0001523Y0016936D01*
X0001506Y0016760D01*
X0001523Y0016584D01*
X0001574Y0016414D01*
X0001658Y0016258D01*
X0001771Y0016121D01*
X0001908Y0016008D01*
X0002064Y0015924D01*
X0002234Y0015873D01*
X0002410Y0015856D01*
X0002586Y0015873D01*
X0002756Y0015924D01*
X0002912Y0016008D01*
X0003049Y0016121D01*
X0003162Y0016258D01*
X0003246Y0016414D01*
X0003297Y0016584D01*
X0003314Y0016760D01*
X0003297Y0016936D01*
X0003246Y0017106D01*
X0003162Y0017262D01*
X0003049Y0017399D01*
X0002912Y0017512D01*
X0002756Y0017596D01*
X0002586Y0017647D01*
X0002410Y0017664D01*
D02*
G37*
G36*
Y0020204D02*
X0002234Y0020187D01*
X0002064Y0020136D01*
X0001908Y0020052D01*
X0001771Y0019939D01*
X0001658Y0019802D01*
X0001574Y0019646D01*
X0001523Y0019476D01*
X0001506Y0019300D01*
X0001523Y0019124D01*
X0001574Y0018954D01*
X0001658Y0018798D01*
X0001771Y0018661D01*
X0001908Y0018548D01*
X0002064Y0018464D01*
X0002234Y0018413D01*
X0002410Y0018396D01*
X0002586Y0018413D01*
X0002756Y0018464D01*
X0002912Y0018548D01*
X0003049Y0018661D01*
X0003162Y0018798D01*
X0003246Y0018954D01*
X0003297Y0019124D01*
X0003314Y0019300D01*
X0003297Y0019476D01*
X0003246Y0019646D01*
X0003162Y0019802D01*
X0003049Y0019939D01*
X0002912Y0020052D01*
X0002756Y0020136D01*
X0002586Y0020187D01*
X0002410Y0020204D01*
D02*
G37*
G36*
X0037428Y0017256D02*
X0037285Y0017237D01*
X0037151Y0017182D01*
X0037036Y0017094D01*
X0036948Y0016979D01*
X0036893Y0016845D01*
X0036874Y0016701D01*
X0036893Y0016558D01*
X0036948Y0016424D01*
X0037036Y0016309D01*
X0037151Y0016221D01*
X0037285Y0016165D01*
X0037428Y0016147D01*
X0037572Y0016165D01*
X0037706Y0016221D01*
X0037821Y0016309D01*
X0037909Y0016424D01*
X0037964Y0016558D01*
X0037983Y0016701D01*
X0037964Y0016845D01*
X0037909Y0016979D01*
X0037821Y0017094D01*
X0037706Y0017182D01*
X0037572Y0017237D01*
X0037428Y0017256D01*
D02*
G37*
G36*
X0012570Y0017664D02*
X0012394Y0017647D01*
X0012224Y0017596D01*
X0012068Y0017512D01*
X0011931Y0017399D01*
X0011818Y0017262D01*
X0011734Y0017106D01*
X0011683Y0016936D01*
X0011666Y0016760D01*
X0011683Y0016584D01*
X0011734Y0016414D01*
X0011818Y0016258D01*
X0011931Y0016121D01*
X0012068Y0016008D01*
X0012224Y0015924D01*
X0012394Y0015873D01*
X0012570Y0015856D01*
X0012746Y0015873D01*
X0012916Y0015924D01*
X0013072Y0016008D01*
X0013209Y0016121D01*
X0013322Y0016258D01*
X0013406Y0016414D01*
X0013457Y0016584D01*
X0013474Y0016760D01*
X0013457Y0016936D01*
X0013406Y0017106D01*
X0013322Y0017262D01*
X0013209Y0017399D01*
X0013072Y0017512D01*
X0012916Y0017596D01*
X0012746Y0017647D01*
X0012570Y0017664D01*
D02*
G37*
G36*
X0013245Y0007504D02*
X0011895D01*
X0011807Y0007487D01*
X0011733Y0007437D01*
X0011683Y0007363D01*
X0011666Y0007275D01*
Y0005925D01*
X0011683Y0005837D01*
X0011733Y0005763D01*
X0011807Y0005713D01*
X0011895Y0005696D01*
X0013245D01*
X0013333Y0005713D01*
X0013407Y0005763D01*
X0013457Y0005837D01*
X0013474Y0005925D01*
Y0007275D01*
X0013457Y0007363D01*
X0013407Y0007437D01*
X0013333Y0007487D01*
X0013245Y0007504D01*
D02*
G37*
G36*
X0005625D02*
X0004275D01*
X0004187Y0007487D01*
X0004113Y0007437D01*
X0004063Y0007363D01*
X0004046Y0007275D01*
Y0005925D01*
X0004063Y0005837D01*
X0004113Y0005763D01*
X0004187Y0005713D01*
X0004275Y0005696D01*
X0005625D01*
X0005713Y0005713D01*
X0005787Y0005763D01*
X0005837Y0005837D01*
X0005854Y0005925D01*
Y0007275D01*
X0005837Y0007363D01*
X0005787Y0007437D01*
X0005713Y0007487D01*
X0005625Y0007504D01*
D02*
G37*
G36*
X0003850Y0004655D02*
X0003706Y0004636D01*
X0003573Y0004580D01*
X0003458Y0004492D01*
X0003370Y0004377D01*
X0003314Y0004244D01*
X0003295Y0004100D01*
X0003314Y0003956D01*
X0003370Y0003823D01*
X0003458Y0003708D01*
X0003573Y0003620D01*
X0003706Y0003564D01*
X0003850Y0003545D01*
X0003994Y0003564D01*
X0004127Y0003620D01*
X0004242Y0003708D01*
X0004330Y0003823D01*
X0004386Y0003956D01*
X0004405Y0004100D01*
X0004386Y0004244D01*
X0004330Y0004377D01*
X0004242Y0004492D01*
X0004127Y0004580D01*
X0003994Y0004636D01*
X0003850Y0004655D01*
D02*
G37*
G36*
X0037800Y0006804D02*
X0037683Y0006788D01*
X0037573Y0006743D01*
X0037479Y0006671D01*
X0037407Y0006577D01*
X0037362Y0006467D01*
X0037346Y0006350D01*
X0037362Y0006233D01*
X0037407Y0006123D01*
X0037479Y0006029D01*
X0037573Y0005957D01*
X0037683Y0005912D01*
X0037800Y0005896D01*
X0037917Y0005912D01*
X0038027Y0005957D01*
X0038121Y0006029D01*
X0038193Y0006123D01*
X0038238Y0006233D01*
X0038254Y0006350D01*
X0038238Y0006467D01*
X0038193Y0006577D01*
X0038121Y0006671D01*
X0038027Y0006743D01*
X0037917Y0006788D01*
X0037800Y0006804D01*
D02*
G37*
G36*
X0010030Y0007504D02*
X0009854Y0007487D01*
X0009684Y0007436D01*
X0009528Y0007352D01*
X0009391Y0007239D01*
X0009278Y0007102D01*
X0009194Y0006946D01*
X0009143Y0006776D01*
X0009126Y0006600D01*
X0009143Y0006424D01*
X0009194Y0006254D01*
X0009278Y0006098D01*
X0009391Y0005961D01*
X0009528Y0005848D01*
X0009684Y0005764D01*
X0009854Y0005713D01*
X0010030Y0005696D01*
X0010206Y0005713D01*
X0010376Y0005764D01*
X0010532Y0005848D01*
X0010669Y0005961D01*
X0010782Y0006098D01*
X0010866Y0006254D01*
X0010917Y0006424D01*
X0010934Y0006600D01*
X0010917Y0006776D01*
X0010866Y0006946D01*
X0010782Y0007102D01*
X0010669Y0007239D01*
X0010532Y0007352D01*
X0010376Y0007436D01*
X0010206Y0007487D01*
X0010030Y0007504D01*
D02*
G37*
G36*
X0002410D02*
X0002234Y0007487D01*
X0002064Y0007436D01*
X0001908Y0007352D01*
X0001771Y0007239D01*
X0001658Y0007102D01*
X0001574Y0006946D01*
X0001523Y0006776D01*
X0001506Y0006600D01*
X0001523Y0006424D01*
X0001574Y0006254D01*
X0001658Y0006098D01*
X0001771Y0005961D01*
X0001908Y0005848D01*
X0002064Y0005764D01*
X0002234Y0005713D01*
X0002410Y0005696D01*
X0002586Y0005713D01*
X0002756Y0005764D01*
X0002912Y0005848D01*
X0003049Y0005961D01*
X0003162Y0006098D01*
X0003246Y0006254D01*
X0003297Y0006424D01*
X0003314Y0006600D01*
X0003297Y0006776D01*
X0003246Y0006946D01*
X0003162Y0007102D01*
X0003049Y0007239D01*
X0002912Y0007352D01*
X0002756Y0007436D01*
X0002586Y0007487D01*
X0002410Y0007504D01*
D02*
G37*
G36*
X0015300Y0003454D02*
Y0002800D01*
X0015954D01*
X0015928Y0002885D01*
X0015835Y0003058D01*
X0015711Y0003211D01*
X0015558Y0003335D01*
X0015385Y0003428D01*
X0015300Y0003454D01*
D02*
G37*
G36*
X0014700Y0002200D02*
X0014046D01*
X0014072Y0002115D01*
X0014165Y0001942D01*
X0014289Y0001789D01*
X0014442Y0001665D01*
X0014615Y0001572D01*
X0014700Y0001546D01*
Y0002200D01*
D02*
G37*
G36*
X0021130Y0003503D02*
X0019770D01*
X0019686Y0003492D01*
X0019609Y0003460D01*
X0019542Y0003408D01*
X0019490Y0003341D01*
X0019458Y0003264D01*
X0019447Y0003180D01*
Y0001820D01*
X0019458Y0001736D01*
X0019490Y0001659D01*
X0019542Y0001592D01*
X0019609Y0001540D01*
X0019686Y0001508D01*
X0019770Y0001497D01*
X0021130D01*
X0021214Y0001508D01*
X0021291Y0001540D01*
X0021358Y0001592D01*
X0021410Y0001659D01*
X0021442Y0001736D01*
X0021453Y0001820D01*
Y0003180D01*
X0021442Y0003264D01*
X0021410Y0003341D01*
X0021358Y0003408D01*
X0021291Y0003460D01*
X0021214Y0003492D01*
X0021130Y0003503D01*
D02*
G37*
G36*
X0022990Y0003505D02*
X0022794Y0003486D01*
X0022605Y0003428D01*
X0022432Y0003335D01*
X0022279Y0003211D01*
X0022154Y0003058D01*
X0022062Y0002885D01*
X0022004Y0002696D01*
X0021985Y0002500D01*
X0022004Y0002304D01*
X0022062Y0002115D01*
X0022154Y0001942D01*
X0022279Y0001789D01*
X0022432Y0001665D01*
X0022605Y0001572D01*
X0022794Y0001514D01*
X0022990Y0001495D01*
X0023186Y0001514D01*
X0023375Y0001572D01*
X0023548Y0001665D01*
X0023701Y0001789D01*
X0023825Y0001942D01*
X0023918Y0002115D01*
X0023976Y0002304D01*
X0023995Y0002500D01*
X0023976Y0002696D01*
X0023918Y0002885D01*
X0023825Y0003058D01*
X0023701Y0003211D01*
X0023548Y0003335D01*
X0023375Y0003428D01*
X0023186Y0003486D01*
X0022990Y0003505D01*
D02*
G37*
G36*
X0014700Y0003454D02*
X0014615Y0003428D01*
X0014442Y0003335D01*
X0014289Y0003211D01*
X0014165Y0003058D01*
X0014072Y0002885D01*
X0014046Y0002800D01*
X0014700D01*
Y0003454D01*
D02*
G37*
G36*
X0026150Y0003055D02*
X0026006Y0003036D01*
X0025873Y0002980D01*
X0025758Y0002892D01*
X0025670Y0002777D01*
X0025614Y0002644D01*
X0025595Y0002500D01*
X0025614Y0002356D01*
X0025670Y0002223D01*
X0025758Y0002108D01*
X0025873Y0002020D01*
X0026006Y0001964D01*
X0026150Y0001945D01*
X0026294Y0001964D01*
X0026427Y0002020D01*
X0026542Y0002108D01*
X0026630Y0002223D01*
X0026686Y0002356D01*
X0026705Y0002500D01*
X0026686Y0002644D01*
X0026630Y0002777D01*
X0026542Y0002892D01*
X0026427Y0002980D01*
X0026294Y0003036D01*
X0026150Y0003055D01*
D02*
G37*
G36*
X0015954Y0002200D02*
X0015300D01*
Y0001546D01*
X0015385Y0001572D01*
X0015558Y0001665D01*
X0015711Y0001789D01*
X0015835Y0001942D01*
X0015928Y0002115D01*
X0015954Y0002200D01*
D02*
G37*
G36*
X0012570Y0010044D02*
X0012394Y0010027D01*
X0012224Y0009976D01*
X0012068Y0009892D01*
X0011931Y0009779D01*
X0011818Y0009642D01*
X0011734Y0009486D01*
X0011683Y0009316D01*
X0011666Y0009140D01*
X0011683Y0008964D01*
X0011694Y0008926D01*
X0011630Y0008850D01*
X0011600Y0008854D01*
X0011483Y0008838D01*
X0011373Y0008793D01*
X0011279Y0008721D01*
X0011207Y0008627D01*
X0011162Y0008517D01*
X0011146Y0008400D01*
X0011162Y0008283D01*
X0011207Y0008173D01*
X0011279Y0008079D01*
X0011373Y0008007D01*
X0011483Y0007962D01*
X0011600Y0007946D01*
X0011717Y0007962D01*
X0011827Y0008007D01*
X0011921Y0008079D01*
X0011993Y0008173D01*
X0012038Y0008283D01*
X0012042Y0008309D01*
X0012131Y0008354D01*
X0012224Y0008304D01*
X0012394Y0008253D01*
X0012570Y0008236D01*
X0012746Y0008253D01*
X0012916Y0008304D01*
X0013072Y0008388D01*
X0013209Y0008501D01*
X0013322Y0008638D01*
X0013406Y0008794D01*
X0013457Y0008964D01*
X0013474Y0009140D01*
X0013457Y0009316D01*
X0013406Y0009486D01*
X0013322Y0009642D01*
X0013209Y0009779D01*
X0013072Y0009892D01*
X0012916Y0009976D01*
X0012746Y0010027D01*
X0012570Y0010044D01*
D02*
G37*
G36*
X0015600Y0009654D02*
X0015483Y0009638D01*
X0015373Y0009593D01*
X0015279Y0009521D01*
X0015207Y0009427D01*
X0015162Y0009317D01*
X0015146Y0009200D01*
X0015162Y0009083D01*
X0015207Y0008973D01*
X0015279Y0008879D01*
X0015373Y0008807D01*
X0015483Y0008762D01*
X0015600Y0008746D01*
X0015717Y0008762D01*
X0015827Y0008807D01*
X0015921Y0008879D01*
X0015993Y0008973D01*
X0016038Y0009083D01*
X0016054Y0009200D01*
X0016038Y0009317D01*
X0015993Y0009427D01*
X0015921Y0009521D01*
X0015827Y0009593D01*
X0015717Y0009638D01*
X0015600Y0009654D01*
D02*
G37*
G36*
X0010879Y0008840D02*
X0010330D01*
Y0008291D01*
X0010376Y0008304D01*
X0010532Y0008388D01*
X0010669Y0008501D01*
X0010782Y0008638D01*
X0010866Y0008794D01*
X0010879Y0008840D01*
D02*
G37*
G36*
X0002710Y0009989D02*
Y0009440D01*
X0003259D01*
X0003246Y0009486D01*
X0003162Y0009642D01*
X0003049Y0009779D01*
X0002912Y0009892D01*
X0002756Y0009976D01*
X0002710Y0009989D01*
D02*
G37*
G36*
X0002110D02*
X0002064Y0009976D01*
X0001908Y0009892D01*
X0001771Y0009779D01*
X0001658Y0009642D01*
X0001574Y0009486D01*
X0001561Y0009440D01*
X0002110D01*
Y0009989D01*
D02*
G37*
G36*
X0007800Y0010004D02*
X0007683Y0009988D01*
X0007573Y0009943D01*
X0007479Y0009871D01*
X0007407Y0009777D01*
X0007362Y0009667D01*
X0007346Y0009550D01*
X0007362Y0009433D01*
X0007407Y0009323D01*
X0007479Y0009229D01*
X0007573Y0009157D01*
X0007683Y0009112D01*
X0007800Y0009096D01*
X0007917Y0009112D01*
X0008027Y0009157D01*
X0008121Y0009229D01*
X0008193Y0009323D01*
X0008238Y0009433D01*
X0008254Y0009550D01*
X0008238Y0009667D01*
X0008193Y0009777D01*
X0008121Y0009871D01*
X0008027Y0009943D01*
X0007917Y0009988D01*
X0007800Y0010004D01*
D02*
G37*
G36*
X0009730Y0008840D02*
X0009181D01*
X0009194Y0008794D01*
X0009278Y0008638D01*
X0009391Y0008501D01*
X0009528Y0008388D01*
X0009684Y0008304D01*
X0009730Y0008291D01*
Y0008840D01*
D02*
G37*
G36*
X0046895Y0007554D02*
X0046778Y0007539D01*
X0046668Y0007493D01*
X0046574Y0007421D01*
X0046502Y0007327D01*
X0046457Y0007218D01*
X0046442Y0007100D01*
X0046457Y0006983D01*
X0046502Y0006873D01*
X0046574Y0006779D01*
X0046668Y0006707D01*
X0046778Y0006662D01*
X0046895Y0006646D01*
X0047013Y0006662D01*
X0047122Y0006707D01*
X0047216Y0006779D01*
X0047289Y0006873D01*
X0047334Y0006983D01*
X0047349Y0007100D01*
X0047334Y0007218D01*
X0047289Y0007327D01*
X0047216Y0007421D01*
X0047122Y0007493D01*
X0047013Y0007539D01*
X0046895Y0007554D01*
D02*
G37*
G36*
X0036850Y0007354D02*
X0036733Y0007338D01*
X0036623Y0007293D01*
X0036529Y0007221D01*
X0036457Y0007127D01*
X0036412Y0007017D01*
X0036396Y0006900D01*
X0036412Y0006783D01*
X0036457Y0006673D01*
X0036529Y0006579D01*
X0036623Y0006507D01*
X0036733Y0006462D01*
X0036850Y0006446D01*
X0036967Y0006462D01*
X0037077Y0006507D01*
X0037171Y0006579D01*
X0037243Y0006673D01*
X0037288Y0006783D01*
X0037304Y0006900D01*
X0037288Y0007017D01*
X0037243Y0007127D01*
X0037171Y0007221D01*
X0037077Y0007293D01*
X0036967Y0007338D01*
X0036850Y0007354D01*
D02*
G37*
G36*
X0048700Y0006854D02*
X0048583Y0006838D01*
X0048473Y0006793D01*
X0048379Y0006721D01*
X0048307Y0006627D01*
X0048262Y0006517D01*
X0048246Y0006400D01*
X0048262Y0006283D01*
X0048307Y0006173D01*
X0048379Y0006079D01*
X0048473Y0006007D01*
X0048583Y0005962D01*
X0048700Y0005946D01*
X0048817Y0005962D01*
X0048927Y0006007D01*
X0049021Y0006079D01*
X0049093Y0006173D01*
X0049138Y0006283D01*
X0049154Y0006400D01*
X0049138Y0006517D01*
X0049093Y0006627D01*
X0049021Y0006721D01*
X0048927Y0006793D01*
X0048817Y0006838D01*
X0048700Y0006854D01*
D02*
G37*
G36*
X0003259Y0008840D02*
X0002710D01*
Y0008291D01*
X0002756Y0008304D01*
X0002912Y0008388D01*
X0003049Y0008501D01*
X0003162Y0008638D01*
X0003246Y0008794D01*
X0003259Y0008840D01*
D02*
G37*
G36*
X0002110D02*
X0001561D01*
X0001574Y0008794D01*
X0001658Y0008638D01*
X0001771Y0008501D01*
X0001908Y0008388D01*
X0002064Y0008304D01*
X0002110Y0008291D01*
Y0008840D01*
D02*
G37*
G36*
X0004950Y0010044D02*
X0004774Y0010027D01*
X0004604Y0009976D01*
X0004448Y0009892D01*
X0004311Y0009779D01*
X0004198Y0009642D01*
X0004114Y0009486D01*
X0004063Y0009316D01*
X0004046Y0009140D01*
X0004063Y0008964D01*
X0004114Y0008794D01*
X0004198Y0008638D01*
X0004311Y0008501D01*
X0004448Y0008388D01*
X0004604Y0008304D01*
X0004774Y0008253D01*
X0004950Y0008236D01*
X0005126Y0008253D01*
X0005296Y0008304D01*
X0005452Y0008388D01*
X0005589Y0008501D01*
X0005702Y0008638D01*
X0005786Y0008794D01*
X0005837Y0008964D01*
X0005854Y0009140D01*
X0005837Y0009316D01*
X0005786Y0009486D01*
X0005702Y0009642D01*
X0005589Y0009779D01*
X0005452Y0009892D01*
X0005296Y0009976D01*
X0005126Y0010027D01*
X0004950Y0010044D01*
D02*
G37*
G36*
X0012500Y0031850D02*
X0012296D01*
X0012307Y0031823D01*
X0012379Y0031729D01*
X0012473Y0031657D01*
X0012500Y0031646D01*
Y0031850D01*
D02*
G37*
G36*
X0016750Y0032454D02*
X0016633Y0032438D01*
X0016523Y0032393D01*
X0016429Y0032321D01*
X0016357Y0032227D01*
X0016312Y0032117D01*
X0016296Y0032000D01*
X0016312Y0031883D01*
X0016357Y0031773D01*
X0016429Y0031679D01*
X0016523Y0031607D01*
X0016633Y0031562D01*
X0016750Y0031546D01*
X0016867Y0031562D01*
X0016977Y0031607D01*
X0017071Y0031679D01*
X0017143Y0031773D01*
X0017188Y0031883D01*
X0017204Y0032000D01*
X0017188Y0032117D01*
X0017143Y0032227D01*
X0017071Y0032321D01*
X0016977Y0032393D01*
X0016867Y0032438D01*
X0016750Y0032454D01*
D02*
G37*
G36*
X0013700Y0030804D02*
Y0030600D01*
X0013904D01*
X0013893Y0030627D01*
X0013821Y0030721D01*
X0013727Y0030793D01*
X0013700Y0030804D01*
D02*
G37*
G36*
X0020101Y0032669D02*
X0019984Y0032653D01*
X0019874Y0032608D01*
X0019780Y0032536D01*
X0019708Y0032442D01*
X0019663Y0032332D01*
X0019647Y0032215D01*
X0019663Y0032098D01*
X0019708Y0031988D01*
X0019780Y0031894D01*
X0019874Y0031822D01*
X0019984Y0031777D01*
X0020101Y0031761D01*
X0020219Y0031777D01*
X0020328Y0031822D01*
X0020422Y0031894D01*
X0020494Y0031988D01*
X0020540Y0032098D01*
X0020555Y0032215D01*
X0020540Y0032332D01*
X0020494Y0032442D01*
X0020422Y0032536D01*
X0020328Y0032608D01*
X0020219Y0032653D01*
X0020101Y0032669D01*
D02*
G37*
G36*
X0019051D02*
X0018934Y0032653D01*
X0018824Y0032608D01*
X0018730Y0032536D01*
X0018658Y0032442D01*
X0018613Y0032332D01*
X0018597Y0032215D01*
X0018613Y0032098D01*
X0018658Y0031988D01*
X0018730Y0031894D01*
X0018824Y0031822D01*
X0018934Y0031777D01*
X0019051Y0031761D01*
X0019169Y0031777D01*
X0019278Y0031822D01*
X0019372Y0031894D01*
X0019444Y0031988D01*
X0019490Y0032098D01*
X0019505Y0032215D01*
X0019490Y0032332D01*
X0019444Y0032442D01*
X0019372Y0032536D01*
X0019278Y0032608D01*
X0019169Y0032653D01*
X0019051Y0032669D01*
D02*
G37*
G36*
X0013104Y0031850D02*
X0012900D01*
Y0031646D01*
X0012927Y0031657D01*
X0013021Y0031729D01*
X0013093Y0031823D01*
X0013104Y0031850D01*
D02*
G37*
G36*
X0013300Y0030804D02*
X0013273Y0030793D01*
X0013179Y0030721D01*
X0013107Y0030627D01*
X0013096Y0030600D01*
X0013300D01*
Y0030804D01*
D02*
G37*
G36*
Y0030200D02*
X0013096D01*
X0013107Y0030173D01*
X0013179Y0030079D01*
X0013273Y0030007D01*
X0013300Y0029996D01*
Y0030200D01*
D02*
G37*
G36*
X0012304D02*
X0012100D01*
Y0029996D01*
X0012127Y0030007D01*
X0012221Y0030079D01*
X0012293Y0030173D01*
X0012304Y0030200D01*
D02*
G37*
G36*
X0011700D02*
X0011496D01*
X0011507Y0030173D01*
X0011579Y0030079D01*
X0011673Y0030007D01*
X0011700Y0029996D01*
Y0030200D01*
D02*
G37*
G36*
X0012100Y0030804D02*
Y0030600D01*
X0012304D01*
X0012293Y0030627D01*
X0012221Y0030721D01*
X0012127Y0030793D01*
X0012100Y0030804D01*
D02*
G37*
G36*
X0011700D02*
X0011673Y0030793D01*
X0011579Y0030721D01*
X0011507Y0030627D01*
X0011496Y0030600D01*
X0011700D01*
Y0030804D01*
D02*
G37*
G36*
X0013904Y0030200D02*
X0013700D01*
Y0029996D01*
X0013727Y0030007D01*
X0013821Y0030079D01*
X0013893Y0030173D01*
X0013904Y0030200D01*
D02*
G37*
G36*
X0011700Y0034104D02*
X0011673Y0034093D01*
X0011579Y0034021D01*
X0011507Y0033927D01*
X0011496Y0033900D01*
X0011700D01*
Y0034104D01*
D02*
G37*
G36*
X0006051Y0034369D02*
X0005934Y0034353D01*
X0005824Y0034308D01*
X0005730Y0034236D01*
X0005658Y0034142D01*
X0005613Y0034032D01*
X0005597Y0033915D01*
X0005613Y0033798D01*
X0005658Y0033688D01*
X0005730Y0033594D01*
X0005824Y0033522D01*
X0005934Y0033477D01*
X0006051Y0033461D01*
X0006169Y0033477D01*
X0006278Y0033522D01*
X0006372Y0033594D01*
X0006444Y0033688D01*
X0006490Y0033798D01*
X0006505Y0033915D01*
X0006490Y0034032D01*
X0006444Y0034142D01*
X0006372Y0034236D01*
X0006278Y0034308D01*
X0006169Y0034353D01*
X0006051Y0034369D01*
D02*
G37*
G36*
X0017801Y0034520D02*
X0017658Y0034501D01*
X0017524Y0034445D01*
X0017409Y0034357D01*
X0017321Y0034242D01*
X0017265Y0034109D01*
X0017247Y0033965D01*
X0017265Y0033821D01*
X0017321Y0033688D01*
X0017409Y0033573D01*
X0017524Y0033485D01*
X0017658Y0033429D01*
X0017801Y0033410D01*
X0017945Y0033429D01*
X0018079Y0033485D01*
X0018194Y0033573D01*
X0018282Y0033688D01*
X0018337Y0033821D01*
X0018356Y0033965D01*
X0018337Y0034109D01*
X0018282Y0034242D01*
X0018194Y0034357D01*
X0018079Y0034445D01*
X0017945Y0034501D01*
X0017801Y0034520D01*
D02*
G37*
G36*
X0013700Y0034104D02*
Y0033900D01*
X0013904D01*
X0013893Y0033927D01*
X0013821Y0034021D01*
X0013727Y0034093D01*
X0013700Y0034104D01*
D02*
G37*
G36*
X0013300D02*
X0013273Y0034093D01*
X0013179Y0034021D01*
X0013107Y0033927D01*
X0013096Y0033900D01*
X0013300D01*
Y0034104D01*
D02*
G37*
G36*
X0012100D02*
Y0033900D01*
X0012304D01*
X0012293Y0033927D01*
X0012221Y0034021D01*
X0012127Y0034093D01*
X0012100Y0034104D01*
D02*
G37*
G36*
X0013904Y0033500D02*
X0013700D01*
Y0033296D01*
X0013727Y0033307D01*
X0013821Y0033379D01*
X0013893Y0033473D01*
X0013904Y0033500D01*
D02*
G37*
G36*
X0012900Y0032454D02*
Y0032250D01*
X0013104D01*
X0013093Y0032277D01*
X0013021Y0032371D01*
X0012927Y0032443D01*
X0012900Y0032454D01*
D02*
G37*
G36*
X0012500D02*
X0012473Y0032443D01*
X0012379Y0032371D01*
X0012307Y0032277D01*
X0012296Y0032250D01*
X0012500D01*
Y0032454D01*
D02*
G37*
G36*
X0027250Y0033105D02*
X0027106Y0033086D01*
X0026973Y0033030D01*
X0026858Y0032942D01*
X0026770Y0032827D01*
X0026714Y0032694D01*
X0026695Y0032550D01*
X0026714Y0032406D01*
X0026770Y0032273D01*
X0026858Y0032158D01*
X0026973Y0032070D01*
X0027106Y0032014D01*
X0027250Y0031995D01*
X0027394Y0032014D01*
X0027527Y0032070D01*
X0027642Y0032158D01*
X0027730Y0032273D01*
X0027786Y0032406D01*
X0027805Y0032550D01*
X0027786Y0032694D01*
X0027730Y0032827D01*
X0027642Y0032942D01*
X0027527Y0033030D01*
X0027394Y0033086D01*
X0027250Y0033105D01*
D02*
G37*
G36*
X0013300Y0033500D02*
X0013096D01*
X0013107Y0033473D01*
X0013179Y0033379D01*
X0013273Y0033307D01*
X0013300Y0033296D01*
Y0033500D01*
D02*
G37*
G36*
X0012304D02*
X0012100D01*
Y0033296D01*
X0012127Y0033307D01*
X0012221Y0033379D01*
X0012293Y0033473D01*
X0012304Y0033500D01*
D02*
G37*
G36*
X0011700D02*
X0011496D01*
X0011507Y0033473D01*
X0011579Y0033379D01*
X0011673Y0033307D01*
X0011700Y0033296D01*
Y0033500D01*
D02*
G37*
G36*
X0015500Y0029704D02*
X0015383Y0029688D01*
X0015273Y0029643D01*
X0015179Y0029571D01*
X0015107Y0029477D01*
X0015062Y0029367D01*
X0015046Y0029250D01*
X0015062Y0029133D01*
X0015107Y0029023D01*
X0015179Y0028929D01*
X0015273Y0028857D01*
X0015383Y0028812D01*
X0015500Y0028796D01*
X0015617Y0028812D01*
X0015727Y0028857D01*
X0015821Y0028929D01*
X0015893Y0029023D01*
X0015938Y0029133D01*
X0015954Y0029250D01*
X0015938Y0029367D01*
X0015893Y0029477D01*
X0015821Y0029571D01*
X0015727Y0029643D01*
X0015617Y0029688D01*
X0015500Y0029704D01*
D02*
G37*
G36*
X0002410Y0022744D02*
X0002234Y0022727D01*
X0002064Y0022676D01*
X0001908Y0022592D01*
X0001771Y0022479D01*
X0001658Y0022342D01*
X0001574Y0022186D01*
X0001523Y0022016D01*
X0001506Y0021840D01*
X0001523Y0021664D01*
X0001574Y0021494D01*
X0001658Y0021338D01*
X0001771Y0021201D01*
X0001908Y0021088D01*
X0002064Y0021004D01*
X0002234Y0020953D01*
X0002410Y0020936D01*
X0002586Y0020953D01*
X0002756Y0021004D01*
X0002912Y0021088D01*
X0003049Y0021201D01*
X0003162Y0021338D01*
X0003246Y0021494D01*
X0003297Y0021664D01*
X0003314Y0021840D01*
X0003297Y0022016D01*
X0003246Y0022186D01*
X0003162Y0022342D01*
X0003049Y0022479D01*
X0002912Y0022592D01*
X0002756Y0022676D01*
X0002586Y0022727D01*
X0002410Y0022744D01*
D02*
G37*
G36*
X0034850Y0020204D02*
Y0020200D01*
X0034860D01*
X0034850Y0020204D01*
D02*
G37*
G36*
X0034450D02*
X0034440Y0020200D01*
X0034450D01*
Y0020204D01*
D02*
G37*
G36*
X0012570Y0022744D02*
X0012394Y0022727D01*
X0012224Y0022676D01*
X0012068Y0022592D01*
X0011931Y0022479D01*
X0011818Y0022342D01*
X0011734Y0022186D01*
X0011683Y0022016D01*
X0011666Y0021840D01*
X0011683Y0021664D01*
X0011734Y0021494D01*
X0011818Y0021338D01*
X0011931Y0021201D01*
X0012068Y0021088D01*
X0012224Y0021004D01*
X0012394Y0020953D01*
X0012570Y0020936D01*
X0012746Y0020953D01*
X0012916Y0021004D01*
X0013072Y0021088D01*
X0013209Y0021201D01*
X0013322Y0021338D01*
X0013406Y0021494D01*
X0013457Y0021664D01*
X0013474Y0021840D01*
X0013457Y0022016D01*
X0013406Y0022186D01*
X0013322Y0022342D01*
X0013209Y0022479D01*
X0013072Y0022592D01*
X0012916Y0022676D01*
X0012746Y0022727D01*
X0012570Y0022744D01*
D02*
G37*
G36*
X0010030D02*
X0009854Y0022727D01*
X0009684Y0022676D01*
X0009528Y0022592D01*
X0009391Y0022479D01*
X0009278Y0022342D01*
X0009194Y0022186D01*
X0009143Y0022016D01*
X0009126Y0021840D01*
X0009143Y0021664D01*
X0009194Y0021494D01*
X0009278Y0021338D01*
X0009391Y0021201D01*
X0009528Y0021088D01*
X0009684Y0021004D01*
X0009854Y0020953D01*
X0010030Y0020936D01*
X0010206Y0020953D01*
X0010376Y0021004D01*
X0010532Y0021088D01*
X0010669Y0021201D01*
X0010782Y0021338D01*
X0010866Y0021494D01*
X0010917Y0021664D01*
X0010934Y0021840D01*
X0010917Y0022016D01*
X0010866Y0022186D01*
X0010782Y0022342D01*
X0010669Y0022479D01*
X0010532Y0022592D01*
X0010376Y0022676D01*
X0010206Y0022727D01*
X0010030Y0022744D01*
D02*
G37*
G36*
X0004950D02*
X0004774Y0022727D01*
X0004604Y0022676D01*
X0004448Y0022592D01*
X0004311Y0022479D01*
X0004198Y0022342D01*
X0004114Y0022186D01*
X0004063Y0022016D01*
X0004046Y0021840D01*
X0004063Y0021664D01*
X0004114Y0021494D01*
X0004198Y0021338D01*
X0004311Y0021201D01*
X0004448Y0021088D01*
X0004604Y0021004D01*
X0004774Y0020953D01*
X0004950Y0020936D01*
X0005126Y0020953D01*
X0005296Y0021004D01*
X0005452Y0021088D01*
X0005589Y0021201D01*
X0005702Y0021338D01*
X0005786Y0021494D01*
X0005837Y0021664D01*
X0005854Y0021840D01*
X0005837Y0022016D01*
X0005786Y0022186D01*
X0005702Y0022342D01*
X0005589Y0022479D01*
X0005452Y0022592D01*
X0005296Y0022676D01*
X0005126Y0022727D01*
X0004950Y0022744D01*
D02*
G37*
G36*
X0033650Y0020204D02*
Y0020200D01*
X0033660D01*
X0033650Y0020204D01*
D02*
G37*
G36*
X0031250D02*
Y0020200D01*
X0031260D01*
X0031250Y0020204D01*
D02*
G37*
G36*
X0030850D02*
X0030840Y0020200D01*
X0030850D01*
Y0020204D01*
D02*
G37*
G36*
X0050530Y0020580D02*
X0050412Y0020565D01*
X0050303Y0020519D01*
X0050209Y0020447D01*
X0050137Y0020353D01*
X0050091Y0020244D01*
X0050076Y0020126D01*
X0050091Y0020009D01*
X0050137Y0019899D01*
X0050209Y0019805D01*
X0050303Y0019733D01*
X0050412Y0019688D01*
X0050530Y0019672D01*
X0050647Y0019688D01*
X0050757Y0019733D01*
X0050851Y0019805D01*
X0050923Y0019899D01*
X0050968Y0020009D01*
X0050984Y0020126D01*
X0050968Y0020244D01*
X0050923Y0020353D01*
X0050851Y0020447D01*
X0050757Y0020519D01*
X0050647Y0020565D01*
X0050530Y0020580D01*
D02*
G37*
G36*
X0033250Y0020204D02*
X0033240Y0020200D01*
X0033250D01*
Y0020204D01*
D02*
G37*
G36*
X0032450D02*
Y0020200D01*
X0032460D01*
X0032450Y0020204D01*
D02*
G37*
G36*
X0032050D02*
X0032040Y0020200D01*
X0032050D01*
Y0020204D01*
D02*
G37*
G36*
X0052150Y0027025D02*
X0052033Y0027010D01*
X0051923Y0026965D01*
X0051829Y0026892D01*
X0051757Y0026799D01*
X0051712Y0026689D01*
X0051696Y0026572D01*
X0051712Y0026454D01*
X0051757Y0026345D01*
X0051829Y0026251D01*
X0051923Y0026178D01*
X0052033Y0026133D01*
X0052150Y0026118D01*
X0052267Y0026133D01*
X0052377Y0026178D01*
X0052471Y0026251D01*
X0052543Y0026345D01*
X0052588Y0026454D01*
X0052604Y0026572D01*
X0052588Y0026689D01*
X0052543Y0026799D01*
X0052471Y0026892D01*
X0052377Y0026965D01*
X0052267Y0027010D01*
X0052150Y0027025D01*
D02*
G37*
G36*
X0014400Y0027754D02*
X0014283Y0027738D01*
X0014173Y0027693D01*
X0014079Y0027621D01*
X0014007Y0027527D01*
X0013962Y0027417D01*
X0013946Y0027300D01*
X0013962Y0027183D01*
X0014007Y0027073D01*
X0014079Y0026979D01*
X0014173Y0026907D01*
X0014283Y0026862D01*
X0014400Y0026846D01*
X0014457Y0026854D01*
X0014557Y0026777D01*
X0014512Y0026667D01*
X0014496Y0026550D01*
X0014512Y0026433D01*
X0014557Y0026323D01*
X0014629Y0026229D01*
X0014723Y0026157D01*
X0014833Y0026112D01*
X0014950Y0026096D01*
X0015067Y0026112D01*
X0015177Y0026157D01*
X0015271Y0026229D01*
X0015343Y0026323D01*
X0015388Y0026433D01*
X0015404Y0026550D01*
X0015388Y0026667D01*
X0015343Y0026777D01*
X0015271Y0026871D01*
X0015177Y0026943D01*
X0015067Y0026988D01*
X0014950Y0027004D01*
X0014893Y0026996D01*
X0014793Y0027073D01*
X0014838Y0027183D01*
X0014854Y0027300D01*
X0014838Y0027417D01*
X0014793Y0027527D01*
X0014721Y0027621D01*
X0014627Y0027693D01*
X0014517Y0027738D01*
X0014400Y0027754D01*
D02*
G37*
G36*
X0004950Y0027824D02*
X0004774Y0027807D01*
X0004604Y0027756D01*
X0004448Y0027672D01*
X0004311Y0027559D01*
X0004198Y0027422D01*
X0004114Y0027266D01*
X0004063Y0027096D01*
X0004046Y0026920D01*
X0004063Y0026744D01*
X0004114Y0026574D01*
X0004198Y0026418D01*
X0004311Y0026281D01*
X0004448Y0026168D01*
X0004604Y0026084D01*
X0004774Y0026033D01*
X0004950Y0026016D01*
X0005126Y0026033D01*
X0005296Y0026084D01*
X0005452Y0026168D01*
X0005589Y0026281D01*
X0005702Y0026418D01*
X0005786Y0026574D01*
X0005837Y0026744D01*
X0005854Y0026920D01*
X0005837Y0027096D01*
X0005786Y0027266D01*
X0005702Y0027422D01*
X0005589Y0027559D01*
X0005452Y0027672D01*
X0005296Y0027756D01*
X0005126Y0027807D01*
X0004950Y0027824D01*
D02*
G37*
G36*
Y0030364D02*
X0004774Y0030347D01*
X0004604Y0030296D01*
X0004448Y0030212D01*
X0004311Y0030099D01*
X0004198Y0029962D01*
X0004114Y0029806D01*
X0004063Y0029636D01*
X0004046Y0029460D01*
X0004063Y0029284D01*
X0004114Y0029114D01*
X0004198Y0028958D01*
X0004311Y0028821D01*
X0004448Y0028708D01*
X0004604Y0028624D01*
X0004774Y0028573D01*
X0004950Y0028556D01*
X0005126Y0028573D01*
X0005296Y0028624D01*
X0005452Y0028708D01*
X0005589Y0028821D01*
X0005702Y0028958D01*
X0005786Y0029114D01*
X0005837Y0029284D01*
X0005854Y0029460D01*
X0005837Y0029636D01*
X0005786Y0029806D01*
X0005702Y0029962D01*
X0005589Y0030099D01*
X0005452Y0030212D01*
X0005296Y0030296D01*
X0005126Y0030347D01*
X0004950Y0030364D01*
D02*
G37*
G36*
X0002410D02*
X0002234Y0030347D01*
X0002064Y0030296D01*
X0001908Y0030212D01*
X0001771Y0030099D01*
X0001658Y0029962D01*
X0001574Y0029806D01*
X0001523Y0029636D01*
X0001506Y0029460D01*
X0001523Y0029284D01*
X0001574Y0029114D01*
X0001658Y0028958D01*
X0001771Y0028821D01*
X0001908Y0028708D01*
X0002064Y0028624D01*
X0002234Y0028573D01*
X0002410Y0028556D01*
X0002586Y0028573D01*
X0002756Y0028624D01*
X0002912Y0028708D01*
X0003049Y0028821D01*
X0003162Y0028958D01*
X0003246Y0029114D01*
X0003297Y0029284D01*
X0003314Y0029460D01*
X0003297Y0029636D01*
X0003246Y0029806D01*
X0003162Y0029962D01*
X0003049Y0030099D01*
X0002912Y0030212D01*
X0002756Y0030296D01*
X0002586Y0030347D01*
X0002410Y0030364D01*
D02*
G37*
G36*
X0025450Y0029354D02*
X0025333Y0029338D01*
X0025223Y0029293D01*
X0025129Y0029221D01*
X0025057Y0029127D01*
X0025012Y0029017D01*
X0024996Y0028900D01*
X0025012Y0028783D01*
X0025057Y0028673D01*
X0025129Y0028579D01*
X0025223Y0028507D01*
X0025333Y0028462D01*
X0025450Y0028446D01*
X0025567Y0028462D01*
X0025677Y0028507D01*
X0025771Y0028579D01*
X0025843Y0028673D01*
X0025888Y0028783D01*
X0025904Y0028900D01*
X0025888Y0029017D01*
X0025843Y0029127D01*
X0025771Y0029221D01*
X0025677Y0029293D01*
X0025567Y0029338D01*
X0025450Y0029354D01*
D02*
G37*
G36*
X0002410Y0027824D02*
X0002234Y0027807D01*
X0002064Y0027756D01*
X0001908Y0027672D01*
X0001771Y0027559D01*
X0001658Y0027422D01*
X0001574Y0027266D01*
X0001523Y0027096D01*
X0001506Y0026920D01*
X0001523Y0026744D01*
X0001574Y0026574D01*
X0001658Y0026418D01*
X0001771Y0026281D01*
X0001908Y0026168D01*
X0002064Y0026084D01*
X0002234Y0026033D01*
X0002410Y0026016D01*
X0002586Y0026033D01*
X0002756Y0026084D01*
X0002912Y0026168D01*
X0003049Y0026281D01*
X0003162Y0026418D01*
X0003246Y0026574D01*
X0003297Y0026744D01*
X0003314Y0026920D01*
X0003297Y0027096D01*
X0003246Y0027266D01*
X0003162Y0027422D01*
X0003049Y0027559D01*
X0002912Y0027672D01*
X0002756Y0027756D01*
X0002586Y0027807D01*
X0002410Y0027824D01*
D02*
G37*
G36*
X0015559Y0024304D02*
X0015441Y0024288D01*
X0015332Y0024243D01*
X0015238Y0024171D01*
X0015166Y0024077D01*
X0015120Y0023967D01*
X0015105Y0023850D01*
X0015120Y0023733D01*
X0015166Y0023623D01*
X0015238Y0023529D01*
X0015332Y0023457D01*
X0015441Y0023412D01*
X0015559Y0023396D01*
X0015676Y0023412D01*
X0015786Y0023457D01*
X0015880Y0023529D01*
X0015952Y0023623D01*
X0015997Y0023733D01*
X0016013Y0023850D01*
X0015997Y0023967D01*
X0015952Y0024077D01*
X0015880Y0024171D01*
X0015786Y0024243D01*
X0015676Y0024288D01*
X0015559Y0024304D01*
D02*
G37*
G36*
X0016450Y0023454D02*
X0016333Y0023438D01*
X0016223Y0023393D01*
X0016129Y0023321D01*
X0016057Y0023227D01*
X0016012Y0023117D01*
X0015996Y0023000D01*
X0016012Y0022883D01*
X0016057Y0022773D01*
X0016129Y0022679D01*
X0016223Y0022607D01*
X0016333Y0022562D01*
X0016450Y0022546D01*
X0016567Y0022562D01*
X0016677Y0022607D01*
X0016771Y0022679D01*
X0016843Y0022773D01*
X0016888Y0022883D01*
X0016904Y0023000D01*
X0016888Y0023117D01*
X0016843Y0023227D01*
X0016771Y0023321D01*
X0016677Y0023393D01*
X0016567Y0023438D01*
X0016450Y0023454D01*
D02*
G37*
G36*
X0013602D02*
X0013484Y0023438D01*
X0013375Y0023393D01*
X0013281Y0023321D01*
X0013209Y0023227D01*
X0013164Y0023117D01*
X0013148Y0023000D01*
X0013164Y0022883D01*
X0013209Y0022773D01*
X0013281Y0022679D01*
X0013375Y0022607D01*
X0013484Y0022562D01*
X0013602Y0022546D01*
X0013719Y0022562D01*
X0013829Y0022607D01*
X0013923Y0022679D01*
X0013995Y0022773D01*
X0014040Y0022883D01*
X0014056Y0023000D01*
X0014040Y0023117D01*
X0013995Y0023227D01*
X0013923Y0023321D01*
X0013829Y0023393D01*
X0013719Y0023438D01*
X0013602Y0023454D01*
D02*
G37*
G36*
X0032475Y0025905D02*
X0032331Y0025886D01*
X0032198Y0025830D01*
X0032083Y0025742D01*
X0031995Y0025627D01*
X0031939Y0025494D01*
X0031920Y0025350D01*
X0031939Y0025206D01*
X0031995Y0025073D01*
X0032083Y0024958D01*
X0032198Y0024870D01*
X0032331Y0024814D01*
X0032475Y0024795D01*
X0032619Y0024814D01*
X0032752Y0024870D01*
X0032867Y0024958D01*
X0032955Y0025073D01*
X0033011Y0025206D01*
X0033030Y0025350D01*
X0033011Y0025494D01*
X0032955Y0025627D01*
X0032867Y0025742D01*
X0032752Y0025830D01*
X0032619Y0025886D01*
X0032475Y0025905D01*
D02*
G37*
G36*
X0004950Y0025284D02*
X0004774Y0025267D01*
X0004604Y0025216D01*
X0004448Y0025132D01*
X0004311Y0025019D01*
X0004198Y0024882D01*
X0004114Y0024726D01*
X0004063Y0024556D01*
X0004046Y0024380D01*
X0004063Y0024204D01*
X0004114Y0024034D01*
X0004198Y0023878D01*
X0004311Y0023741D01*
X0004448Y0023628D01*
X0004604Y0023544D01*
X0004774Y0023493D01*
X0004950Y0023476D01*
X0005126Y0023493D01*
X0005296Y0023544D01*
X0005452Y0023628D01*
X0005589Y0023741D01*
X0005702Y0023878D01*
X0005786Y0024034D01*
X0005837Y0024204D01*
X0005854Y0024380D01*
X0005837Y0024556D01*
X0005786Y0024726D01*
X0005702Y0024882D01*
X0005589Y0025019D01*
X0005452Y0025132D01*
X0005296Y0025216D01*
X0005126Y0025267D01*
X0004950Y0025284D01*
D02*
G37*
G36*
X0002410D02*
X0002234Y0025267D01*
X0002064Y0025216D01*
X0001908Y0025132D01*
X0001771Y0025019D01*
X0001658Y0024882D01*
X0001574Y0024726D01*
X0001523Y0024556D01*
X0001506Y0024380D01*
X0001523Y0024204D01*
X0001574Y0024034D01*
X0001658Y0023878D01*
X0001771Y0023741D01*
X0001908Y0023628D01*
X0002064Y0023544D01*
X0002234Y0023493D01*
X0002410Y0023476D01*
X0002586Y0023493D01*
X0002756Y0023544D01*
X0002912Y0023628D01*
X0003049Y0023741D01*
X0003162Y0023878D01*
X0003246Y0024034D01*
X0003297Y0024204D01*
X0003314Y0024380D01*
X0003297Y0024556D01*
X0003246Y0024726D01*
X0003162Y0024882D01*
X0003049Y0025019D01*
X0002912Y0025132D01*
X0002756Y0025216D01*
X0002586Y0025267D01*
X0002410Y0025284D01*
D02*
G37*
%LPD*%
D40*
X0000000Y0000000D02*
Y0036000D01*
X0065000D01*
Y0000000D02*
Y0036000D01*
X0000000Y0000000D02*
X0065000D01*
D41*
X0010030Y0021840D02*
D03*
X0012570D02*
D03*
X0010030Y0019300D02*
D03*
X0012570D02*
D03*
X0010030Y0016760D02*
D03*
X0012570D02*
D03*
X0010030Y0014220D02*
D03*
X0012570D02*
D03*
X0010030Y0011680D02*
D03*
X0012570D02*
D03*
X0010030Y0009140D02*
D03*
X0012570D02*
D03*
X0010030Y0006600D02*
D03*
X0002410D02*
D03*
X0004950Y0009140D02*
D03*
X0002410D02*
D03*
X0004950Y0011680D02*
D03*
X0002410D02*
D03*
X0004950Y0014220D02*
D03*
X0002410D02*
D03*
X0004950Y0016760D02*
D03*
X0002410D02*
D03*
X0004950Y0019300D02*
D03*
X0002410D02*
D03*
X0004950Y0021840D02*
D03*
X0002410D02*
D03*
X0004950Y0024380D02*
D03*
X0002410D02*
D03*
X0004950Y0026920D02*
D03*
X0002410D02*
D03*
X0004950Y0029460D02*
D03*
X0002410D02*
D03*
D42*
X0012570Y0006600D02*
D03*
X0004950D02*
D03*
D43*
X0015000Y0002500D02*
D03*
X0022990Y0002500D02*
D03*
D44*
X0020450D02*
D03*
D45*
X0062500Y0028100D02*
D03*
Y0033300D02*
D03*
Y0007900D02*
D03*
Y0002700D02*
D03*
D46*
X0037428Y0016701D02*
D03*
X0027250Y0032550D02*
D03*
X0032475Y0025350D02*
D03*
X0012900Y0025950D02*
D03*
X0012950Y0002450D02*
D03*
X0005300Y0002500D02*
D03*
X0003850Y0004100D02*
D03*
X0017801Y0033965D02*
D03*
X0026150Y0002500D02*
D03*
X0028600Y0014000D02*
D03*
D47*
X0038725Y0017150D02*
D03*
X0051077Y0015100D02*
D03*
X0044350Y0018800D02*
D03*
X0041100Y0018055D02*
D03*
X0046419Y0017000D02*
D03*
X0044350D02*
D03*
X0042517D02*
D03*
X0043550Y0015917D02*
D03*
X0040901Y0014950D02*
D03*
X0047739Y0013800D02*
D03*
X0036375Y0014144D02*
D03*
X0035435D02*
D03*
X0042450Y0013300D02*
D03*
X0045803Y0012350D02*
D03*
X0055402Y0006450D02*
D03*
X0041800Y0008250D02*
D03*
X0039700D02*
D03*
X0033200Y0010150D02*
D03*
X0042100Y0012000D02*
D03*
X0039711D02*
D03*
X0037250Y0012283D02*
D03*
X0036993Y0009300D02*
D03*
X0035915Y0012550D02*
D03*
X0034420Y0010450D02*
D03*
X0035350Y0009550D02*
D03*
X0038725Y0016250D02*
D03*
X0048700Y0006400D02*
D03*
X0032000Y0034700D02*
D03*
X0026000Y0032450D02*
D03*
X0030274Y0015250D02*
D03*
X0041750Y0027375D02*
D03*
X0034342Y0028100D02*
D03*
X0031800Y0024380D02*
D03*
X0033150D02*
D03*
X0022990Y0023250D02*
D03*
X0034150Y0024380D02*
D03*
X0060554Y0019800D02*
D03*
X0062300Y0021906D02*
D03*
X0058500Y0016800D02*
D03*
X0058600Y0022500D02*
D03*
X0047900Y0034700D02*
D03*
X0037800D02*
D03*
X0026650D02*
D03*
X0011100Y0022900D02*
D03*
X0031050Y0017400D02*
D03*
X0032250Y0016200D02*
D03*
X0034650Y0019800D02*
D03*
X0032250D02*
D03*
X0033450D02*
D03*
X0032250Y0017400D02*
D03*
X0031050Y0016200D02*
D03*
Y0018600D02*
D03*
Y0019800D02*
D03*
X0034650Y0018600D02*
D03*
X0033450D02*
D03*
X0032250D02*
D03*
X0033450Y0017400D02*
D03*
X0034650D02*
D03*
Y0016200D02*
D03*
X0033450D02*
D03*
X0047150Y0005700D02*
D03*
X0043800D02*
D03*
X0037800Y0005300D02*
D03*
X0030750Y0030750D02*
D03*
X0028350D02*
D03*
X0037600Y0030700D02*
D03*
X0035150D02*
D03*
X0043700Y0030750D02*
D03*
X0041150Y0030793D02*
D03*
X0047150Y0030700D02*
D03*
X0053800D02*
D03*
X0060100Y0025571D02*
D03*
X0059500Y0027450D02*
D03*
X0058150Y0024800D02*
D03*
X0056400Y0024800D02*
D03*
X0055350Y0023975D02*
D03*
X0054100Y0011800D02*
D03*
X0060700Y0009450D02*
D03*
X0059350Y0008583D02*
D03*
X0059400Y0007445D02*
D03*
X0060000Y0005950D02*
D03*
X0060745Y0004350D02*
D03*
X0059350Y0004659D02*
D03*
X0058000D02*
D03*
X0057025Y0005350D02*
D03*
X0056700Y0006550D02*
D03*
Y0007700D02*
D03*
X0053700Y0006350D02*
D03*
X0051950Y0007100D02*
D03*
X0054000Y0007950D02*
D03*
X0055402Y0007600D02*
D03*
X0055350Y0018900D02*
D03*
Y0016600D02*
D03*
X0053100Y0005300D02*
D03*
X0049500D02*
D03*
X0040600Y0005700D02*
D03*
X0035200Y0005300D02*
D03*
X0017286Y0011800D02*
D03*
X0017350Y0017600D02*
D03*
X0017286Y0022650D02*
D03*
X0026150Y0030700D02*
D03*
X0060800Y0031676D02*
D03*
X0055350Y0022600D02*
D03*
X0059350Y0029550D02*
D03*
X0060200Y0030050D02*
D03*
X0059500Y0031350D02*
D03*
X0058150D02*
D03*
X0057050Y0030750D02*
D03*
X0056700Y0029550D02*
D03*
X0058600Y0025650D02*
D03*
X0057500D02*
D03*
X0056700Y0027100D02*
D03*
X0052150Y0026572D02*
D03*
X0027500Y0003600D02*
D03*
X0028100Y0007500D02*
D03*
X0024550D02*
D03*
X0026250Y0011800D02*
D03*
X0029000D02*
D03*
X0028150Y0010970D02*
D03*
X0024600Y0010999D02*
D03*
X0023250Y0012900D02*
D03*
X0021150Y0011000D02*
D03*
X0020650Y0012850D02*
D03*
X0021850Y0016750D02*
D03*
X0025050Y0017300D02*
D03*
X0022850Y0015650D02*
D03*
X0020650Y0015750D02*
D03*
X0023350Y0017800D02*
D03*
X0026400D02*
D03*
X0056700Y0008950D02*
D03*
X0055031Y0008950D02*
D03*
Y0010250D02*
D03*
X0060100Y0012600D02*
D03*
X0058400Y0013000D02*
D03*
X0056550D02*
D03*
X0053000Y0012550D02*
D03*
X0054000Y0014350D02*
D03*
X0051950Y0013800D02*
D03*
X0054000Y0024077D02*
D03*
X0050650Y0029200D02*
D03*
X0040450Y0027841D02*
D03*
X0039387Y0030000D02*
D03*
X0034342Y0025450D02*
D03*
X0032850Y0027600D02*
D03*
X0035400Y0029100D02*
D03*
X0026650Y0023501D02*
D03*
X0022900Y0021250D02*
D03*
X0020850Y0023350D02*
D03*
X0022500Y0025050D02*
D03*
X0026650Y0026203D02*
D03*
X0024350Y0026850D02*
D03*
X0048795Y0029400D02*
D03*
X0049338Y0028422D02*
D03*
X0040750Y0021425D02*
D03*
X0039376Y0021409D02*
D03*
X0048650Y0021150D02*
D03*
X0045500Y0021200D02*
D03*
X0052431Y0029200D02*
D03*
X0052350Y0027650D02*
D03*
X0052400Y0020800D02*
D03*
Y0021900D02*
D03*
Y0023050D02*
D03*
X0050950Y0022700D02*
D03*
X0047600Y0021150D02*
D03*
X0046500D02*
D03*
X0044500D02*
D03*
X0043400D02*
D03*
X0041400Y0020550D02*
D03*
X0040209D02*
D03*
X0041000Y0019760D02*
D03*
X0055350Y0011500D02*
D03*
X0056700Y0010250D02*
D03*
X0043950Y0008200D02*
D03*
X0049025Y0009350D02*
D03*
X0040600Y0007500D02*
D03*
X0038000D02*
D03*
X0038550Y0009300D02*
D03*
X0037850Y0029850D02*
D03*
X0055031Y0025200D02*
D03*
X0052500Y0024077D02*
D03*
X0058600Y0030050D02*
D03*
X0049350Y0030700D02*
D03*
X0056700Y0028305D02*
D03*
X0059350Y0026450D02*
D03*
X0054000Y0026000D02*
D03*
X0055402Y0028070D02*
D03*
X0054000Y0029200D02*
D03*
X0052471Y0025700D02*
D03*
X0054000Y0022950D02*
D03*
Y0027250D02*
D03*
X0049400Y0022110D02*
D03*
X0049430Y0023540D02*
D03*
X0050650Y0028000D02*
D03*
X0050600Y0026203D02*
D03*
Y0024876D02*
D03*
X0048176Y0028422D02*
D03*
X0037000Y0030112D02*
D03*
X0036000D02*
D03*
X0046895Y0007100D02*
D03*
X0016750Y0032000D02*
D03*
X0009000Y0030145D02*
D03*
X0005150Y0031800D02*
D03*
X0006750Y0032800D02*
D03*
X0020101Y0032215D02*
D03*
X0019051D02*
D03*
X0050550Y0007100D02*
D03*
X0059350Y0009600D02*
D03*
X0013500Y0030400D02*
D03*
X0011900D02*
D03*
X0012700Y0032050D02*
D03*
X0011900Y0033700D02*
D03*
X0013500D02*
D03*
X0016200Y0022200D02*
D03*
X0015559Y0023850D02*
D03*
X0008600Y0027900D02*
D03*
X0006014Y0025650D02*
D03*
X0001625D02*
D03*
X0006178Y0021605D02*
D03*
X0004580Y0015490D02*
D03*
Y0018000D02*
D03*
X0001367Y0007259D02*
D03*
X0051580Y0020106D02*
D03*
X0027800Y0017300D02*
D03*
X0039550Y0023850D02*
D03*
X0043000Y0030150D02*
D03*
X0035989Y0024425D02*
D03*
X0020650Y0017750D02*
D03*
X0041750Y0026125D02*
D03*
X0036000Y0027053D02*
D03*
X0038200Y0023850D02*
D03*
X0022100Y0032050D02*
D03*
X0015719Y0027800D02*
D03*
X0015750Y0025550D02*
D03*
X0021050Y0033150D02*
D03*
X0024750Y0022296D02*
D03*
X0019300Y0024775D02*
D03*
X0030500Y0029400D02*
D03*
X0040209Y0022250D02*
D03*
X0023000Y0030700D02*
D03*
X0020900D02*
D03*
X0038950Y0020550D02*
D03*
X0041750Y0030150D02*
D03*
X0034350Y0026800D02*
D03*
X0041350Y0016134D02*
D03*
X0032500Y0011400D02*
D03*
X0003050Y0035350D02*
D03*
X0016001Y0035315D02*
D03*
X0023400Y0033150D02*
D03*
X0042574Y0015900D02*
D03*
X0038950Y0018800D02*
D03*
X0037355Y0025000D02*
D03*
X0038550Y0024775D02*
D03*
X0043875Y0023850D02*
D03*
X0055402Y0030700D02*
D03*
X0064250Y0007900D02*
D03*
X0064300Y0002685D02*
D03*
X0061150Y0002692D02*
D03*
Y0007900D02*
D03*
X0055100Y0013500D02*
D03*
X0062500Y0009450D02*
D03*
X0059700Y0003481D02*
D03*
X0062450Y0000700D02*
D03*
X0064350D02*
D03*
X0055402Y0005300D02*
D03*
X0058300Y0003550D02*
D03*
X0013798Y0014276D02*
D03*
Y0011600D02*
D03*
X0040250Y0019000D02*
D03*
X0034300Y0011900D02*
D03*
X0044400Y0010900D02*
D03*
X0040900Y0011306D02*
D03*
X0035284Y0007500D02*
D03*
X0030900Y0014276D02*
D03*
X0025400Y0013000D02*
D03*
X0020550Y0021859D02*
D03*
X0017300Y0025050D02*
D03*
X0013798Y0021483D02*
D03*
X0018550Y0022350D02*
D03*
X0007666Y0024500D02*
D03*
X0011100Y0027900D02*
D03*
X0013500D02*
D03*
X0006000D02*
D03*
X0005600Y0035350D02*
D03*
X0002950Y0034100D02*
D03*
X0008700Y0025920D02*
D03*
X0006310Y0023950D02*
D03*
X0003683Y0023975D02*
D03*
X0003740Y0011300D02*
D03*
X0027400Y0000700D02*
D03*
X0027700Y0005300D02*
D03*
X0033997Y0008650D02*
D03*
X0022700Y0000700D02*
D03*
X0020300D02*
D03*
X0013890Y0004050D02*
D03*
X0013880Y0006900D02*
D03*
X0025000Y0003550D02*
D03*
X0017650Y0004200D02*
D03*
X0011200Y0003700D02*
D03*
X0007567Y0006900D02*
D03*
X0008200Y0004750D02*
D03*
X0006574Y0001800D02*
D03*
X0001700Y0010350D02*
D03*
X0002750Y0015505D02*
D03*
X0001750Y0012950D02*
D03*
X0003573Y0009950D02*
D03*
X0006461Y0010100D02*
D03*
X0007700Y0012150D02*
D03*
X0000700Y0035350D02*
D03*
Y0031900D02*
D03*
X0011861Y0024700D02*
D03*
X0007150Y0026300D02*
D03*
X0002400Y0030793D02*
D03*
X0002950Y0028194D02*
D03*
X0003652Y0026012D02*
D03*
X0008650Y0021859D02*
D03*
X0008750Y0019300D02*
D03*
X0001502Y0017650D02*
D03*
X0007326Y0017800D02*
D03*
X0007100Y0016150D02*
D03*
X0007700Y0014150D02*
D03*
X0000700Y0004450D02*
D03*
X0000650Y0000700D02*
D03*
X0001744D02*
D03*
X0006310Y0007150D02*
D03*
X0006606Y0004450D02*
D03*
X0008714Y0006200D02*
D03*
X0008929Y0003481D02*
D03*
X0015500Y0019100D02*
D03*
X0043900Y0029000D02*
D03*
X0026800Y0015100D02*
D03*
X0026000Y0001000D02*
D03*
X0044250Y0009300D02*
D03*
X0040900Y0012300D02*
D03*
X0043400Y0012133D02*
D03*
X0041600Y0022250D02*
D03*
X0034300Y0013300D02*
D03*
X0033350Y0026199D02*
D03*
X0024500Y0001000D02*
D03*
X0017300Y0030700D02*
D03*
X0033517Y0029300D02*
D03*
X0006051Y0033915D02*
D03*
X0007800Y0009550D02*
D03*
X0008800Y0008800D02*
D03*
X0011600Y0008400D02*
D03*
X0027650Y0013000D02*
D03*
X0025223Y0015325D02*
D03*
X0029700Y0013000D02*
D03*
X0035900Y0010915D02*
D03*
X0040400Y0030145D02*
D03*
X0048795Y0010750D02*
D03*
X0038950Y0022250D02*
D03*
X0059700Y0002300D02*
D03*
X0060500Y0000700D02*
D03*
X0056700Y0004300D02*
D03*
X0062500Y0004350D02*
D03*
X0064350D02*
D03*
Y0006250D02*
D03*
X0062500D02*
D03*
X0059350Y0006500D02*
D03*
X0058500Y0010300D02*
D03*
X0057500Y0010400D02*
D03*
X0049750Y0014220D02*
D03*
X0013798Y0024000D02*
D03*
X0006750Y0034950D02*
D03*
X0010851Y0032050D02*
D03*
X0014501Y0032015D02*
D03*
X0019550Y0035350D02*
D03*
X0018950Y0027250D02*
D03*
X0016450Y0024050D02*
D03*
X0056800Y0011450D02*
D03*
X0058400D02*
D03*
X0060000Y0011250D02*
D03*
X0031550Y0005300D02*
D03*
X0050550Y0008200D02*
D03*
X0058300Y0008600D02*
D03*
X0016400Y0001800D02*
D03*
X0017300Y0007600D02*
D03*
X0011280Y0006908D02*
D03*
X0026250Y0021250D02*
D03*
X0043100Y0009300D02*
D03*
Y0010900D02*
D03*
X0040600Y0008900D02*
D03*
X0029570Y0014370D02*
D03*
X0015500Y0029250D02*
D03*
X0014950Y0026550D02*
D03*
X0014400Y0027300D02*
D03*
X0018000Y0032215D02*
D03*
X0015900Y0019900D02*
D03*
X0015600Y0013700D02*
D03*
Y0009200D02*
D03*
X0050530Y0020126D02*
D03*
X0044950Y0028900D02*
D03*
X0064300Y0009450D02*
D03*
X0039550Y0029010D02*
D03*
X0039550Y0024700D02*
D03*
X0043900D02*
D03*
X0040450Y0025751D02*
D03*
X0043050Y0027867D02*
D03*
X0045150Y0024650D02*
D03*
X0046350Y0024800D02*
D03*
X0047550D02*
D03*
X0045150Y0023850D02*
D03*
X0046550Y0023850D02*
D03*
X0048000D02*
D03*
X0045500Y0009450D02*
D03*
X0047063Y0010750D02*
D03*
X0030950Y0009350D02*
D03*
X0032150Y0009378D02*
D03*
X0036150Y0008300D02*
D03*
X0029950Y0009350D02*
D03*
X0030000Y0007500D02*
D03*
X0032550D02*
D03*
X0033850Y0006200D02*
D03*
X0041950Y0018850D02*
D03*
X0042700Y0020000D02*
D03*
X0016250Y0010970D02*
D03*
X0018600Y0010876D02*
D03*
Y0013450D02*
D03*
X0016300Y0012500D02*
D03*
X0018600Y0016900D02*
D03*
X0016150Y0016350D02*
D03*
X0016000Y0007050D02*
D03*
X0015821Y0004050D02*
D03*
X0021300Y0005300D02*
D03*
X0023250D02*
D03*
X0021350Y0007550D02*
D03*
X0013798Y0001800D02*
D03*
X0003350Y0031800D02*
D03*
X0021100Y0026523D02*
D03*
X0026850Y0028650D02*
D03*
X0028200Y0029600D02*
D03*
X0031800Y0028600D02*
D03*
X0017600Y0035065D02*
D03*
X0046250Y0029450D02*
D03*
X0051552Y0028371D02*
D03*
X0058300Y0007443D02*
D03*
X0049750Y0006400D02*
D03*
X0049400Y0020000D02*
D03*
X0037200Y0023623D02*
D03*
X0055050Y0026850D02*
D03*
X0056400Y0025801D02*
D03*
X0058300Y0027315D02*
D03*
Y0028700D02*
D03*
X0010851Y0029200D02*
D03*
X0018600Y0018550D02*
D03*
X0019423Y0030700D02*
D03*
X0019500Y0005300D02*
D03*
X0043000Y0025751D02*
D03*
X0036993Y0027045D02*
D03*
X0018000Y0005300D02*
D03*
X0017300Y0027841D02*
D03*
X0061100Y0006250D02*
D03*
X0064300Y0011680D02*
D03*
Y0013965D02*
D03*
Y0016134D02*
D03*
Y0018700D02*
D03*
Y0021450D02*
D03*
Y0024100D02*
D03*
X0064400Y0026570D02*
D03*
X0062500Y0026550D02*
D03*
X0060700D02*
D03*
X0064350Y0029761D02*
D03*
X0062750D02*
D03*
X0061247Y0029750D02*
D03*
X0062500Y0031650D02*
D03*
X0064350D02*
D03*
Y0035350D02*
D03*
X0062200D02*
D03*
X0060000D02*
D03*
X0064250Y0033300D02*
D03*
X0061247D02*
D03*
X0061261Y0028100D02*
D03*
X0064250D02*
D03*
X0056000Y0031900D02*
D03*
X0058600Y0033200D02*
D03*
X0057000Y0032800D02*
D03*
X0061700Y0025550D02*
D03*
X0063600D02*
D03*
X0061600Y0010850D02*
D03*
X0063400Y0010700D02*
D03*
X0055402Y0020700D02*
D03*
X0055400Y0014850D02*
D03*
X0044500Y0020000D02*
D03*
X0046200D02*
D03*
X0047868D02*
D03*
X0044625Y0015900D02*
D03*
X0045662D02*
D03*
X0047450D02*
D03*
X0050025Y0016150D02*
D03*
X0052450Y0016100D02*
D03*
X0043340Y0018000D02*
D03*
X0045300Y0018000D02*
D03*
X0047500D02*
D03*
X0050025D02*
D03*
X0052400Y0018000D02*
D03*
X0045350Y0030750D02*
D03*
X0051352Y0030700D02*
D03*
X0054000Y0017100D02*
D03*
Y0020350D02*
D03*
X0062600Y0013050D02*
D03*
X0057200Y0015100D02*
D03*
X0057191Y0019400D02*
D03*
X0057201Y0023501D02*
D03*
X0060800Y0023780D02*
D03*
X0061900Y0016800D02*
D03*
X0060900Y0015400D02*
D03*
X0063500Y0034900D02*
D03*
X0061100D02*
D03*
X0063500Y0001150D02*
D03*
X0061500Y0001200D02*
D03*
X0055000Y0035350D02*
D03*
X0050099D02*
D03*
X0045000D02*
D03*
X0040000D02*
D03*
X0035400D02*
D03*
X0029300D02*
D03*
X0024200D02*
D03*
X0051580Y0033050D02*
D03*
X0030995Y0033100D02*
D03*
X0033750Y0032350D02*
D03*
X0038450Y0032350D02*
D03*
X0043340D02*
D03*
X0048500D02*
D03*
X0039200Y0030793D02*
D03*
X0033300Y0030700D02*
D03*
X0028600Y0032400D02*
D03*
X0021000Y0028850D02*
D03*
X0000650Y0002500D02*
D03*
X0030000Y0003650D02*
D03*
X0028600Y0001500D02*
D03*
X0032000Y0000700D02*
D03*
X0036900D02*
D03*
X0041400D02*
D03*
X0046450D02*
D03*
X0051550D02*
D03*
X0056700D02*
D03*
X0034600Y0003400D02*
D03*
X0039600Y0003500D02*
D03*
X0044200Y0003550D02*
D03*
X0049100Y0003600D02*
D03*
X0056200Y0002900D02*
D03*
X0052100D02*
D03*
X0043029Y0007500D02*
D03*
X0045850D02*
D03*
X0042400Y0021150D02*
D03*
X0050600Y0023550D02*
D03*
X0058300Y0005935D02*
D03*
X0047350Y0029450D02*
D03*
X0059500Y0028500D02*
D03*
X0037800Y0006350D02*
D03*
X0036850Y0006900D02*
D03*
X0036993Y0026000D02*
D03*
X0011279Y0005400D02*
D03*
X0050650Y0031650D02*
D03*
X0048200Y0027450D02*
D03*
X0049328Y0027400D02*
D03*
X0046863Y0025783D02*
D03*
X0048500Y0025799D02*
D03*
X0044925Y0029900D02*
D03*
X0051500Y0029650D02*
D03*
X0038321Y0029000D02*
D03*
X0038050Y0026425D02*
D03*
X0036000Y0025206D02*
D03*
X0035989Y0023650D02*
D03*
X0055400Y0029450D02*
D03*
X0029250Y0021250D02*
D03*
X0035900Y0022050D02*
D03*
X0037200Y0022658D02*
D03*
X0038050Y0027183D02*
D03*
X0039700Y0027375D02*
D03*
X0043800Y0027408D02*
D03*
X0043815Y0026118D02*
D03*
X0039700D02*
D03*
X0048810Y0024890D02*
D03*
X0042400Y0023850D02*
D03*
X0041100D02*
D03*
X0050647Y0027053D02*
D03*
X0013602Y0023000D02*
D03*
X0016450D02*
D03*
X0013798Y0019650D02*
D03*
Y0025206D02*
D03*
X0022850Y0028200D02*
D03*
X0025450Y0028900D02*
D03*
X0029900Y0022405D02*
D03*
X0030350Y0021550D02*
D03*
X0027657Y0022650D02*
D03*
X0028550Y0026900D02*
D03*
X0024750Y0024850D02*
D03*
X0029850D02*
D03*
X0031600Y0026000D02*
D03*
X0024200Y0029550D02*
D03*
X0027150Y0024850D02*
D03*
X0050450Y0012400D02*
D03*
X0038600Y0010900D02*
D03*
X0037243Y0010905D02*
D03*
X0038050Y0013300D02*
D03*
X0038500Y0012250D02*
D03*
X0040150Y0014940D02*
D03*
X0041700Y0014950D02*
D03*
X0040050Y0016950D02*
D03*
X0039900Y0018100D02*
D03*
X0041350Y0016950D02*
D03*
X0037750Y0008650D02*
D03*
X0036417Y0011700D02*
D03*
X0046696Y0009450D02*
D03*
X0047868Y0009350D02*
D03*
X0046800Y0008350D02*
D03*
X0045450D02*
D03*
X0045750Y0010750D02*
D03*
X0046550Y0011600D02*
D03*
X0045050Y0013300D02*
D03*
X0046960Y0013000D02*
D03*
X0044850Y0011950D02*
D03*
X0043750Y0013300D02*
D03*
X0040926D02*
D03*
X0039403D02*
D03*
X0048769Y0012200D02*
D03*
X0047858Y0012115D02*
D03*
X0046464Y0014100D02*
D03*
X0046419Y0015200D02*
D03*
X0048951Y0013500D02*
D03*
X0048700Y0015100D02*
D03*
X0050700Y0013500D02*
D03*
Y0011550D02*
D03*
X0050647Y0009950D02*
D03*
X0051850Y0011550D02*
D03*
Y0009921D02*
D03*
X0053674Y0010428D02*
D03*
X0053250Y0009167D02*
D03*
X0052800Y0011100D02*
D03*
X0052350Y0008405D02*
D03*
X0051150Y0009050D02*
D03*
X0037428Y0014940D02*
D03*
X0035435Y0020622D02*
D03*
X0036233Y0020600D02*
D03*
X0033400Y0012287D02*
D03*
X0030565Y0010124D02*
D03*
D48*
X0040700Y0010100D02*
D03*
M02*
