%FSAX43Y43*%
%MOMM*%
G71*
G01*
G75*
G04 Layer_Color=16711935*
%ADD10C,0.300*%
%ADD11R,0.650X0.650*%
%ADD12R,0.650X0.650*%
G04:AMPARAMS|DCode=13|XSize=4.6mm|YSize=4.6mm|CornerRadius=0.115mm|HoleSize=0mm|Usage=FLASHONLY|Rotation=270.000|XOffset=0mm|YOffset=0mm|HoleType=Round|Shape=RoundedRectangle|*
%AMROUNDEDRECTD13*
21,1,4.600,4.370,0,0,270.0*
21,1,4.370,4.600,0,0,270.0*
1,1,0.230,-2.185,-2.185*
1,1,0.230,-2.185,2.185*
1,1,0.230,2.185,2.185*
1,1,0.230,2.185,-2.185*
%
%ADD13ROUNDEDRECTD13*%
%ADD14O,0.300X0.800*%
%ADD15O,0.800X0.300*%
G04:AMPARAMS|DCode=16|XSize=1.7mm|YSize=0.65mm|CornerRadius=0.016mm|HoleSize=0mm|Usage=FLASHONLY|Rotation=180.000|XOffset=0mm|YOffset=0mm|HoleType=Round|Shape=RoundedRectangle|*
%AMROUNDEDRECTD16*
21,1,1.700,0.618,0,0,180.0*
21,1,1.667,0.650,0,0,180.0*
1,1,0.033,-0.834,0.309*
1,1,0.033,0.834,0.309*
1,1,0.033,0.834,-0.309*
1,1,0.033,-0.834,-0.309*
%
%ADD16ROUNDEDRECTD16*%
G04:AMPARAMS|DCode=17|XSize=1.5mm|YSize=0.65mm|CornerRadius=0.016mm|HoleSize=0mm|Usage=FLASHONLY|Rotation=180.000|XOffset=0mm|YOffset=0mm|HoleType=Round|Shape=RoundedRectangle|*
%AMROUNDEDRECTD17*
21,1,1.500,0.618,0,0,180.0*
21,1,1.468,0.650,0,0,180.0*
1,1,0.033,-0.734,0.309*
1,1,0.033,0.734,0.309*
1,1,0.033,0.734,-0.309*
1,1,0.033,-0.734,-0.309*
%
%ADD17ROUNDEDRECTD17*%
G04:AMPARAMS|DCode=18|XSize=1.1mm|YSize=0.65mm|CornerRadius=0.016mm|HoleSize=0mm|Usage=FLASHONLY|Rotation=180.000|XOffset=0mm|YOffset=0mm|HoleType=Round|Shape=RoundedRectangle|*
%AMROUNDEDRECTD18*
21,1,1.100,0.618,0,0,180.0*
21,1,1.067,0.650,0,0,180.0*
1,1,0.033,-0.534,0.309*
1,1,0.033,0.534,0.309*
1,1,0.033,0.534,-0.309*
1,1,0.033,-0.534,-0.309*
%
%ADD18ROUNDEDRECTD18*%
G04:AMPARAMS|DCode=19|XSize=4mm|YSize=2.5mm|CornerRadius=0.063mm|HoleSize=0mm|Usage=FLASHONLY|Rotation=270.000|XOffset=0mm|YOffset=0mm|HoleType=Round|Shape=RoundedRectangle|*
%AMROUNDEDRECTD19*
21,1,4.000,2.375,0,0,270.0*
21,1,3.875,2.500,0,0,270.0*
1,1,0.125,-1.188,-1.938*
1,1,0.125,-1.188,1.938*
1,1,0.125,1.188,1.938*
1,1,0.125,1.188,-1.938*
%
%ADD19ROUNDEDRECTD19*%
G04:AMPARAMS|DCode=20|XSize=0.45mm|YSize=1.1mm|CornerRadius=0.023mm|HoleSize=0mm|Usage=FLASHONLY|Rotation=270.000|XOffset=0mm|YOffset=0mm|HoleType=Round|Shape=RoundedRectangle|*
%AMROUNDEDRECTD20*
21,1,0.450,1.055,0,0,270.0*
21,1,0.405,1.100,0,0,270.0*
1,1,0.045,-0.527,-0.203*
1,1,0.045,-0.527,0.203*
1,1,0.045,0.527,0.203*
1,1,0.045,0.527,-0.203*
%
%ADD20ROUNDEDRECTD20*%
%ADD21R,1.300X1.300*%
%ADD22R,1.300X1.300*%
%ADD23R,0.900X0.900*%
%ADD24R,0.500X0.250*%
G04:AMPARAMS|DCode=25|XSize=1.4mm|YSize=0.8mm|CornerRadius=0.02mm|HoleSize=0mm|Usage=FLASHONLY|Rotation=270.000|XOffset=0mm|YOffset=0mm|HoleType=Round|Shape=RoundedRectangle|*
%AMROUNDEDRECTD25*
21,1,1.400,0.760,0,0,270.0*
21,1,1.360,0.800,0,0,270.0*
1,1,0.040,-0.380,-0.680*
1,1,0.040,-0.380,0.680*
1,1,0.040,0.380,0.680*
1,1,0.040,0.380,-0.680*
%
%ADD25ROUNDEDRECTD25*%
G04:AMPARAMS|DCode=26|XSize=1.4mm|YSize=0.8mm|CornerRadius=0.02mm|HoleSize=0mm|Usage=FLASHONLY|Rotation=180.000|XOffset=0mm|YOffset=0mm|HoleType=Round|Shape=RoundedRectangle|*
%AMROUNDEDRECTD26*
21,1,1.400,0.760,0,0,180.0*
21,1,1.360,0.800,0,0,180.0*
1,1,0.040,-0.680,0.380*
1,1,0.040,0.680,0.380*
1,1,0.040,0.680,-0.380*
1,1,0.040,-0.680,-0.380*
%
%ADD26ROUNDEDRECTD26*%
%ADD27C,1.270*%
G04:AMPARAMS|DCode=28|XSize=0.9mm|YSize=4mm|CornerRadius=0.045mm|HoleSize=0mm|Usage=FLASHONLY|Rotation=90.000|XOffset=0mm|YOffset=0mm|HoleType=Round|Shape=RoundedRectangle|*
%AMROUNDEDRECTD28*
21,1,0.900,3.910,0,0,90.0*
21,1,0.810,4.000,0,0,90.0*
1,1,0.090,1.955,0.405*
1,1,0.090,1.955,-0.405*
1,1,0.090,-1.955,-0.405*
1,1,0.090,-1.955,0.405*
%
%ADD28ROUNDEDRECTD28*%
%ADD29R,0.500X0.500*%
%ADD30R,0.850X0.400*%
%ADD31R,1.050X0.700*%
%ADD32C,0.400*%
%ADD33C,0.500*%
%ADD34C,1.000*%
%ADD35C,0.200*%
%ADD36C,0.650*%
%ADD37C,0.600*%
%ADD38C,0.800*%
%ADD39C,0.250*%
%ADD40C,0.050*%
%ADD41C,1.500*%
G04:AMPARAMS|DCode=42|XSize=1.5mm|YSize=1.5mm|CornerRadius=0.075mm|HoleSize=0mm|Usage=FLASHONLY|Rotation=90.000|XOffset=0mm|YOffset=0mm|HoleType=Round|Shape=RoundedRectangle|*
%AMROUNDEDRECTD42*
21,1,1.500,1.350,0,0,90.0*
21,1,1.350,1.500,0,0,90.0*
1,1,0.150,0.675,0.675*
1,1,0.150,0.675,-0.675*
1,1,0.150,-0.675,-0.675*
1,1,0.150,-0.675,0.675*
%
%ADD42ROUNDEDRECTD42*%
%ADD43C,1.700*%
G04:AMPARAMS|DCode=44|XSize=1.7mm|YSize=1.7mm|CornerRadius=0.17mm|HoleSize=0mm|Usage=FLASHONLY|Rotation=0.000|XOffset=0mm|YOffset=0mm|HoleType=Round|Shape=RoundedRectangle|*
%AMROUNDEDRECTD44*
21,1,1.700,1.360,0,0,0.0*
21,1,1.360,1.700,0,0,0.0*
1,1,0.340,0.680,-0.680*
1,1,0.340,-0.680,-0.680*
1,1,0.340,-0.680,0.680*
1,1,0.340,0.680,0.680*
%
%ADD44ROUNDEDRECTD44*%
G04:AMPARAMS|DCode=45|XSize=2.2mm|YSize=4.4mm|CornerRadius=0.11mm|HoleSize=0mm|Usage=FLASHONLY|Rotation=90.000|XOffset=0mm|YOffset=0mm|HoleType=Round|Shape=RoundedRectangle|*
%AMROUNDEDRECTD45*
21,1,2.200,4.180,0,0,90.0*
21,1,1.980,4.400,0,0,90.0*
1,1,0.220,2.090,0.990*
1,1,0.220,2.090,-0.990*
1,1,0.220,-2.090,-0.990*
1,1,0.220,-2.090,0.990*
%
%ADD45ROUNDEDRECTD45*%
%ADD46C,0.800*%
%ADD47C,0.600*%
%ADD48C,0.580*%
%ADD49C,0.150*%
%ADD50C,0.100*%
%ADD51C,0.010*%
%ADD52C,0.025*%
%ADD53R,1.600X2.800*%
%ADD54R,0.750X0.750*%
%ADD55R,0.750X0.750*%
G04:AMPARAMS|DCode=56|XSize=4.7mm|YSize=4.7mm|CornerRadius=0.165mm|HoleSize=0mm|Usage=FLASHONLY|Rotation=270.000|XOffset=0mm|YOffset=0mm|HoleType=Round|Shape=RoundedRectangle|*
%AMROUNDEDRECTD56*
21,1,4.700,4.370,0,0,270.0*
21,1,4.370,4.700,0,0,270.0*
1,1,0.330,-2.185,-2.185*
1,1,0.330,-2.185,2.185*
1,1,0.330,2.185,2.185*
1,1,0.330,2.185,-2.185*
%
%ADD56ROUNDEDRECTD56*%
%ADD57O,0.400X0.900*%
%ADD58O,0.900X0.400*%
G04:AMPARAMS|DCode=59|XSize=1.8mm|YSize=0.75mm|CornerRadius=0.066mm|HoleSize=0mm|Usage=FLASHONLY|Rotation=180.000|XOffset=0mm|YOffset=0mm|HoleType=Round|Shape=RoundedRectangle|*
%AMROUNDEDRECTD59*
21,1,1.800,0.618,0,0,180.0*
21,1,1.667,0.750,0,0,180.0*
1,1,0.133,-0.834,0.309*
1,1,0.133,0.834,0.309*
1,1,0.133,0.834,-0.309*
1,1,0.133,-0.834,-0.309*
%
%ADD59ROUNDEDRECTD59*%
G04:AMPARAMS|DCode=60|XSize=1.6mm|YSize=0.75mm|CornerRadius=0.066mm|HoleSize=0mm|Usage=FLASHONLY|Rotation=180.000|XOffset=0mm|YOffset=0mm|HoleType=Round|Shape=RoundedRectangle|*
%AMROUNDEDRECTD60*
21,1,1.600,0.618,0,0,180.0*
21,1,1.468,0.750,0,0,180.0*
1,1,0.133,-0.734,0.309*
1,1,0.133,0.734,0.309*
1,1,0.133,0.734,-0.309*
1,1,0.133,-0.734,-0.309*
%
%ADD60ROUNDEDRECTD60*%
G04:AMPARAMS|DCode=61|XSize=1.2mm|YSize=0.75mm|CornerRadius=0.066mm|HoleSize=0mm|Usage=FLASHONLY|Rotation=180.000|XOffset=0mm|YOffset=0mm|HoleType=Round|Shape=RoundedRectangle|*
%AMROUNDEDRECTD61*
21,1,1.200,0.618,0,0,180.0*
21,1,1.067,0.750,0,0,180.0*
1,1,0.133,-0.534,0.309*
1,1,0.133,0.534,0.309*
1,1,0.133,0.534,-0.309*
1,1,0.133,-0.534,-0.309*
%
%ADD61ROUNDEDRECTD61*%
G04:AMPARAMS|DCode=62|XSize=4.1mm|YSize=2.6mm|CornerRadius=0.113mm|HoleSize=0mm|Usage=FLASHONLY|Rotation=270.000|XOffset=0mm|YOffset=0mm|HoleType=Round|Shape=RoundedRectangle|*
%AMROUNDEDRECTD62*
21,1,4.100,2.375,0,0,270.0*
21,1,3.875,2.600,0,0,270.0*
1,1,0.225,-1.188,-1.938*
1,1,0.225,-1.188,1.938*
1,1,0.225,1.188,1.938*
1,1,0.225,1.188,-1.938*
%
%ADD62ROUNDEDRECTD62*%
G04:AMPARAMS|DCode=63|XSize=0.55mm|YSize=1.2mm|CornerRadius=0.073mm|HoleSize=0mm|Usage=FLASHONLY|Rotation=270.000|XOffset=0mm|YOffset=0mm|HoleType=Round|Shape=RoundedRectangle|*
%AMROUNDEDRECTD63*
21,1,0.550,1.055,0,0,270.0*
21,1,0.405,1.200,0,0,270.0*
1,1,0.145,-0.527,-0.203*
1,1,0.145,-0.527,0.203*
1,1,0.145,0.527,0.203*
1,1,0.145,0.527,-0.203*
%
%ADD63ROUNDEDRECTD63*%
%ADD64R,1.400X1.400*%
%ADD65R,1.400X1.400*%
%ADD66R,1.000X1.000*%
%ADD67R,0.600X0.350*%
G04:AMPARAMS|DCode=68|XSize=1.5mm|YSize=0.9mm|CornerRadius=0.07mm|HoleSize=0mm|Usage=FLASHONLY|Rotation=270.000|XOffset=0mm|YOffset=0mm|HoleType=Round|Shape=RoundedRectangle|*
%AMROUNDEDRECTD68*
21,1,1.500,0.760,0,0,270.0*
21,1,1.360,0.900,0,0,270.0*
1,1,0.140,-0.380,-0.680*
1,1,0.140,-0.380,0.680*
1,1,0.140,0.380,0.680*
1,1,0.140,0.380,-0.680*
%
%ADD68ROUNDEDRECTD68*%
G04:AMPARAMS|DCode=69|XSize=1.5mm|YSize=0.9mm|CornerRadius=0.07mm|HoleSize=0mm|Usage=FLASHONLY|Rotation=180.000|XOffset=0mm|YOffset=0mm|HoleType=Round|Shape=RoundedRectangle|*
%AMROUNDEDRECTD69*
21,1,1.500,0.760,0,0,180.0*
21,1,1.360,0.900,0,0,180.0*
1,1,0.140,-0.680,0.380*
1,1,0.140,0.680,0.380*
1,1,0.140,0.680,-0.380*
1,1,0.140,-0.680,-0.380*
%
%ADD69ROUNDEDRECTD69*%
%ADD70C,1.370*%
G04:AMPARAMS|DCode=71|XSize=1mm|YSize=4.1mm|CornerRadius=0.095mm|HoleSize=0mm|Usage=FLASHONLY|Rotation=90.000|XOffset=0mm|YOffset=0mm|HoleType=Round|Shape=RoundedRectangle|*
%AMROUNDEDRECTD71*
21,1,1.000,3.910,0,0,90.0*
21,1,0.810,4.100,0,0,90.0*
1,1,0.190,1.955,0.405*
1,1,0.190,1.955,-0.405*
1,1,0.190,-1.955,-0.405*
1,1,0.190,-1.955,0.405*
%
%ADD71ROUNDEDRECTD71*%
%ADD72R,0.600X0.600*%
%ADD73R,0.950X0.500*%
%ADD74R,1.150X0.800*%
%ADD75C,1.600*%
G04:AMPARAMS|DCode=76|XSize=1.6mm|YSize=1.6mm|CornerRadius=0.125mm|HoleSize=0mm|Usage=FLASHONLY|Rotation=90.000|XOffset=0mm|YOffset=0mm|HoleType=Round|Shape=RoundedRectangle|*
%AMROUNDEDRECTD76*
21,1,1.600,1.350,0,0,90.0*
21,1,1.350,1.600,0,0,90.0*
1,1,0.250,0.675,0.675*
1,1,0.250,0.675,-0.675*
1,1,0.250,-0.675,-0.675*
1,1,0.250,-0.675,0.675*
%
%ADD76ROUNDEDRECTD76*%
%ADD77C,1.800*%
G04:AMPARAMS|DCode=78|XSize=1.8mm|YSize=1.8mm|CornerRadius=0.22mm|HoleSize=0mm|Usage=FLASHONLY|Rotation=0.000|XOffset=0mm|YOffset=0mm|HoleType=Round|Shape=RoundedRectangle|*
%AMROUNDEDRECTD78*
21,1,1.800,1.360,0,0,0.0*
21,1,1.360,1.800,0,0,0.0*
1,1,0.440,0.680,-0.680*
1,1,0.440,-0.680,-0.680*
1,1,0.440,-0.680,0.680*
1,1,0.440,0.680,0.680*
%
%ADD78ROUNDEDRECTD78*%
G04:AMPARAMS|DCode=79|XSize=2.3mm|YSize=4.5mm|CornerRadius=0.16mm|HoleSize=0mm|Usage=FLASHONLY|Rotation=90.000|XOffset=0mm|YOffset=0mm|HoleType=Round|Shape=RoundedRectangle|*
%AMROUNDEDRECTD79*
21,1,2.300,4.180,0,0,90.0*
21,1,1.980,4.500,0,0,90.0*
1,1,0.320,2.090,0.990*
1,1,0.320,2.090,-0.990*
1,1,0.320,-2.090,-0.990*
1,1,0.320,-2.090,0.990*
%
%ADD79ROUNDEDRECTD79*%
%ADD80C,0.700*%
D40*
X0000000Y0000000D02*
Y0036000D01*
X0065000D01*
Y0000000D02*
Y0036000D01*
X0000000Y0000000D02*
X0065000D01*
D75*
X0010030Y0021840D02*
D03*
X0012570D02*
D03*
X0010030Y0019300D02*
D03*
X0012570D02*
D03*
X0010030Y0016760D02*
D03*
X0012570D02*
D03*
X0010030Y0014220D02*
D03*
X0012570D02*
D03*
X0010030Y0011680D02*
D03*
X0012570D02*
D03*
X0010030Y0009140D02*
D03*
X0012570D02*
D03*
X0010030Y0006600D02*
D03*
X0002410D02*
D03*
X0004950Y0009140D02*
D03*
X0002410D02*
D03*
X0004950Y0011680D02*
D03*
X0002410D02*
D03*
X0004950Y0014220D02*
D03*
X0002410D02*
D03*
X0004950Y0016760D02*
D03*
X0002410D02*
D03*
X0004950Y0019300D02*
D03*
X0002410D02*
D03*
X0004950Y0021840D02*
D03*
X0002410D02*
D03*
X0004950Y0024380D02*
D03*
X0002410D02*
D03*
X0004950Y0026920D02*
D03*
X0002410D02*
D03*
X0004950Y0029460D02*
D03*
X0002410D02*
D03*
D76*
X0012570Y0006600D02*
D03*
X0004950D02*
D03*
D77*
X0015000Y0002500D02*
D03*
X0022990Y0002500D02*
D03*
D78*
X0020450D02*
D03*
D79*
X0062500Y0028100D02*
D03*
Y0033300D02*
D03*
Y0007900D02*
D03*
Y0002700D02*
D03*
D80*
X0031050Y0017400D02*
D03*
X0032250Y0016200D02*
D03*
X0034650Y0019800D02*
D03*
X0032250D02*
D03*
X0033450D02*
D03*
X0032250Y0017400D02*
D03*
X0031050Y0016200D02*
D03*
Y0018600D02*
D03*
Y0019800D02*
D03*
X0034650Y0018600D02*
D03*
X0033450D02*
D03*
X0032250D02*
D03*
X0033450Y0017400D02*
D03*
X0034650D02*
D03*
Y0016200D02*
D03*
X0033450D02*
D03*
X0013500Y0030400D02*
D03*
X0011900D02*
D03*
X0012700Y0032050D02*
D03*
X0011900Y0033700D02*
D03*
X0013500D02*
D03*
M02*
