M48
;Layer_Color=9474304
;FILE_FORMAT=4:3
METRIC
;TYPE=PLATED
T1F00S00C0.300
T2F00S00C0.400
T3F00S00C0.500
T4F00S00C0.900
T5F00S00C1.000
%
T01
X0000650Y0000700
X0001744
X0000650Y0002500
X0000700Y0004450
X0001367Y0007259
X0001700Y0010350
X0003573Y0009950
X0003740Y0011300
X0006461Y0010100
X0007800Y0009550
X0008800Y0008800
X0008714Y0006200
X0007567Y0006900
X0006310Y0007150
X0006606Y0004450
X0008200Y0004750
X0008929Y0003481
X0011200Y0003700
X0011279Y0005400
X0011280Y0006908
X0011600Y0008400
X0013880Y0006900
X0016000Y0007050
X0017300Y0007600
X0018000Y0005300
X0017650Y0004200
X0015821Y0004050
X0013890
X0013798Y0001800
X0016400
X0020300Y0000700
X0022700
X0024500Y0001000
X0025000Y0003550
X0023250Y0005300
X0021300
X0019500
X0021350Y0007550
X0024550Y0007500
X0024600Y0010999
X0021150Y0011000
X0018600Y0010876
X0016250Y0010970
X0015600Y0009200
X0006574Y0001800
X0026000Y0001000
X0027400Y0000700
X0028600Y0001500
X0027500Y0003600
X0027700Y0005300
X0028100Y0007500
X0030000
X0029950Y0009350
X0030950
X0030565Y0010124
X0032150Y0009378
X0033200Y0010150
X0034420Y0010450
X0035350Y0009550
X0036993Y0009300
X0037750Y0008650
X0038000Y0007500
X0037800Y0006350
Y0005300
X0036850Y0006900
X0036150Y0008300
X0035284Y0007500
X0035200Y0005300
X0033850Y0006200
X0033997Y0008650
X0032550Y0007500
X0031550Y0005300
X0030000Y0003650
X0034600Y0003400
X0036900Y0000700
X0041400
X0039600Y0003500
X0040600Y0005700
Y0007500
Y0008900
X0040700Y0010100
X0040900Y0011306
X0043100Y0010900
X0044400
X0045750Y0010750
X0047063
X0046696Y0009450
X0045500
X0045450Y0008350
X0045850Y0007500
X0046895Y0007100
X0046800Y0008350
X0047868Y0009350
X0049025
X0048795Y0010750
X0050647Y0009950
X0051850Y0009921
X0051150Y0009050
X0050550Y0008200
Y0007100
X0051950
X0052350Y0008405
X0053250Y0009167
X0053674Y0010428
X0055031Y0010250
Y0008950
X0056700Y0008950
Y0007700
Y0006550
X0055402Y0006450
Y0007600
X0054000Y0007950
X0053700Y0006350
X0053100Y0005300
X0055402
X0057025Y0005350
X0056700Y0004300
X0058000Y0004659
X0059350
X0059700Y0003481
Y0002300
X0061150Y0002692
X0061500Y0001200
X0062450Y0000700
X0063500Y0001150
X0064350Y0000700
X0064300Y0002685
X0064350Y0004350
X0062500
X0060745
X0061100Y0006250
X0060000Y0005950
X0059350Y0006500
X0059400Y0007445
X0058300Y0007443
Y0008600
X0059350Y0008583
Y0009600
X0060700Y0009450
X0062500
X0064300
X0064250Y0007900
X0064350Y0006250
X0062500
X0061150Y0007900
X0061600Y0010850
X0063400Y0010700
X0060000Y0011250
X0058400Y0011450
X0058500Y0010300
X0057500Y0010400
X0056700Y0010250
X0056800Y0011450
X0055350Y0011500
X0052800Y0011100
X0051850Y0011550
X0050700
X0049750Y0006400
X0048700
X0049500Y0005300
X0049100Y0003600
X0052100Y0002900
X0051550Y0000700
X0046450
X0044200Y0003550
X0043800Y0005700
X0043029Y0007500
X0043950Y0008200
X0044250Y0009300
X0043100
X0041800Y0008250
X0039700
X0038550Y0009300
X0038600Y0010900
X0037243Y0010905
X0035900Y0010915
X0032500Y0011400
X0028150Y0010970
X0032000Y0000700
X0047150Y0005700
X0058300Y0005935
Y0003550
X0056200Y0002900
X0056700Y0000700
X0060500
X0060100Y0012600
X0058400Y0013000
X0056550
X0055100Y0013500
X0055400Y0014850
X0055350Y0016600
X0054000Y0017100
X0052400Y0018000
X0052450Y0016100
X0051077Y0015100
X0050700Y0013500
X0050450Y0012400
X0048769Y0012200
X0047858Y0012115
X0046960Y0013000
X0047739Y0013800
X0048951Y0013500
X0049750Y0014220
X0048700Y0015100
X0047450Y0015900
X0046419Y0015200
X0046464Y0014100
X0045050Y0013300
X0043750
X0042450
X0040926
X0040900Y0012300
X0039711Y0012000
X0038500Y0012250
X0037250Y0012283
X0036417Y0011700
X0035915Y0012550
X0036375Y0014144
X0035435
X0034300Y0013300
Y0011900
X0033400Y0012287
X0033450Y0016200
X0032250
Y0017400
Y0018600
X0033450
Y0017400
X0034650
Y0018600
Y0019800
X0033450
X0032250
X0031050
Y0018600
Y0017400
Y0016200
X0030274Y0015250
X0029570Y0014370
X0030900Y0014276
X0029700Y0013000
X0029000Y0011800
X0027650Y0013000
X0025400
X0026250Y0011800
X0026800Y0015100
X0025223Y0015325
X0025050Y0017300
X0026400Y0017800
X0027800Y0017300
X0029250Y0021250
X0030350Y0021550
X0029900Y0022405
X0027657Y0022650
X0026650Y0023501
X0027150Y0024850
X0026650Y0026203
X0028550Y0026900
X0028200Y0029600
X0028350Y0030750
X0028600Y0032400
X0026000Y0032450
X0026150Y0030700
X0025450Y0028900
X0026850Y0028650
X0030500Y0029400
X0030750Y0030750
X0030995Y0033100
X0032000Y0034700
X0029300Y0035350
X0026650Y0034700
X0035400Y0035350
X0037800Y0034700
X0040000Y0035350
X0038450Y0032350
X0039200Y0030793
X0039387Y0030000
X0039550Y0029010
X0038321Y0029000
X0037850Y0029850
X0037600Y0030700
X0037000Y0030112
X0036000
X0035150Y0030700
X0033300
X0033517Y0029300
X0034342Y0028100
X0034350Y0026800
X0034342Y0025450
X0034150Y0024380
X0033150
X0031800
X0031600Y0026000
X0033350Y0026199
X0032850Y0027600
X0031800Y0028600
X0035400Y0029100
X0036000Y0027053
X0036993Y0027045
Y0026000
X0037355Y0025000
X0038550Y0024775
X0039550Y0024700
X0039550Y0023850
X0038200Y0023850
X0037200Y0023623
Y0022658
X0035900Y0022050
X0035989Y0023650
Y0024425
X0036000Y0025206
X0038050Y0026425
Y0027183
X0039700Y0027375
X0040450Y0027841
X0041750Y0027375
Y0026125
X0043000Y0025751
X0043815Y0026118
X0043800Y0027408
X0043050Y0027867
X0043900Y0029000
X0044950Y0028900
X0044925Y0029900
X0045350Y0030750
X0043700
X0043000Y0030150
X0041750
X0041150Y0030793
X0040400Y0030145
X0040450Y0025751
X0039700Y0026118
X0041100Y0023850
X0042400
X0043875Y0023850
X0043900Y0024700
X0045150Y0024650
Y0023850
X0046550Y0023850
X0046350Y0024800
X0047550
X0048810Y0024890
X0048500Y0025799
X0046863Y0025783
X0048200Y0027450
X0048176Y0028422
X0049338
X0049328Y0027400
X0050647Y0027053
X0050600Y0026203
Y0024876
Y0023550
X0049430Y0023540
X0049400Y0022110
X0048650Y0021150
X0047600
X0046500
X0045500Y0021200
X0044500Y0021150
X0043400
X0042400
X0042700Y0020000
X0044500
X0044350Y0018800
X0045300Y0018000
X0044350Y0017000
X0044625Y0015900
X0045662
X0046419Y0017000
X0047500Y0018000
X0047868Y0020000
X0049400
X0050530Y0020126
X0051580Y0020106
X0052400Y0020800
Y0021900
Y0023050
X0052500Y0024077
X0054000
Y0022950
X0055350Y0022600
Y0023975
X0055031Y0025200
X0055050Y0026850
X0054000Y0027250
Y0026000
X0052471Y0025700
X0052150Y0026572
X0052350Y0027650
X0051552Y0028371
X0050650Y0028000
Y0029200
X0051500Y0029650
X0051352Y0030700
X0050650Y0031650
X0049350Y0030700
X0048795Y0029400
X0047350Y0029450
X0046250
X0047150Y0030700
X0048500Y0032350
X0047900Y0034700
X0050099Y0035350
X0051580Y0033050
X0053800Y0030700
X0055402
X0055400Y0029450
X0055402Y0028070
X0056700Y0028305
Y0027100
X0056400Y0025801
Y0024800
X0058150Y0024800
X0058600Y0025650
X0057500
X0057201Y0023501
X0058600Y0022500
X0060800Y0023780
X0060100Y0025571
X0060700Y0026550
X0059350Y0026450
X0059500Y0027450
Y0028500
X0059350Y0029550
X0058600Y0030050
X0060200
X0061247Y0029750
X0062750Y0029761
X0064350
X0064250Y0028100
X0064400Y0026570
X0063600Y0025550
X0061700
X0062500Y0026550
X0061261Y0028100
X0058300Y0028700
Y0027315
X0056700Y0029550
X0057050Y0030750
X0058150Y0031350
X0059500
X0060800Y0031676
X0062500Y0031650
X0064350
X0064250Y0033300
X0064350Y0035350
X0063500Y0034900
X0062200Y0035350
X0061100Y0034900
X0060000Y0035350
X0061247Y0033300
X0058600Y0033200
X0057000Y0032800
X0056000Y0031900
X0055000Y0035350
X0054000Y0029200
X0052431
X0050950Y0022700
X0048000Y0023850
X0046200Y0020000
X0043340Y0018000
X0042517Y0017000
X0042574Y0015900
X0043550Y0015917
X0041350Y0016134
Y0016950
X0040050
X0039900Y0018100
X0041100Y0018055
X0041950Y0018850
X0040250Y0019000
X0038950Y0018800
Y0020550
X0040209
X0041400
X0041000Y0019760
X0040750Y0021425
X0040209Y0022250
X0038950
X0039376Y0021409
X0041600Y0022250
X0036233Y0020600
X0035435Y0020622
X0034650Y0016200
X0037428Y0014940
X0038050Y0013300
X0039403
X0040150Y0014940
X0040901Y0014950
X0041700
X0042100Y0012000
X0043400Y0012133
X0044850Y0011950
X0045803Y0012350
X0046550Y0011600
X0053000Y0012550
X0054100Y0011800
X0054000Y0014350
X0051950Y0013800
X0050025Y0016150
Y0018000
X0055350Y0018900
X0055402Y0020700
X0054000Y0020350
X0057191Y0019400
X0060554Y0019800
X0062300Y0021906
X0064300Y0021450
Y0024100
Y0018700
Y0016134
Y0013965
Y0011680
X0062600Y0013050
X0060900Y0015400
X0061900Y0016800
X0058500
X0057200Y0015100
X0038725Y0016250
Y0017150
X0026250Y0021250
X0029850Y0024850
X0033750Y0032350
X0043340Y0032350
X0045000Y0035350
X0024200
X0023400Y0033150
X0021050
X0020101Y0032215
X0019051
X0018000
X0016750Y0032000
X0017300Y0030700
X0019423
X0020900
X0021000Y0028850
X0021100Y0026523
X0022500Y0025050
X0022990Y0023250
X0022900Y0021250
X0024750Y0022296
Y0024850
X0024350Y0026850
X0022850Y0028200
X0023000Y0030700
X0022100Y0032050
X0024200Y0029550
X0018950Y0027250
X0017300Y0027841
X0015719Y0027800
X0015500Y0029250
X0014400Y0027300
X0014950Y0026550
X0015750Y0025550
X0015559Y0023850
X0016450Y0024050
Y0023000
X0016200Y0022200
X0017286Y0022650
X0018550Y0022350
X0020550Y0021859
X0020850Y0023350
X0019300Y0024775
X0017300Y0025050
X0013798Y0025206
Y0024000
X0013602Y0023000
X0013798Y0021483
Y0019650
X0015500Y0019100
X0015900Y0019900
X0017350Y0017600
X0018600Y0016900
Y0018550
X0020650Y0017750
Y0015750
X0021850Y0016750
X0022850Y0015650
X0023350Y0017800
X0023250Y0012900
X0020650Y0012850
X0018600Y0013450
X0017286Y0011800
X0016300Y0012500
X0015600Y0013700
X0013798Y0014276
Y0011600
X0007700Y0012150
Y0014150
X0007100Y0016150
X0007326Y0017800
X0008750Y0019300
X0008650Y0021859
X0006178Y0021605
X0006310Y0023950
X0007666Y0024500
X0007150Y0026300
X0006014Y0025650
X0006000Y0027900
X0008600
X0008700Y0025920
X0011100Y0027900
X0010851Y0029200
X0011900Y0030400
X0013500
X0012700Y0032050
X0014501Y0032015
X0013500Y0033700
X0011900
X0010851Y0032050
X0009000Y0030145
X0006750Y0032800
X0006051Y0033915
X0006750Y0034950
X0005600Y0035350
X0003050
X0002950Y0034100
X0003350Y0031800
X0005150
X0002400Y0030793
X0000700Y0031900
Y0035350
X0002950Y0028194
X0003652Y0026012
X0003683Y0023975
X0001625Y0025650
X0001502Y0017650
X0002750Y0015505
X0004580Y0015490
Y0018000
X0001750Y0012950
X0016150Y0016350
X0011100Y0022900
X0011861Y0024700
X0013500Y0027900
X0016001Y0035315
X0017600Y0035065
X0019550Y0035350
T02
X0005300Y0002500
X0003850Y0004100
X0012950Y0002450
X0026150Y0002500
X0028600Y0014000
X0037428Y0016701
X0032475Y0025350
X0027250Y0032550
X0017801Y0033965
X0012900Y0025950
T03
X0062500Y0002700
Y0007900
Y0028100
Y0033300
T04
X0002410Y0006600
X0004950
Y0009140
X0002410
X0010030
X0012570
Y0006600
X0010030
X0022990Y0002500
X0012570Y0011680
Y0014220
Y0016760
Y0019300
Y0021840
X0010030
Y0019300
Y0016760
Y0014220
Y0011680
X0004950
X0002410
Y0014220
X0004950
Y0016760
X0002410
Y0019300
X0004950
Y0021840
X0002410
Y0024380
X0004950
Y0026920
X0002410
Y0029460
X0004950
T05
X0015000Y0002500
X0020450Y0002500
M30
