*
%FSLAX36Y36*%
%MOIN*%
%ADD10R,0.039400X0.039400*%
%ADD11R,0.031500X0.031500*%
%ADD12R,0.025591X0.025591*%
%ADD13C,0.011811*%
%ADD14R,0.025600X0.025600*%
%ADD15R,0.093500X0.093500*%
%ADD16C,0.005000*%
%ADD17R,0.017800X0.017800*%
%ADD18R,0.051181X0.051181*%
%ADD19R,0.035433X0.035433*%
%ADD20R,0.009843X0.009843*%
%ADD21R,0.031800X0.031800*%
%ADD22C,0.003600*%
%ADD23R,0.015748X0.015748*%
%ADD24R,0.027559X0.027559*%
%ADD25R,0.062992X0.062992*%
%ADD26C,0.039370*%
%ADD27C,0.002000*%
%IPPOS*%
%LN4v081893-tp*%
%LPD*%
G75*
G54D10*
X2570866Y651600D02*
Y742101D01*
X1078740Y438991D02*
Y505891D01*
X2570866Y438991D02*
Y505891D01*
X1078740Y651600D02*
Y742101D01*
G54D11*
X1734252Y661417D03*
X1687008D03*
X1639764D03*
G54D10*
X2250025Y212598D02*
X2340526D01*
G36*
X1098425Y232283D02*
X1179134D01*
Y192913D01*
X1059055D01*
Y312992D01*
X1098425D01*
Y232283D01*
G37*
G36*
X2590551Y192913D02*
X2466535D01*
Y232283D01*
X2551181D01*
Y312992D01*
X2590551D01*
Y192913D01*
G37*
G54D10*
X1541364Y212598D02*
X1631864D01*
X1305144D02*
X1395644D01*
X2013805D02*
X2104305D01*
X1777584D02*
X1868085D01*
G54D11*
X1687008Y708661D03*
G54D10*
X2250025Y1204724D02*
X2340526D01*
G36*
X1179134Y1185039D02*
X1098425D01*
Y1102362D01*
X1059055D01*
Y1224409D01*
X1179134D01*
Y1185039D01*
G37*
G36*
X2590551Y1224409D02*
Y1102362D01*
X2551181D01*
Y1185039D01*
X2466535D01*
Y1224409D01*
X2590551D01*
G37*
G54D10*
X1305144Y1204724D02*
X1395644D01*
X2013805D02*
X2104305D01*
X1777584D02*
X1868085D01*
X1541364D02*
X1631864D01*
G54D11*
X1639764Y755906D03*
X1734252Y708661D03*
X1639764D03*
X1687008Y755906D03*
G54D10*
X1078740Y887821D02*
Y978321D01*
X2570866Y887821D02*
Y978321D01*
G54D11*
X1734252Y755906D03*
G54D12*
X1509843Y1091496D03*
X1553150D03*
Y1131850D03*
X1509843D03*
X1861220Y1145669D03*
X1817913D03*
X2257874Y1047244D03*
X2214567D03*
X2342520D03*
X2299213D03*
X1901575Y397638D03*
X1858268D03*
X2267717Y864173D03*
X2224409D03*
X2700787Y1163386D03*
X2657480D03*
X1978346Y907480D03*
X2021654D03*
X2102362D03*
X2145669D03*
X2511811Y979528D03*
X2468504D03*
X2700787Y1041339D03*
X2657480D03*
X1938976Y907480D03*
X1895669D03*
X1852362Y860236D03*
X1895669D03*
X2145669Y864173D03*
X2102362D03*
X1519685Y594488D03*
X1476378D03*
X685039Y1375984D03*
X728346D03*
Y1334646D03*
X685039D03*
X728346Y1251969D03*
X685039D03*
X1102362Y1293898D03*
X1059055D03*
X685039Y1291339D03*
X728346D03*
X2153543Y397638D03*
X2110236D03*
X2395669Y423228D03*
X2438976D03*
X1818898Y525591D03*
X1775591D03*
X1984252Y555118D03*
X2027559D03*
X1899606Y594488D03*
X1942913D03*
X1992126Y635197D03*
X1948819D03*
X1942913Y555118D03*
X1899606D03*
X2700787Y377953D03*
X2657480D03*
X1204724Y824803D03*
X1248031D03*
X2657480Y255906D03*
X2700787D03*
X2149606Y555118D03*
X2106299D03*
Y594488D03*
X2149606D03*
X2267717Y907480D03*
X2224409D03*
X1778543Y899921D03*
X1821850D03*
X1895669Y736220D03*
X1852362D03*
X1978346Y777559D03*
X1935039D03*
X1821850Y1023622D03*
X1778543D03*
X1861220Y1106299D03*
X1817913D03*
X1856299Y635197D03*
X1899606D03*
Y681102D03*
X1856299D03*
X1603858Y925197D03*
Y881890D03*
X1602362Y1114173D03*
Y1070866D03*
X2257874Y1086614D03*
Y1129921D03*
X2171260Y1003937D03*
Y1047244D03*
X2214567Y1086614D03*
Y1129921D03*
X1852362Y777559D03*
Y820866D03*
X2657480Y1080709D03*
Y1124016D03*
X2423307Y1089449D03*
Y1046142D03*
X1778543Y939291D03*
Y982598D03*
X2383071Y862441D03*
Y819134D03*
X2185039Y864173D03*
Y907480D03*
X1778543Y1106299D03*
Y1062992D03*
X2062992Y864173D03*
Y907480D03*
X2424409Y862441D03*
Y819134D03*
X2269685Y279528D03*
Y322835D03*
X2352362Y279528D03*
Y322835D03*
X2657480Y295276D03*
Y338583D03*
X2352362Y531496D03*
Y488189D03*
X1059055Y1380512D03*
Y1337205D03*
X1185079Y1293898D03*
Y1337205D03*
X1143740Y1293898D03*
Y1337205D03*
X1602362Y988189D03*
Y1031496D03*
X1775591Y484252D03*
Y440945D03*
X1816929Y354331D03*
Y397638D03*
X1645669Y931102D03*
Y887795D03*
X1895669Y777559D03*
Y820866D03*
X2066929Y598425D03*
Y555118D03*
X1860236Y511811D03*
Y555118D03*
X1738189Y931102D03*
Y887795D03*
X1698819Y931102D03*
Y887795D03*
X2311024Y279528D03*
Y322835D03*
X2190945Y555118D03*
Y598425D03*
X2309055Y907480D03*
Y864173D03*
X1924016Y1102362D03*
Y1059055D03*
G54D13*
X1763780Y814961D02*
Y834646D01*
X1738189Y814961D02*
Y834646D01*
X1712598Y814961D02*
Y834646D01*
X1687008Y814961D02*
Y834646D01*
X1661417Y814961D02*
Y834646D01*
X1635827Y814961D02*
Y834646D01*
X1610236Y814961D02*
Y834646D01*
Y582677D02*
Y602362D01*
X1635827Y582677D02*
Y602362D01*
X1661417Y582677D02*
Y602362D01*
X1687008Y582677D02*
Y602362D01*
X1712598Y582677D02*
Y602362D01*
X1738189Y582677D02*
Y602362D01*
X1763780Y582677D02*
Y602362D01*
X1561024Y785433D02*
X1580709D01*
X1561024Y759843D02*
X1580709D01*
X1561024Y734252D02*
X1580709D01*
X1561024Y708661D02*
X1580709D01*
X1561024Y683071D02*
X1580709D01*
X1561024Y657480D02*
X1580709D01*
X1561024Y631890D02*
X1580709D01*
X1793307D02*
X1812992D01*
X1793307Y657480D02*
X1812992D01*
X1793307Y683071D02*
X1812992D01*
X1793307Y708661D02*
X1812992D01*
X1793307Y734252D02*
X1812992D01*
X1793307Y759843D02*
X1812992D01*
X1793307Y785433D02*
X1812992D01*
G54D14*
X2018670Y350394D02*
X2060070D01*
X2026557Y397638D02*
X2060057D01*
X2042331Y444882D02*
X2060031D01*
X1947843Y350394D02*
X1965543D01*
X1947843Y397638D02*
X1965543D01*
X1947843Y444882D02*
X1965543D01*
G54D15*
X893701Y1229811D02*
Y1293811D01*
G54D16*
X846951Y1185561D02*
Y1338061D01*
X940451Y1185561D02*
Y1338061D01*
G54D17*
X991187Y1336811D02*
X1016687D01*
X991187Y1286811D02*
X1016687D01*
X991187Y1186811D02*
X1016687D01*
X991187Y1236811D02*
X1016687D01*
X770715D02*
X796215D01*
X770715Y1186811D02*
X796215D01*
X770715Y1286811D02*
X796215D01*
X770715Y1336811D02*
X796215D01*
G54D18*
X1090551Y47244D03*
Y118110D03*
X789331Y1021654D03*
X860197D03*
Y96457D03*
X789331D03*
X559016Y98425D03*
X488150D03*
G54D19*
X1387795D03*
Y39370D03*
G54D20*
X1239173Y785433D02*
X1249016D01*
X1239173Y765748D02*
X1249016D01*
X1239173Y746063D02*
X1249016D01*
X1239173Y726378D02*
X1249016D01*
X1203740D02*
X1213583D01*
X1203740Y746063D02*
X1213583D01*
X1203740Y765748D02*
X1213583D01*
X1203740Y785433D02*
X1213583D01*
X1239173Y592520D02*
X1249016D01*
X1239173Y572835D02*
X1249016D01*
X1239173Y553150D02*
X1249016D01*
X1239173Y533465D02*
X1249016D01*
X1203740D02*
X1213583D01*
X1203740Y553150D02*
X1213583D01*
X1203740Y572835D02*
X1213583D01*
X1203740Y592520D02*
X1213583D01*
X1239173Y403543D02*
X1249016D01*
X1239173Y383858D02*
X1249016D01*
X1239173Y364173D02*
X1249016D01*
X1239173Y344488D02*
X1249016D01*
X1203740D02*
X1213583D01*
X1203740Y364173D02*
X1213583D01*
X1203740Y383858D02*
X1213583D01*
X1203740Y403543D02*
X1213583D01*
G54D11*
X1987402Y1130326D02*
Y1153926D01*
X2037402Y1130326D02*
Y1153926D01*
X2087402Y1130326D02*
Y1153926D01*
X1987402Y956310D02*
Y979910D01*
X2037402Y956310D02*
Y979910D01*
X2087402Y956310D02*
Y979910D01*
X1899617Y1105118D02*
X1923217D01*
X1899617Y1005118D02*
X1923217D01*
X2151586Y1105118D02*
X2175186D01*
X2151586Y1005118D02*
X2175186D01*
G54D21*
X2799355Y1208661D02*
X2925055D01*
G54D22*
X2785255Y1224561D02*
X2939155D01*
X2785255Y1192761D02*
X2939155D01*
G54D21*
X2799355Y208661D02*
X2925055D01*
G54D22*
X2785255Y224561D02*
X2939155D01*
X2785255Y192761D02*
X2939155D01*
G54D23*
X2343504Y448819D02*
X2361220D01*
X2343504Y423228D02*
X2361220D01*
X2343504Y397638D02*
X2361220D01*
X2268701D02*
X2286417D01*
X2268701Y423228D02*
X2286417D01*
X2268701Y448819D02*
X2286417D01*
X2339567Y1005118D02*
X2357283D01*
X2339567Y979528D02*
X2357283D01*
X2339567Y953937D02*
X2357283D01*
X2414370D02*
X2432087D01*
X2414370Y979528D02*
X2432087D01*
X2414370Y1005118D02*
X2432087D01*
G54D24*
X1546260Y1031496D02*
X1560039D01*
X1475394D02*
X1489173D01*
X1546260Y925197D02*
X1560039D01*
X1475394D02*
X1489173D01*
G54D25*
X893740Y1238189D02*
Y1285433D01*
G54D10*
X2570866Y2068923D02*
Y2159423D01*
X1078740Y1856314D02*
Y1923214D01*
X2570866Y1856314D02*
Y1923214D01*
X1078740Y2068923D02*
Y2159423D01*
G54D11*
X1734252Y2078740D03*
X1687008D03*
X1639764D03*
G54D10*
X2250025Y1629921D02*
X2340526D01*
G36*
X1098425Y1649606D02*
X1179134D01*
Y1610236D01*
X1059055D01*
Y1730315D01*
X1098425D01*
Y1649606D01*
G37*
G36*
X2590551Y1610236D02*
X2466535D01*
Y1649606D01*
X2551181D01*
Y1730315D01*
X2590551D01*
Y1610236D01*
G37*
G54D10*
X1541364Y1629921D02*
X1631864D01*
X1305144D02*
X1395644D01*
X2013805D02*
X2104305D01*
X1777584D02*
X1868085D01*
G54D11*
X1687008Y2125984D03*
G54D10*
X2250025Y2622047D02*
X2340526D01*
G36*
X1179134Y2602362D02*
X1098425D01*
Y2519685D01*
X1059055D01*
Y2641732D01*
X1179134D01*
Y2602362D01*
G37*
G36*
X2590551Y2641732D02*
Y2519685D01*
X2551181D01*
Y2602362D01*
X2466535D01*
Y2641732D01*
X2590551D01*
G37*
G54D10*
X1305144Y2622047D02*
X1395644D01*
X2013805D02*
X2104305D01*
X1777584D02*
X1868085D01*
X1541364D02*
X1631864D01*
G54D11*
X1639764Y2173228D03*
X1734252Y2125984D03*
X1639764D03*
X1687008Y2173228D03*
G54D10*
X1078740Y2305144D02*
Y2395644D01*
X2570866Y2305144D02*
Y2395644D01*
G54D11*
X1734252Y2173228D03*
G54D12*
X1509843Y2508819D03*
X1553150D03*
Y2549173D03*
X1509843D03*
X1861220Y2562992D03*
X1817913D03*
X2257874Y2464567D03*
X2214567D03*
X2342520D03*
X2299213D03*
X1901575Y1814961D03*
X1858268D03*
X2267717Y2281496D03*
X2224409D03*
X2700787Y2580709D03*
X2657480D03*
X1978346Y2324803D03*
X2021654D03*
X2102362D03*
X2145669D03*
X2511811Y2396850D03*
X2468504D03*
X2700787Y2458661D03*
X2657480D03*
X1938976Y2324803D03*
X1895669D03*
X1852362Y2277559D03*
X1895669D03*
X2145669Y2281496D03*
X2102362D03*
X1519685Y2011811D03*
X1476378D03*
X685039Y2793307D03*
X728346D03*
Y2751969D03*
X685039D03*
X728346Y2669291D03*
X685039D03*
X1102362Y2711220D03*
X1059055D03*
X685039Y2708661D03*
X728346D03*
X2153543Y1814961D03*
X2110236D03*
X2395669Y1840551D03*
X2438976D03*
X1818898Y1942913D03*
X1775591D03*
X1984252Y1972441D03*
X2027559D03*
X1899606Y2011811D03*
X1942913D03*
X1992126Y2052520D03*
X1948819D03*
X1942913Y1972441D03*
X1899606D03*
X2700787Y1795276D03*
X2657480D03*
X1204724Y2242126D03*
X1248031D03*
X2657480Y1673228D03*
X2700787D03*
X2149606Y1972441D03*
X2106299D03*
Y2011811D03*
X2149606D03*
X2267717Y2324803D03*
X2224409D03*
X1778543Y2317244D03*
X1821850D03*
X1895669Y2153543D03*
X1852362D03*
X1978346Y2194882D03*
X1935039D03*
X1821850Y2440945D03*
X1778543D03*
X1861220Y2523622D03*
X1817913D03*
X1856299Y2052520D03*
X1899606D03*
Y2098425D03*
X1856299D03*
X1603858Y2342520D03*
Y2299213D03*
X1602362Y2531496D03*
Y2488189D03*
X2257874Y2503937D03*
Y2547244D03*
X2171260Y2421260D03*
Y2464567D03*
X2214567Y2503937D03*
Y2547244D03*
X1852362Y2194882D03*
Y2238189D03*
X2657480Y2498031D03*
Y2541339D03*
X2423307Y2506772D03*
Y2463465D03*
X1778543Y2356614D03*
Y2399921D03*
X2383071Y2279764D03*
Y2236457D03*
X2185039Y2281496D03*
Y2324803D03*
X1778543Y2523622D03*
Y2480315D03*
X2062992Y2281496D03*
Y2324803D03*
X2424409Y2279764D03*
Y2236457D03*
X2269685Y1696850D03*
Y1740157D03*
X2352362Y1696850D03*
Y1740157D03*
X2657480Y1712598D03*
Y1755906D03*
X2352362Y1948819D03*
Y1905512D03*
X1059055Y2797835D03*
Y2754528D03*
X1185079Y2711220D03*
Y2754528D03*
X1143740Y2711220D03*
Y2754528D03*
X1602362Y2405512D03*
Y2448819D03*
X1775591Y1901575D03*
Y1858268D03*
X1816929Y1771654D03*
Y1814961D03*
X1645669Y2348425D03*
Y2305118D03*
X1895669Y2194882D03*
Y2238189D03*
X2066929Y2015748D03*
Y1972441D03*
X1860236Y1929134D03*
Y1972441D03*
X1738189Y2348425D03*
Y2305118D03*
X1698819Y2348425D03*
Y2305118D03*
X2311024Y1696850D03*
Y1740157D03*
X2190945Y1972441D03*
Y2015748D03*
X2309055Y2324803D03*
Y2281496D03*
X1924016Y2519685D03*
Y2476378D03*
G54D13*
X1763780Y2232283D02*
Y2251969D01*
X1738189Y2232283D02*
Y2251969D01*
X1712598Y2232283D02*
Y2251969D01*
X1687008Y2232283D02*
Y2251969D01*
X1661417Y2232283D02*
Y2251969D01*
X1635827Y2232283D02*
Y2251969D01*
X1610236Y2232283D02*
Y2251969D01*
Y2000000D02*
Y2019685D01*
X1635827Y2000000D02*
Y2019685D01*
X1661417Y2000000D02*
Y2019685D01*
X1687008Y2000000D02*
Y2019685D01*
X1712598Y2000000D02*
Y2019685D01*
X1738189Y2000000D02*
Y2019685D01*
X1763780Y2000000D02*
Y2019685D01*
X1561024Y2202756D02*
X1580709D01*
X1561024Y2177165D02*
X1580709D01*
X1561024Y2151575D02*
X1580709D01*
X1561024Y2125984D02*
X1580709D01*
X1561024Y2100394D02*
X1580709D01*
X1561024Y2074803D02*
X1580709D01*
X1561024Y2049213D02*
X1580709D01*
X1793307D02*
X1812992D01*
X1793307Y2074803D02*
X1812992D01*
X1793307Y2100394D02*
X1812992D01*
X1793307Y2125984D02*
X1812992D01*
X1793307Y2151575D02*
X1812992D01*
X1793307Y2177165D02*
X1812992D01*
X1793307Y2202756D02*
X1812992D01*
G54D14*
X2018670Y1767717D02*
X2060070D01*
X2026557Y1814961D02*
X2060057D01*
X2042331Y1862205D02*
X2060031D01*
X1947843Y1767717D02*
X1965543D01*
X1947843Y1814961D02*
X1965543D01*
X1947843Y1862205D02*
X1965543D01*
G54D15*
X893701Y2647134D02*
Y2711134D01*
G54D16*
X846951Y2602884D02*
Y2755384D01*
X940451Y2602884D02*
Y2755384D01*
G54D17*
X991187Y2754134D02*
X1016687D01*
X991187Y2704134D02*
X1016687D01*
X991187Y2604134D02*
X1016687D01*
X991187Y2654134D02*
X1016687D01*
X770715D02*
X796215D01*
X770715Y2604134D02*
X796215D01*
X770715Y2704134D02*
X796215D01*
X770715Y2754134D02*
X796215D01*
G54D18*
X1090551Y1464567D03*
Y1535433D03*
X789331Y2438976D03*
X860197D03*
Y1513780D03*
X789331D03*
X559016Y1515748D03*
X488150D03*
G54D19*
X1387795D03*
Y1456693D03*
G54D20*
X1239173Y2202756D02*
X1249016D01*
X1239173Y2183071D02*
X1249016D01*
X1239173Y2163386D02*
X1249016D01*
X1239173Y2143701D02*
X1249016D01*
X1203740D02*
X1213583D01*
X1203740Y2163386D02*
X1213583D01*
X1203740Y2183071D02*
X1213583D01*
X1203740Y2202756D02*
X1213583D01*
X1239173Y2009843D02*
X1249016D01*
X1239173Y1990157D02*
X1249016D01*
X1239173Y1970472D02*
X1249016D01*
X1239173Y1950787D02*
X1249016D01*
X1203740D02*
X1213583D01*
X1203740Y1970472D02*
X1213583D01*
X1203740Y1990157D02*
X1213583D01*
X1203740Y2009843D02*
X1213583D01*
X1239173Y1820866D02*
X1249016D01*
X1239173Y1801181D02*
X1249016D01*
X1239173Y1781496D02*
X1249016D01*
X1239173Y1761811D02*
X1249016D01*
X1203740D02*
X1213583D01*
X1203740Y1781496D02*
X1213583D01*
X1203740Y1801181D02*
X1213583D01*
X1203740Y1820866D02*
X1213583D01*
G54D11*
X1987402Y2547649D02*
Y2571249D01*
X2037402Y2547649D02*
Y2571249D01*
X2087402Y2547649D02*
Y2571249D01*
X1987402Y2373633D02*
Y2397233D01*
X2037402Y2373633D02*
Y2397233D01*
X2087402Y2373633D02*
Y2397233D01*
X1899617Y2522441D02*
X1923217D01*
X1899617Y2422441D02*
X1923217D01*
X2151586Y2522441D02*
X2175186D01*
X2151586Y2422441D02*
X2175186D01*
G54D21*
X2799355Y2625984D02*
X2925055D01*
G54D22*
X2785255Y2641884D02*
X2939155D01*
X2785255Y2610084D02*
X2939155D01*
G54D21*
X2799355Y1625984D02*
X2925055D01*
G54D22*
X2785255Y1641884D02*
X2939155D01*
X2785255Y1610084D02*
X2939155D01*
G54D23*
X2343504Y1866142D02*
X2361220D01*
X2343504Y1840551D02*
X2361220D01*
X2343504Y1814961D02*
X2361220D01*
X2268701D02*
X2286417D01*
X2268701Y1840551D02*
X2286417D01*
X2268701Y1866142D02*
X2286417D01*
X2339567Y2422441D02*
X2357283D01*
X2339567Y2396850D02*
X2357283D01*
X2339567Y2371260D02*
X2357283D01*
X2414370D02*
X2432087D01*
X2414370Y2396850D02*
X2432087D01*
X2414370Y2422441D02*
X2432087D01*
G54D24*
X1546260Y2448819D02*
X1560039D01*
X1475394D02*
X1489173D01*
X1546260Y2342520D02*
X1560039D01*
X1475394D02*
X1489173D01*
G54D25*
X893740Y2655512D02*
Y2702756D01*
G54D10*
X2570866Y3486246D02*
Y3576746D01*
X1078740Y3273636D02*
Y3340537D01*
X2570866Y3273636D02*
Y3340537D01*
X1078740Y3486246D02*
Y3576746D01*
G54D11*
X1734252Y3496063D03*
X1687008D03*
X1639764D03*
G54D10*
X2250025Y3047244D02*
X2340526D01*
G36*
X1098425Y3066929D02*
X1179134D01*
Y3027559D01*
X1059055D01*
Y3147638D01*
X1098425D01*
Y3066929D01*
G37*
G36*
X2590551Y3027559D02*
X2466535D01*
Y3066929D01*
X2551181D01*
Y3147638D01*
X2590551D01*
Y3027559D01*
G37*
G54D10*
X1541364Y3047244D02*
X1631864D01*
X1305144D02*
X1395644D01*
X2013805D02*
X2104305D01*
X1777584D02*
X1868085D01*
G54D11*
X1687008Y3543307D03*
G54D10*
X2250025Y4039370D02*
X2340526D01*
G36*
X1179134Y4019685D02*
X1098425D01*
Y3937008D01*
X1059055D01*
Y4059055D01*
X1179134D01*
Y4019685D01*
G37*
G36*
X2590551Y4059055D02*
Y3937008D01*
X2551181D01*
Y4019685D01*
X2466535D01*
Y4059055D01*
X2590551D01*
G37*
G54D10*
X1305144Y4039370D02*
X1395644D01*
X2013805D02*
X2104305D01*
X1777584D02*
X1868085D01*
X1541364D02*
X1631864D01*
G54D11*
X1639764Y3590551D03*
X1734252Y3543307D03*
X1639764D03*
X1687008Y3590551D03*
G54D10*
X1078740Y3722466D02*
Y3812967D01*
X2570866Y3722466D02*
Y3812967D01*
G54D11*
X1734252Y3590551D03*
G54D12*
X1509843Y3926142D03*
X1553150D03*
Y3966496D03*
X1509843D03*
X1861220Y3980315D03*
X1817913D03*
X2257874Y3881890D03*
X2214567D03*
X2342520D03*
X2299213D03*
X1901575Y3232283D03*
X1858268D03*
X2267717Y3698819D03*
X2224409D03*
X2700787Y3998031D03*
X2657480D03*
X1978346Y3742126D03*
X2021654D03*
X2102362D03*
X2145669D03*
X2511811Y3814173D03*
X2468504D03*
X2700787Y3875984D03*
X2657480D03*
X1938976Y3742126D03*
X1895669D03*
X1852362Y3694882D03*
X1895669D03*
X2145669Y3698819D03*
X2102362D03*
X1519685Y3429134D03*
X1476378D03*
X685039Y4210630D03*
X728346D03*
Y4169291D03*
X685039D03*
X728346Y4086614D03*
X685039D03*
X1102362Y4128543D03*
X1059055D03*
X685039Y4125984D03*
X728346D03*
X2153543Y3232283D03*
X2110236D03*
X2395669Y3257874D03*
X2438976D03*
X1818898Y3360236D03*
X1775591D03*
X1984252Y3389764D03*
X2027559D03*
X1899606Y3429134D03*
X1942913D03*
X1992126Y3469843D03*
X1948819D03*
X1942913Y3389764D03*
X1899606D03*
X2700787Y3212598D03*
X2657480D03*
X1204724Y3659449D03*
X1248031D03*
X2657480Y3090551D03*
X2700787D03*
X2149606Y3389764D03*
X2106299D03*
Y3429134D03*
X2149606D03*
X2267717Y3742126D03*
X2224409D03*
X1778543Y3734567D03*
X1821850D03*
X1895669Y3570866D03*
X1852362D03*
X1978346Y3612205D03*
X1935039D03*
X1821850Y3858268D03*
X1778543D03*
X1861220Y3940945D03*
X1817913D03*
X1856299Y3469843D03*
X1899606D03*
Y3515748D03*
X1856299D03*
X1603858Y3759843D03*
Y3716535D03*
X1602362Y3948819D03*
Y3905512D03*
X2257874Y3921260D03*
Y3964567D03*
X2171260Y3838583D03*
Y3881890D03*
X2214567Y3921260D03*
Y3964567D03*
X1852362Y3612205D03*
Y3655512D03*
X2657480Y3915354D03*
Y3958661D03*
X2423307Y3924094D03*
Y3880787D03*
X1778543Y3773937D03*
Y3817244D03*
X2383071Y3697087D03*
Y3653780D03*
X2185039Y3698819D03*
Y3742126D03*
X1778543Y3940945D03*
Y3897638D03*
X2062992Y3698819D03*
Y3742126D03*
X2424409Y3697087D03*
Y3653780D03*
X2269685Y3114173D03*
Y3157480D03*
X2352362Y3114173D03*
Y3157480D03*
X2657480Y3129921D03*
Y3173228D03*
X2352362Y3366142D03*
Y3322835D03*
X1059055Y4215157D03*
Y4171850D03*
X1185079Y4128543D03*
Y4171850D03*
X1143740Y4128543D03*
Y4171850D03*
X1602362Y3822835D03*
Y3866142D03*
X1775591Y3318898D03*
Y3275591D03*
X1816929Y3188976D03*
Y3232283D03*
X1645669Y3765748D03*
Y3722441D03*
X1895669Y3612205D03*
Y3655512D03*
X2066929Y3433071D03*
Y3389764D03*
X1860236Y3346457D03*
Y3389764D03*
X1738189Y3765748D03*
Y3722441D03*
X1698819Y3765748D03*
Y3722441D03*
X2311024Y3114173D03*
Y3157480D03*
X2190945Y3389764D03*
Y3433071D03*
X2309055Y3742126D03*
Y3698819D03*
X1924016Y3937008D03*
Y3893701D03*
G54D13*
X1763780Y3649606D02*
Y3669291D01*
X1738189Y3649606D02*
Y3669291D01*
X1712598Y3649606D02*
Y3669291D01*
X1687008Y3649606D02*
Y3669291D01*
X1661417Y3649606D02*
Y3669291D01*
X1635827Y3649606D02*
Y3669291D01*
X1610236Y3649606D02*
Y3669291D01*
Y3417323D02*
Y3437008D01*
X1635827Y3417323D02*
Y3437008D01*
X1661417Y3417323D02*
Y3437008D01*
X1687008Y3417323D02*
Y3437008D01*
X1712598Y3417323D02*
Y3437008D01*
X1738189Y3417323D02*
Y3437008D01*
X1763780Y3417323D02*
Y3437008D01*
X1561024Y3620079D02*
X1580709D01*
X1561024Y3594488D02*
X1580709D01*
X1561024Y3568898D02*
X1580709D01*
X1561024Y3543307D02*
X1580709D01*
X1561024Y3517717D02*
X1580709D01*
X1561024Y3492126D02*
X1580709D01*
X1561024Y3466535D02*
X1580709D01*
X1793307D02*
X1812992D01*
X1793307Y3492126D02*
X1812992D01*
X1793307Y3517717D02*
X1812992D01*
X1793307Y3543307D02*
X1812992D01*
X1793307Y3568898D02*
X1812992D01*
X1793307Y3594488D02*
X1812992D01*
X1793307Y3620079D02*
X1812992D01*
G54D14*
X2018670Y3185039D02*
X2060070D01*
X2026557Y3232283D02*
X2060057D01*
X2042331Y3279528D02*
X2060031D01*
X1947843Y3185039D02*
X1965543D01*
X1947843Y3232283D02*
X1965543D01*
X1947843Y3279528D02*
X1965543D01*
G54D15*
X893701Y4064457D02*
Y4128457D01*
G54D16*
X846951Y4020207D02*
Y4172707D01*
X940451Y4020207D02*
Y4172707D01*
G54D17*
X991187Y4171457D02*
X1016687D01*
X991187Y4121457D02*
X1016687D01*
X991187Y4021457D02*
X1016687D01*
X991187Y4071457D02*
X1016687D01*
X770715D02*
X796215D01*
X770715Y4021457D02*
X796215D01*
X770715Y4121457D02*
X796215D01*
X770715Y4171457D02*
X796215D01*
G54D18*
X1090551Y2881890D03*
Y2952756D03*
X789331Y3856299D03*
X860197D03*
Y2931102D03*
X789331D03*
X559016Y2933071D03*
X488150D03*
G54D19*
X1387795D03*
Y2874016D03*
G54D20*
X1239173Y3620079D02*
X1249016D01*
X1239173Y3600394D02*
X1249016D01*
X1239173Y3580709D02*
X1249016D01*
X1239173Y3561024D02*
X1249016D01*
X1203740D02*
X1213583D01*
X1203740Y3580709D02*
X1213583D01*
X1203740Y3600394D02*
X1213583D01*
X1203740Y3620079D02*
X1213583D01*
X1239173Y3427165D02*
X1249016D01*
X1239173Y3407480D02*
X1249016D01*
X1239173Y3387795D02*
X1249016D01*
X1239173Y3368110D02*
X1249016D01*
X1203740D02*
X1213583D01*
X1203740Y3387795D02*
X1213583D01*
X1203740Y3407480D02*
X1213583D01*
X1203740Y3427165D02*
X1213583D01*
X1239173Y3238189D02*
X1249016D01*
X1239173Y3218504D02*
X1249016D01*
X1239173Y3198819D02*
X1249016D01*
X1239173Y3179134D02*
X1249016D01*
X1203740D02*
X1213583D01*
X1203740Y3198819D02*
X1213583D01*
X1203740Y3218504D02*
X1213583D01*
X1203740Y3238189D02*
X1213583D01*
G54D11*
X1987402Y3964972D02*
Y3988572D01*
X2037402Y3964972D02*
Y3988572D01*
X2087402Y3964972D02*
Y3988572D01*
X1987402Y3790956D02*
Y3814556D01*
X2037402Y3790956D02*
Y3814556D01*
X2087402Y3790956D02*
Y3814556D01*
X1899617Y3939764D02*
X1923217D01*
X1899617Y3839764D02*
X1923217D01*
X2151586Y3939764D02*
X2175186D01*
X2151586Y3839764D02*
X2175186D01*
G54D21*
X2799355Y4043307D02*
X2925055D01*
G54D22*
X2785255Y4059207D02*
X2939155D01*
X2785255Y4027407D02*
X2939155D01*
G54D21*
X2799355Y3043307D02*
X2925055D01*
G54D22*
X2785255Y3059207D02*
X2939155D01*
X2785255Y3027407D02*
X2939155D01*
G54D23*
X2343504Y3283465D02*
X2361220D01*
X2343504Y3257874D02*
X2361220D01*
X2343504Y3232283D02*
X2361220D01*
X2268701D02*
X2286417D01*
X2268701Y3257874D02*
X2286417D01*
X2268701Y3283465D02*
X2286417D01*
X2339567Y3839764D02*
X2357283D01*
X2339567Y3814173D02*
X2357283D01*
X2339567Y3788583D02*
X2357283D01*
X2414370D02*
X2432087D01*
X2414370Y3814173D02*
X2432087D01*
X2414370Y3839764D02*
X2432087D01*
G54D24*
X1546260Y3866142D02*
X1560039D01*
X1475394D02*
X1489173D01*
X1546260Y3759843D02*
X1560039D01*
X1475394D02*
X1489173D01*
G54D25*
X893740Y4072835D02*
Y4120079D01*
G54D10*
X2570866Y4903569D02*
Y4994069D01*
X1078740Y4690959D02*
Y4757860D01*
X2570866Y4690959D02*
Y4757860D01*
X1078740Y4903569D02*
Y4994069D01*
G54D11*
X1734252Y4913386D03*
X1687008D03*
X1639764D03*
G54D10*
X2250025Y4464567D02*
X2340526D01*
G36*
X1098425Y4484252D02*
X1179134D01*
Y4444882D01*
X1059055D01*
Y4564961D01*
X1098425D01*
Y4484252D01*
G37*
G36*
X2590551Y4444882D02*
X2466535D01*
Y4484252D01*
X2551181D01*
Y4564961D01*
X2590551D01*
Y4444882D01*
G37*
G54D10*
X1541364Y4464567D02*
X1631864D01*
X1305144D02*
X1395644D01*
X2013805D02*
X2104305D01*
X1777584D02*
X1868085D01*
G54D11*
X1687008Y4960630D03*
G54D10*
X2250025Y5456693D02*
X2340526D01*
G36*
X1179134Y5437008D02*
X1098425D01*
Y5354331D01*
X1059055D01*
Y5476378D01*
X1179134D01*
Y5437008D01*
G37*
G36*
X2590551Y5476378D02*
Y5354331D01*
X2551181D01*
Y5437008D01*
X2466535D01*
Y5476378D01*
X2590551D01*
G37*
G54D10*
X1305144Y5456693D02*
X1395644D01*
X2013805D02*
X2104305D01*
X1777584D02*
X1868085D01*
X1541364D02*
X1631864D01*
G54D11*
X1639764Y5007874D03*
X1734252Y4960630D03*
X1639764D03*
X1687008Y5007874D03*
G54D10*
X1078740Y5139789D02*
Y5230290D01*
X2570866Y5139789D02*
Y5230290D01*
G54D11*
X1734252Y5007874D03*
G54D12*
X1509843Y5343465D03*
X1553150D03*
Y5383819D03*
X1509843D03*
X1861220Y5397638D03*
X1817913D03*
X2257874Y5299213D03*
X2214567D03*
X2342520D03*
X2299213D03*
X1901575Y4649606D03*
X1858268D03*
X2267717Y5116142D03*
X2224409D03*
X2700787Y5415354D03*
X2657480D03*
X1978346Y5159449D03*
X2021654D03*
X2102362D03*
X2145669D03*
X2511811Y5231496D03*
X2468504D03*
X2700787Y5293307D03*
X2657480D03*
X1938976Y5159449D03*
X1895669D03*
X1852362Y5112205D03*
X1895669D03*
X2145669Y5116142D03*
X2102362D03*
X1519685Y4846457D03*
X1476378D03*
X685039Y5627953D03*
X728346D03*
Y5586614D03*
X685039D03*
X728346Y5503937D03*
X685039D03*
X1102362Y5545866D03*
X1059055D03*
X685039Y5543307D03*
X728346D03*
X2153543Y4649606D03*
X2110236D03*
X2395669Y4675197D03*
X2438976D03*
X1818898Y4777559D03*
X1775591D03*
X1984252Y4807087D03*
X2027559D03*
X1899606Y4846457D03*
X1942913D03*
X1992126Y4887165D03*
X1948819D03*
X1942913Y4807087D03*
X1899606D03*
X2700787Y4629921D03*
X2657480D03*
X1204724Y5076772D03*
X1248031D03*
X2657480Y4507874D03*
X2700787D03*
X2149606Y4807087D03*
X2106299D03*
Y4846457D03*
X2149606D03*
X2267717Y5159449D03*
X2224409D03*
X1778543Y5151890D03*
X1821850D03*
X1895669Y4988189D03*
X1852362D03*
X1978346Y5029528D03*
X1935039D03*
X1821850Y5275591D03*
X1778543D03*
X1861220Y5358268D03*
X1817913D03*
X1856299Y4887165D03*
X1899606D03*
Y4933071D03*
X1856299D03*
X1603858Y5177165D03*
Y5133858D03*
X1602362Y5366142D03*
Y5322835D03*
X2257874Y5338583D03*
Y5381890D03*
X2171260Y5255906D03*
Y5299213D03*
X2214567Y5338583D03*
Y5381890D03*
X1852362Y5029528D03*
Y5072835D03*
X2657480Y5332677D03*
Y5375984D03*
X2423307Y5341417D03*
Y5298110D03*
X1778543Y5191260D03*
Y5234567D03*
X2383071Y5114409D03*
Y5071102D03*
X2185039Y5116142D03*
Y5159449D03*
X1778543Y5358268D03*
Y5314961D03*
X2062992Y5116142D03*
Y5159449D03*
X2424409Y5114409D03*
Y5071102D03*
X2269685Y4531496D03*
Y4574803D03*
X2352362Y4531496D03*
Y4574803D03*
X2657480Y4547244D03*
Y4590551D03*
X2352362Y4783465D03*
Y4740157D03*
X1059055Y5632480D03*
Y5589173D03*
X1185079Y5545866D03*
Y5589173D03*
X1143740Y5545866D03*
Y5589173D03*
X1602362Y5240157D03*
Y5283465D03*
X1775591Y4736220D03*
Y4692913D03*
X1816929Y4606299D03*
Y4649606D03*
X1645669Y5183071D03*
Y5139764D03*
X1895669Y5029528D03*
Y5072835D03*
X2066929Y4850394D03*
Y4807087D03*
X1860236Y4763780D03*
Y4807087D03*
X1738189Y5183071D03*
Y5139764D03*
X1698819Y5183071D03*
Y5139764D03*
X2311024Y4531496D03*
Y4574803D03*
X2190945Y4807087D03*
Y4850394D03*
X2309055Y5159449D03*
Y5116142D03*
X1924016Y5354331D03*
Y5311024D03*
G54D13*
X1763780Y5066929D02*
Y5086614D01*
X1738189Y5066929D02*
Y5086614D01*
X1712598Y5066929D02*
Y5086614D01*
X1687008Y5066929D02*
Y5086614D01*
X1661417Y5066929D02*
Y5086614D01*
X1635827Y5066929D02*
Y5086614D01*
X1610236Y5066929D02*
Y5086614D01*
Y4834646D02*
Y4854331D01*
X1635827Y4834646D02*
Y4854331D01*
X1661417Y4834646D02*
Y4854331D01*
X1687008Y4834646D02*
Y4854331D01*
X1712598Y4834646D02*
Y4854331D01*
X1738189Y4834646D02*
Y4854331D01*
X1763780Y4834646D02*
Y4854331D01*
X1561024Y5037402D02*
X1580709D01*
X1561024Y5011811D02*
X1580709D01*
X1561024Y4986220D02*
X1580709D01*
X1561024Y4960630D02*
X1580709D01*
X1561024Y4935039D02*
X1580709D01*
X1561024Y4909449D02*
X1580709D01*
X1561024Y4883858D02*
X1580709D01*
X1793307D02*
X1812992D01*
X1793307Y4909449D02*
X1812992D01*
X1793307Y4935039D02*
X1812992D01*
X1793307Y4960630D02*
X1812992D01*
X1793307Y4986220D02*
X1812992D01*
X1793307Y5011811D02*
X1812992D01*
X1793307Y5037402D02*
X1812992D01*
G54D14*
X2018670Y4602362D02*
X2060070D01*
X2026557Y4649606D02*
X2060057D01*
X2042331Y4696850D02*
X2060031D01*
X1947843Y4602362D02*
X1965543D01*
X1947843Y4649606D02*
X1965543D01*
X1947843Y4696850D02*
X1965543D01*
G54D15*
X893701Y5481780D02*
Y5545780D01*
G54D16*
X846951Y5437530D02*
Y5590030D01*
X940451Y5437530D02*
Y5590030D01*
G54D17*
X991187Y5588780D02*
X1016687D01*
X991187Y5538780D02*
X1016687D01*
X991187Y5438780D02*
X1016687D01*
X991187Y5488780D02*
X1016687D01*
X770715D02*
X796215D01*
X770715Y5438780D02*
X796215D01*
X770715Y5538780D02*
X796215D01*
X770715Y5588780D02*
X796215D01*
G54D18*
X1090551Y4299213D03*
Y4370079D03*
X789331Y5273622D03*
X860197D03*
Y4348425D03*
X789331D03*
X559016Y4350394D03*
X488150D03*
G54D19*
X1387795D03*
Y4291339D03*
G54D20*
X1239173Y5037402D02*
X1249016D01*
X1239173Y5017717D02*
X1249016D01*
X1239173Y4998031D02*
X1249016D01*
X1239173Y4978346D02*
X1249016D01*
X1203740D02*
X1213583D01*
X1203740Y4998031D02*
X1213583D01*
X1203740Y5017717D02*
X1213583D01*
X1203740Y5037402D02*
X1213583D01*
X1239173Y4844488D02*
X1249016D01*
X1239173Y4824803D02*
X1249016D01*
X1239173Y4805118D02*
X1249016D01*
X1239173Y4785433D02*
X1249016D01*
X1203740D02*
X1213583D01*
X1203740Y4805118D02*
X1213583D01*
X1203740Y4824803D02*
X1213583D01*
X1203740Y4844488D02*
X1213583D01*
X1239173Y4655512D02*
X1249016D01*
X1239173Y4635827D02*
X1249016D01*
X1239173Y4616142D02*
X1249016D01*
X1239173Y4596457D02*
X1249016D01*
X1203740D02*
X1213583D01*
X1203740Y4616142D02*
X1213583D01*
X1203740Y4635827D02*
X1213583D01*
X1203740Y4655512D02*
X1213583D01*
G54D11*
X1987402Y5382294D02*
Y5405894D01*
X2037402Y5382294D02*
Y5405894D01*
X2087402Y5382294D02*
Y5405894D01*
X1987402Y5208279D02*
Y5231879D01*
X2037402Y5208279D02*
Y5231879D01*
X2087402Y5208279D02*
Y5231879D01*
X1899617Y5357087D02*
X1923217D01*
X1899617Y5257087D02*
X1923217D01*
X2151586Y5357087D02*
X2175186D01*
X2151586Y5257087D02*
X2175186D01*
G54D21*
X2799355Y5460630D02*
X2925055D01*
G54D22*
X2785255Y5476530D02*
X2939155D01*
X2785255Y5444730D02*
X2939155D01*
G54D21*
X2799355Y4460630D02*
X2925055D01*
G54D22*
X2785255Y4476530D02*
X2939155D01*
X2785255Y4444730D02*
X2939155D01*
G54D23*
X2343504Y4700787D02*
X2361220D01*
X2343504Y4675197D02*
X2361220D01*
X2343504Y4649606D02*
X2361220D01*
X2268701D02*
X2286417D01*
X2268701Y4675197D02*
X2286417D01*
X2268701Y4700787D02*
X2286417D01*
X2339567Y5257087D02*
X2357283D01*
X2339567Y5231496D02*
X2357283D01*
X2339567Y5205906D02*
X2357283D01*
X2414370D02*
X2432087D01*
X2414370Y5231496D02*
X2432087D01*
X2414370Y5257087D02*
X2432087D01*
G54D24*
X1546260Y5283465D02*
X1560039D01*
X1475394D02*
X1489173D01*
X1546260Y5177165D02*
X1560039D01*
X1475394D02*
X1489173D01*
G54D25*
X893740Y5490157D02*
Y5537402D01*
G54D10*
X2570866Y6320892D02*
Y6411392D01*
X1078740Y6108282D02*
Y6175182D01*
X2570866Y6108282D02*
Y6175182D01*
X1078740Y6320892D02*
Y6411392D01*
G54D11*
X1734252Y6330709D03*
X1687008D03*
X1639764D03*
G54D10*
X2250025Y5881890D02*
X2340526D01*
G36*
X1098425Y5901575D02*
X1179134D01*
Y5862205D01*
X1059055D01*
Y5982283D01*
X1098425D01*
Y5901575D01*
G37*
G36*
X2590551Y5862205D02*
X2466535D01*
Y5901575D01*
X2551181D01*
Y5982283D01*
X2590551D01*
Y5862205D01*
G37*
G54D10*
X1541364Y5881890D02*
X1631864D01*
X1305144D02*
X1395644D01*
X2013805D02*
X2104305D01*
X1777584D02*
X1868085D01*
G54D11*
X1687008Y6377953D03*
G54D10*
X2250025Y6874016D02*
X2340526D01*
G36*
X1179134Y6854331D02*
X1098425D01*
Y6771654D01*
X1059055D01*
Y6893701D01*
X1179134D01*
Y6854331D01*
G37*
G36*
X2590551Y6893701D02*
Y6771654D01*
X2551181D01*
Y6854331D01*
X2466535D01*
Y6893701D01*
X2590551D01*
G37*
G54D10*
X1305144Y6874016D02*
X1395644D01*
X2013805D02*
X2104305D01*
X1777584D02*
X1868085D01*
X1541364D02*
X1631864D01*
G54D11*
X1639764Y6425197D03*
X1734252Y6377953D03*
X1639764D03*
X1687008Y6425197D03*
G54D10*
X1078740Y6557112D02*
Y6647612D01*
X2570866Y6557112D02*
Y6647612D01*
G54D11*
X1734252Y6425197D03*
G54D12*
X1509843Y6760787D03*
X1553150D03*
Y6801142D03*
X1509843D03*
X1861220Y6814961D03*
X1817913D03*
X2257874Y6716535D03*
X2214567D03*
X2342520D03*
X2299213D03*
X1901575Y6066929D03*
X1858268D03*
X2267717Y6533465D03*
X2224409D03*
X2700787Y6832677D03*
X2657480D03*
X1978346Y6576772D03*
X2021654D03*
X2102362D03*
X2145669D03*
X2511811Y6648819D03*
X2468504D03*
X2700787Y6710630D03*
X2657480D03*
X1938976Y6576772D03*
X1895669D03*
X1852362Y6529528D03*
X1895669D03*
X2145669Y6533465D03*
X2102362D03*
X1519685Y6263780D03*
X1476378D03*
X685039Y7045276D03*
X728346D03*
Y7003937D03*
X685039D03*
X728346Y6921260D03*
X685039D03*
X1102362Y6963189D03*
X1059055D03*
X685039Y6960630D03*
X728346D03*
X2153543Y6066929D03*
X2110236D03*
X2395669Y6092520D03*
X2438976D03*
X1818898Y6194882D03*
X1775591D03*
X1984252Y6224409D03*
X2027559D03*
X1899606Y6263780D03*
X1942913D03*
X1992126Y6304488D03*
X1948819D03*
X1942913Y6224409D03*
X1899606D03*
X2700787Y6047244D03*
X2657480D03*
X1204724Y6494094D03*
X1248031D03*
X2657480Y5925197D03*
X2700787D03*
X2149606Y6224409D03*
X2106299D03*
Y6263780D03*
X2149606D03*
X2267717Y6576772D03*
X2224409D03*
X1778543Y6569213D03*
X1821850D03*
X1895669Y6405512D03*
X1852362D03*
X1978346Y6446850D03*
X1935039D03*
X1821850Y6692913D03*
X1778543D03*
X1861220Y6775591D03*
X1817913D03*
X1856299Y6304488D03*
X1899606D03*
Y6350394D03*
X1856299D03*
X1603858Y6594488D03*
Y6551181D03*
X1602362Y6783465D03*
Y6740157D03*
X2257874Y6755906D03*
Y6799213D03*
X2171260Y6673228D03*
Y6716535D03*
X2214567Y6755906D03*
Y6799213D03*
X1852362Y6446850D03*
Y6490157D03*
X2657480Y6750000D03*
Y6793307D03*
X2423307Y6758740D03*
Y6715433D03*
X1778543Y6608583D03*
Y6651890D03*
X2383071Y6531732D03*
Y6488425D03*
X2185039Y6533465D03*
Y6576772D03*
X1778543Y6775591D03*
Y6732283D03*
X2062992Y6533465D03*
Y6576772D03*
X2424409Y6531732D03*
Y6488425D03*
X2269685Y5948819D03*
Y5992126D03*
X2352362Y5948819D03*
Y5992126D03*
X2657480Y5964567D03*
Y6007874D03*
X2352362Y6200787D03*
Y6157480D03*
X1059055Y7049803D03*
Y7006496D03*
X1185079Y6963189D03*
Y7006496D03*
X1143740Y6963189D03*
Y7006496D03*
X1602362Y6657480D03*
Y6700787D03*
X1775591Y6153543D03*
Y6110236D03*
X1816929Y6023622D03*
Y6066929D03*
X1645669Y6600394D03*
Y6557087D03*
X1895669Y6446850D03*
Y6490157D03*
X2066929Y6267717D03*
Y6224409D03*
X1860236Y6181102D03*
Y6224409D03*
X1738189Y6600394D03*
Y6557087D03*
X1698819Y6600394D03*
Y6557087D03*
X2311024Y5948819D03*
Y5992126D03*
X2190945Y6224409D03*
Y6267717D03*
X2309055Y6576772D03*
Y6533465D03*
X1924016Y6771654D03*
Y6728346D03*
G54D13*
X1763780Y6484252D02*
Y6503937D01*
X1738189Y6484252D02*
Y6503937D01*
X1712598Y6484252D02*
Y6503937D01*
X1687008Y6484252D02*
Y6503937D01*
X1661417Y6484252D02*
Y6503937D01*
X1635827Y6484252D02*
Y6503937D01*
X1610236Y6484252D02*
Y6503937D01*
Y6251969D02*
Y6271654D01*
X1635827Y6251969D02*
Y6271654D01*
X1661417Y6251969D02*
Y6271654D01*
X1687008Y6251969D02*
Y6271654D01*
X1712598Y6251969D02*
Y6271654D01*
X1738189Y6251969D02*
Y6271654D01*
X1763780Y6251969D02*
Y6271654D01*
X1561024Y6454724D02*
X1580709D01*
X1561024Y6429134D02*
X1580709D01*
X1561024Y6403543D02*
X1580709D01*
X1561024Y6377953D02*
X1580709D01*
X1561024Y6352362D02*
X1580709D01*
X1561024Y6326772D02*
X1580709D01*
X1561024Y6301181D02*
X1580709D01*
X1793307D02*
X1812992D01*
X1793307Y6326772D02*
X1812992D01*
X1793307Y6352362D02*
X1812992D01*
X1793307Y6377953D02*
X1812992D01*
X1793307Y6403543D02*
X1812992D01*
X1793307Y6429134D02*
X1812992D01*
X1793307Y6454724D02*
X1812992D01*
G54D14*
X2018670Y6019685D02*
X2060070D01*
X2026557Y6066929D02*
X2060057D01*
X2042331Y6114173D02*
X2060031D01*
X1947843Y6019685D02*
X1965543D01*
X1947843Y6066929D02*
X1965543D01*
X1947843Y6114173D02*
X1965543D01*
G54D15*
X893701Y6899102D02*
Y6963102D01*
G54D16*
X846951Y6854852D02*
Y7007352D01*
X940451Y6854852D02*
Y7007352D01*
G54D17*
X991187Y7006102D02*
X1016687D01*
X991187Y6956102D02*
X1016687D01*
X991187Y6856102D02*
X1016687D01*
X991187Y6906102D02*
X1016687D01*
X770715D02*
X796215D01*
X770715Y6856102D02*
X796215D01*
X770715Y6956102D02*
X796215D01*
X770715Y7006102D02*
X796215D01*
G54D18*
X1090551Y5716535D03*
Y5787402D03*
X789331Y6690945D03*
X860197D03*
Y5765748D03*
X789331D03*
X559016Y5767717D03*
X488150D03*
G54D19*
X1387795D03*
Y5708661D03*
G54D20*
X1239173Y6454724D02*
X1249016D01*
X1239173Y6435039D02*
X1249016D01*
X1239173Y6415354D02*
X1249016D01*
X1239173Y6395669D02*
X1249016D01*
X1203740D02*
X1213583D01*
X1203740Y6415354D02*
X1213583D01*
X1203740Y6435039D02*
X1213583D01*
X1203740Y6454724D02*
X1213583D01*
X1239173Y6261811D02*
X1249016D01*
X1239173Y6242126D02*
X1249016D01*
X1239173Y6222441D02*
X1249016D01*
X1239173Y6202756D02*
X1249016D01*
X1203740D02*
X1213583D01*
X1203740Y6222441D02*
X1213583D01*
X1203740Y6242126D02*
X1213583D01*
X1203740Y6261811D02*
X1213583D01*
X1239173Y6072835D02*
X1249016D01*
X1239173Y6053150D02*
X1249016D01*
X1239173Y6033465D02*
X1249016D01*
X1239173Y6013780D02*
X1249016D01*
X1203740D02*
X1213583D01*
X1203740Y6033465D02*
X1213583D01*
X1203740Y6053150D02*
X1213583D01*
X1203740Y6072835D02*
X1213583D01*
G54D11*
X1987402Y6799617D02*
Y6823217D01*
X2037402Y6799617D02*
Y6823217D01*
X2087402Y6799617D02*
Y6823217D01*
X1987402Y6625602D02*
Y6649202D01*
X2037402Y6625602D02*
Y6649202D01*
X2087402Y6625602D02*
Y6649202D01*
X1899617Y6774409D02*
X1923217D01*
X1899617Y6674409D02*
X1923217D01*
X2151586Y6774409D02*
X2175186D01*
X2151586Y6674409D02*
X2175186D01*
G54D21*
X2799355Y6877953D02*
X2925055D01*
G54D22*
X2785255Y6893853D02*
X2939155D01*
X2785255Y6862053D02*
X2939155D01*
G54D21*
X2799355Y5877953D02*
X2925055D01*
G54D22*
X2785255Y5893853D02*
X2939155D01*
X2785255Y5862053D02*
X2939155D01*
G54D23*
X2343504Y6118110D02*
X2361220D01*
X2343504Y6092520D02*
X2361220D01*
X2343504Y6066929D02*
X2361220D01*
X2268701D02*
X2286417D01*
X2268701Y6092520D02*
X2286417D01*
X2268701Y6118110D02*
X2286417D01*
X2339567Y6674409D02*
X2357283D01*
X2339567Y6648819D02*
X2357283D01*
X2339567Y6623228D02*
X2357283D01*
X2414370D02*
X2432087D01*
X2414370Y6648819D02*
X2432087D01*
X2414370Y6674409D02*
X2432087D01*
G54D24*
X1546260Y6700787D02*
X1560039D01*
X1475394D02*
X1489173D01*
X1546260Y6594488D02*
X1560039D01*
X1475394D02*
X1489173D01*
G54D25*
X893740Y6907480D02*
Y6954724D01*
G54D10*
X5129921Y651600D02*
Y742101D01*
X3637795Y438991D02*
Y505891D01*
X5129921Y438991D02*
Y505891D01*
X3637795Y651600D02*
Y742101D01*
G54D11*
X4293307Y661417D03*
X4246063D03*
X4198819D03*
G54D10*
X4809081Y212598D02*
X4899581D01*
G36*
X3657480Y232283D02*
X3738189D01*
Y192913D01*
X3618110D01*
Y312992D01*
X3657480D01*
Y232283D01*
G37*
G36*
X5149606Y192913D02*
X5025591D01*
Y232283D01*
X5110236D01*
Y312992D01*
X5149606D01*
Y192913D01*
G37*
G54D10*
X4100419Y212598D02*
X4190919D01*
X3864199D02*
X3954699D01*
X4572860D02*
X4663360D01*
X4336640D02*
X4427140D01*
G54D11*
X4246063Y708661D03*
G54D10*
X4809081Y1204724D02*
X4899581D01*
G36*
X3738189Y1185039D02*
X3657480D01*
Y1102362D01*
X3618110D01*
Y1224409D01*
X3738189D01*
Y1185039D01*
G37*
G36*
X5149606Y1224409D02*
Y1102362D01*
X5110236D01*
Y1185039D01*
X5025591D01*
Y1224409D01*
X5149606D01*
G37*
G54D10*
X3864199Y1204724D02*
X3954699D01*
X4572860D02*
X4663360D01*
X4336640D02*
X4427140D01*
X4100419D02*
X4190919D01*
G54D11*
X4198819Y755906D03*
X4293307Y708661D03*
X4198819D03*
X4246063Y755906D03*
G54D10*
X3637795Y887821D02*
Y978321D01*
X5129921Y887821D02*
Y978321D01*
G54D11*
X4293307Y755906D03*
G54D12*
X4068898Y1091496D03*
X4112205D03*
Y1131850D03*
X4068898D03*
X4420276Y1145669D03*
X4376969D03*
X4816929Y1047244D03*
X4773622D03*
X4901575D03*
X4858268D03*
X4460630Y397638D03*
X4417323D03*
X4826772Y864173D03*
X4783465D03*
X5259843Y1163386D03*
X5216535D03*
X4537402Y907480D03*
X4580709D03*
X4661417D03*
X4704724D03*
X5070866Y979528D03*
X5027559D03*
X5259843Y1041339D03*
X5216535D03*
X4498031Y907480D03*
X4454724D03*
X4411417Y860236D03*
X4454724D03*
X4704724Y864173D03*
X4661417D03*
X4078740Y594488D03*
X4035433D03*
X3244094Y1375984D03*
X3287402D03*
Y1334646D03*
X3244094D03*
X3287402Y1251969D03*
X3244094D03*
X3661417Y1293898D03*
X3618110D03*
X3244094Y1291339D03*
X3287402D03*
X4712598Y397638D03*
X4669291D03*
X4954724Y423228D03*
X4998031D03*
X4377953Y525591D03*
X4334646D03*
X4543307Y555118D03*
X4586614D03*
X4458661Y594488D03*
X4501969D03*
X4551181Y635197D03*
X4507874D03*
X4501969Y555118D03*
X4458661D03*
X5259843Y377953D03*
X5216535D03*
X3763780Y824803D03*
X3807087D03*
X5216535Y255906D03*
X5259843D03*
X4708661Y555118D03*
X4665354D03*
Y594488D03*
X4708661D03*
X4826772Y907480D03*
X4783465D03*
X4337598Y899921D03*
X4380906D03*
X4454724Y736220D03*
X4411417D03*
X4537402Y777559D03*
X4494094D03*
X4380906Y1023622D03*
X4337598D03*
X4420276Y1106299D03*
X4376969D03*
X4415354Y635197D03*
X4458661D03*
Y681102D03*
X4415354D03*
X4162913Y925197D03*
Y881890D03*
X4161417Y1114173D03*
Y1070866D03*
X4816929Y1086614D03*
Y1129921D03*
X4730315Y1003937D03*
Y1047244D03*
X4773622Y1086614D03*
Y1129921D03*
X4411417Y777559D03*
Y820866D03*
X5216535Y1080709D03*
Y1124016D03*
X4982362Y1089449D03*
Y1046142D03*
X4337598Y939291D03*
Y982598D03*
X4942126Y862441D03*
Y819134D03*
X4744094Y864173D03*
Y907480D03*
X4337598Y1106299D03*
Y1062992D03*
X4622047Y864173D03*
Y907480D03*
X4983465Y862441D03*
Y819134D03*
X4828740Y279528D03*
Y322835D03*
X4911417Y279528D03*
Y322835D03*
X5216535Y295276D03*
Y338583D03*
X4911417Y531496D03*
Y488189D03*
X3618110Y1380512D03*
Y1337205D03*
X3744134Y1293898D03*
Y1337205D03*
X3702795Y1293898D03*
Y1337205D03*
X4161417Y988189D03*
Y1031496D03*
X4334646Y484252D03*
Y440945D03*
X4375984Y354331D03*
Y397638D03*
X4204724Y931102D03*
Y887795D03*
X4454724Y777559D03*
Y820866D03*
X4625984Y598425D03*
Y555118D03*
X4419291Y511811D03*
Y555118D03*
X4297244Y931102D03*
Y887795D03*
X4257874Y931102D03*
Y887795D03*
X4870079Y279528D03*
Y322835D03*
X4750000Y555118D03*
Y598425D03*
X4868110Y907480D03*
Y864173D03*
X4483071Y1102362D03*
Y1059055D03*
G54D13*
X4322835Y814961D02*
Y834646D01*
X4297244Y814961D02*
Y834646D01*
X4271654Y814961D02*
Y834646D01*
X4246063Y814961D02*
Y834646D01*
X4220472Y814961D02*
Y834646D01*
X4194882Y814961D02*
Y834646D01*
X4169291Y814961D02*
Y834646D01*
Y582677D02*
Y602362D01*
X4194882Y582677D02*
Y602362D01*
X4220472Y582677D02*
Y602362D01*
X4246063Y582677D02*
Y602362D01*
X4271654Y582677D02*
Y602362D01*
X4297244Y582677D02*
Y602362D01*
X4322835Y582677D02*
Y602362D01*
X4120079Y785433D02*
X4139764D01*
X4120079Y759843D02*
X4139764D01*
X4120079Y734252D02*
X4139764D01*
X4120079Y708661D02*
X4139764D01*
X4120079Y683071D02*
X4139764D01*
X4120079Y657480D02*
X4139764D01*
X4120079Y631890D02*
X4139764D01*
X4352362D02*
X4372047D01*
X4352362Y657480D02*
X4372047D01*
X4352362Y683071D02*
X4372047D01*
X4352362Y708661D02*
X4372047D01*
X4352362Y734252D02*
X4372047D01*
X4352362Y759843D02*
X4372047D01*
X4352362Y785433D02*
X4372047D01*
G54D14*
X4577725Y350394D02*
X4619125D01*
X4585612Y397638D02*
X4619112D01*
X4601386Y444882D02*
X4619086D01*
X4506898Y350394D02*
X4524598D01*
X4506898Y397638D02*
X4524598D01*
X4506898Y444882D02*
X4524598D01*
G54D15*
X3452756Y1229811D02*
Y1293811D01*
G54D16*
X3406006Y1185561D02*
Y1338061D01*
X3499506Y1185561D02*
Y1338061D01*
G54D17*
X3550242Y1336811D02*
X3575742D01*
X3550242Y1286811D02*
X3575742D01*
X3550242Y1186811D02*
X3575742D01*
X3550242Y1236811D02*
X3575742D01*
X3329770D02*
X3355270D01*
X3329770Y1186811D02*
X3355270D01*
X3329770Y1286811D02*
X3355270D01*
X3329770Y1336811D02*
X3355270D01*
G54D18*
X3649606Y47244D03*
Y118110D03*
X3348386Y1021654D03*
X3419252D03*
Y96457D03*
X3348386D03*
X3118071Y98425D03*
X3047205D03*
G54D19*
X3946850D03*
Y39370D03*
G54D20*
X3798228Y785433D02*
X3808071D01*
X3798228Y765748D02*
X3808071D01*
X3798228Y746063D02*
X3808071D01*
X3798228Y726378D02*
X3808071D01*
X3762795D02*
X3772638D01*
X3762795Y746063D02*
X3772638D01*
X3762795Y765748D02*
X3772638D01*
X3762795Y785433D02*
X3772638D01*
X3798228Y592520D02*
X3808071D01*
X3798228Y572835D02*
X3808071D01*
X3798228Y553150D02*
X3808071D01*
X3798228Y533465D02*
X3808071D01*
X3762795D02*
X3772638D01*
X3762795Y553150D02*
X3772638D01*
X3762795Y572835D02*
X3772638D01*
X3762795Y592520D02*
X3772638D01*
X3798228Y403543D02*
X3808071D01*
X3798228Y383858D02*
X3808071D01*
X3798228Y364173D02*
X3808071D01*
X3798228Y344488D02*
X3808071D01*
X3762795D02*
X3772638D01*
X3762795Y364173D02*
X3772638D01*
X3762795Y383858D02*
X3772638D01*
X3762795Y403543D02*
X3772638D01*
G54D11*
X4546457Y1130326D02*
Y1153926D01*
X4596457Y1130326D02*
Y1153926D01*
X4646457Y1130326D02*
Y1153926D01*
X4546457Y956310D02*
Y979910D01*
X4596457Y956310D02*
Y979910D01*
X4646457Y956310D02*
Y979910D01*
X4458672Y1105118D02*
X4482272D01*
X4458672Y1005118D02*
X4482272D01*
X4710641Y1105118D02*
X4734241D01*
X4710641Y1005118D02*
X4734241D01*
G54D21*
X5358410Y1208661D02*
X5484110D01*
G54D22*
X5344310Y1224561D02*
X5498210D01*
X5344310Y1192761D02*
X5498210D01*
G54D21*
X5358410Y208661D02*
X5484110D01*
G54D22*
X5344310Y224561D02*
X5498210D01*
X5344310Y192761D02*
X5498210D01*
G54D23*
X4902559Y448819D02*
X4920276D01*
X4902559Y423228D02*
X4920276D01*
X4902559Y397638D02*
X4920276D01*
X4827756D02*
X4845472D01*
X4827756Y423228D02*
X4845472D01*
X4827756Y448819D02*
X4845472D01*
X4898622Y1005118D02*
X4916339D01*
X4898622Y979528D02*
X4916339D01*
X4898622Y953937D02*
X4916339D01*
X4973425D02*
X4991142D01*
X4973425Y979528D02*
X4991142D01*
X4973425Y1005118D02*
X4991142D01*
G54D24*
X4105315Y1031496D02*
X4119094D01*
X4034449D02*
X4048228D01*
X4105315Y925197D02*
X4119094D01*
X4034449D02*
X4048228D01*
G54D25*
X3452795Y1238189D02*
Y1285433D01*
G54D10*
X5129921Y2068923D02*
Y2159423D01*
X3637795Y1856314D02*
Y1923214D01*
X5129921Y1856314D02*
Y1923214D01*
X3637795Y2068923D02*
Y2159423D01*
G54D11*
X4293307Y2078740D03*
X4246063D03*
X4198819D03*
G54D10*
X4809081Y1629921D02*
X4899581D01*
G36*
X3657480Y1649606D02*
X3738189D01*
Y1610236D01*
X3618110D01*
Y1730315D01*
X3657480D01*
Y1649606D01*
G37*
G36*
X5149606Y1610236D02*
X5025591D01*
Y1649606D01*
X5110236D01*
Y1730315D01*
X5149606D01*
Y1610236D01*
G37*
G54D10*
X4100419Y1629921D02*
X4190919D01*
X3864199D02*
X3954699D01*
X4572860D02*
X4663360D01*
X4336640D02*
X4427140D01*
G54D11*
X4246063Y2125984D03*
G54D10*
X4809081Y2622047D02*
X4899581D01*
G36*
X3738189Y2602362D02*
X3657480D01*
Y2519685D01*
X3618110D01*
Y2641732D01*
X3738189D01*
Y2602362D01*
G37*
G36*
X5149606Y2641732D02*
Y2519685D01*
X5110236D01*
Y2602362D01*
X5025591D01*
Y2641732D01*
X5149606D01*
G37*
G54D10*
X3864199Y2622047D02*
X3954699D01*
X4572860D02*
X4663360D01*
X4336640D02*
X4427140D01*
X4100419D02*
X4190919D01*
G54D11*
X4198819Y2173228D03*
X4293307Y2125984D03*
X4198819D03*
X4246063Y2173228D03*
G54D10*
X3637795Y2305144D02*
Y2395644D01*
X5129921Y2305144D02*
Y2395644D01*
G54D11*
X4293307Y2173228D03*
G54D12*
X4068898Y2508819D03*
X4112205D03*
Y2549173D03*
X4068898D03*
X4420276Y2562992D03*
X4376969D03*
X4816929Y2464567D03*
X4773622D03*
X4901575D03*
X4858268D03*
X4460630Y1814961D03*
X4417323D03*
X4826772Y2281496D03*
X4783465D03*
X5259843Y2580709D03*
X5216535D03*
X4537402Y2324803D03*
X4580709D03*
X4661417D03*
X4704724D03*
X5070866Y2396850D03*
X5027559D03*
X5259843Y2458661D03*
X5216535D03*
X4498031Y2324803D03*
X4454724D03*
X4411417Y2277559D03*
X4454724D03*
X4704724Y2281496D03*
X4661417D03*
X4078740Y2011811D03*
X4035433D03*
X3244094Y2793307D03*
X3287402D03*
Y2751969D03*
X3244094D03*
X3287402Y2669291D03*
X3244094D03*
X3661417Y2711220D03*
X3618110D03*
X3244094Y2708661D03*
X3287402D03*
X4712598Y1814961D03*
X4669291D03*
X4954724Y1840551D03*
X4998031D03*
X4377953Y1942913D03*
X4334646D03*
X4543307Y1972441D03*
X4586614D03*
X4458661Y2011811D03*
X4501969D03*
X4551181Y2052520D03*
X4507874D03*
X4501969Y1972441D03*
X4458661D03*
X5259843Y1795276D03*
X5216535D03*
X3763780Y2242126D03*
X3807087D03*
X5216535Y1673228D03*
X5259843D03*
X4708661Y1972441D03*
X4665354D03*
Y2011811D03*
X4708661D03*
X4826772Y2324803D03*
X4783465D03*
X4337598Y2317244D03*
X4380906D03*
X4454724Y2153543D03*
X4411417D03*
X4537402Y2194882D03*
X4494094D03*
X4380906Y2440945D03*
X4337598D03*
X4420276Y2523622D03*
X4376969D03*
X4415354Y2052520D03*
X4458661D03*
Y2098425D03*
X4415354D03*
X4162913Y2342520D03*
Y2299213D03*
X4161417Y2531496D03*
Y2488189D03*
X4816929Y2503937D03*
Y2547244D03*
X4730315Y2421260D03*
Y2464567D03*
X4773622Y2503937D03*
Y2547244D03*
X4411417Y2194882D03*
Y2238189D03*
X5216535Y2498031D03*
Y2541339D03*
X4982362Y2506772D03*
Y2463465D03*
X4337598Y2356614D03*
Y2399921D03*
X4942126Y2279764D03*
Y2236457D03*
X4744094Y2281496D03*
Y2324803D03*
X4337598Y2523622D03*
Y2480315D03*
X4622047Y2281496D03*
Y2324803D03*
X4983465Y2279764D03*
Y2236457D03*
X4828740Y1696850D03*
Y1740157D03*
X4911417Y1696850D03*
Y1740157D03*
X5216535Y1712598D03*
Y1755906D03*
X4911417Y1948819D03*
Y1905512D03*
X3618110Y2797835D03*
Y2754528D03*
X3744134Y2711220D03*
Y2754528D03*
X3702795Y2711220D03*
Y2754528D03*
X4161417Y2405512D03*
Y2448819D03*
X4334646Y1901575D03*
Y1858268D03*
X4375984Y1771654D03*
Y1814961D03*
X4204724Y2348425D03*
Y2305118D03*
X4454724Y2194882D03*
Y2238189D03*
X4625984Y2015748D03*
Y1972441D03*
X4419291Y1929134D03*
Y1972441D03*
X4297244Y2348425D03*
Y2305118D03*
X4257874Y2348425D03*
Y2305118D03*
X4870079Y1696850D03*
Y1740157D03*
X4750000Y1972441D03*
Y2015748D03*
X4868110Y2324803D03*
Y2281496D03*
X4483071Y2519685D03*
Y2476378D03*
G54D13*
X4322835Y2232283D02*
Y2251969D01*
X4297244Y2232283D02*
Y2251969D01*
X4271654Y2232283D02*
Y2251969D01*
X4246063Y2232283D02*
Y2251969D01*
X4220472Y2232283D02*
Y2251969D01*
X4194882Y2232283D02*
Y2251969D01*
X4169291Y2232283D02*
Y2251969D01*
Y2000000D02*
Y2019685D01*
X4194882Y2000000D02*
Y2019685D01*
X4220472Y2000000D02*
Y2019685D01*
X4246063Y2000000D02*
Y2019685D01*
X4271654Y2000000D02*
Y2019685D01*
X4297244Y2000000D02*
Y2019685D01*
X4322835Y2000000D02*
Y2019685D01*
X4120079Y2202756D02*
X4139764D01*
X4120079Y2177165D02*
X4139764D01*
X4120079Y2151575D02*
X4139764D01*
X4120079Y2125984D02*
X4139764D01*
X4120079Y2100394D02*
X4139764D01*
X4120079Y2074803D02*
X4139764D01*
X4120079Y2049213D02*
X4139764D01*
X4352362D02*
X4372047D01*
X4352362Y2074803D02*
X4372047D01*
X4352362Y2100394D02*
X4372047D01*
X4352362Y2125984D02*
X4372047D01*
X4352362Y2151575D02*
X4372047D01*
X4352362Y2177165D02*
X4372047D01*
X4352362Y2202756D02*
X4372047D01*
G54D14*
X4577725Y1767717D02*
X4619125D01*
X4585612Y1814961D02*
X4619112D01*
X4601386Y1862205D02*
X4619086D01*
X4506898Y1767717D02*
X4524598D01*
X4506898Y1814961D02*
X4524598D01*
X4506898Y1862205D02*
X4524598D01*
G54D15*
X3452756Y2647134D02*
Y2711134D01*
G54D16*
X3406006Y2602884D02*
Y2755384D01*
X3499506Y2602884D02*
Y2755384D01*
G54D17*
X3550242Y2754134D02*
X3575742D01*
X3550242Y2704134D02*
X3575742D01*
X3550242Y2604134D02*
X3575742D01*
X3550242Y2654134D02*
X3575742D01*
X3329770D02*
X3355270D01*
X3329770Y2604134D02*
X3355270D01*
X3329770Y2704134D02*
X3355270D01*
X3329770Y2754134D02*
X3355270D01*
G54D18*
X3649606Y1464567D03*
Y1535433D03*
X3348386Y2438976D03*
X3419252D03*
Y1513780D03*
X3348386D03*
X3118071Y1515748D03*
X3047205D03*
G54D19*
X3946850D03*
Y1456693D03*
G54D20*
X3798228Y2202756D02*
X3808071D01*
X3798228Y2183071D02*
X3808071D01*
X3798228Y2163386D02*
X3808071D01*
X3798228Y2143701D02*
X3808071D01*
X3762795D02*
X3772638D01*
X3762795Y2163386D02*
X3772638D01*
X3762795Y2183071D02*
X3772638D01*
X3762795Y2202756D02*
X3772638D01*
X3798228Y2009843D02*
X3808071D01*
X3798228Y1990157D02*
X3808071D01*
X3798228Y1970472D02*
X3808071D01*
X3798228Y1950787D02*
X3808071D01*
X3762795D02*
X3772638D01*
X3762795Y1970472D02*
X3772638D01*
X3762795Y1990157D02*
X3772638D01*
X3762795Y2009843D02*
X3772638D01*
X3798228Y1820866D02*
X3808071D01*
X3798228Y1801181D02*
X3808071D01*
X3798228Y1781496D02*
X3808071D01*
X3798228Y1761811D02*
X3808071D01*
X3762795D02*
X3772638D01*
X3762795Y1781496D02*
X3772638D01*
X3762795Y1801181D02*
X3772638D01*
X3762795Y1820866D02*
X3772638D01*
G54D11*
X4546457Y2547649D02*
Y2571249D01*
X4596457Y2547649D02*
Y2571249D01*
X4646457Y2547649D02*
Y2571249D01*
X4546457Y2373633D02*
Y2397233D01*
X4596457Y2373633D02*
Y2397233D01*
X4646457Y2373633D02*
Y2397233D01*
X4458672Y2522441D02*
X4482272D01*
X4458672Y2422441D02*
X4482272D01*
X4710641Y2522441D02*
X4734241D01*
X4710641Y2422441D02*
X4734241D01*
G54D21*
X5358410Y2625984D02*
X5484110D01*
G54D22*
X5344310Y2641884D02*
X5498210D01*
X5344310Y2610084D02*
X5498210D01*
G54D21*
X5358410Y1625984D02*
X5484110D01*
G54D22*
X5344310Y1641884D02*
X5498210D01*
X5344310Y1610084D02*
X5498210D01*
G54D23*
X4902559Y1866142D02*
X4920276D01*
X4902559Y1840551D02*
X4920276D01*
X4902559Y1814961D02*
X4920276D01*
X4827756D02*
X4845472D01*
X4827756Y1840551D02*
X4845472D01*
X4827756Y1866142D02*
X4845472D01*
X4898622Y2422441D02*
X4916339D01*
X4898622Y2396850D02*
X4916339D01*
X4898622Y2371260D02*
X4916339D01*
X4973425D02*
X4991142D01*
X4973425Y2396850D02*
X4991142D01*
X4973425Y2422441D02*
X4991142D01*
G54D24*
X4105315Y2448819D02*
X4119094D01*
X4034449D02*
X4048228D01*
X4105315Y2342520D02*
X4119094D01*
X4034449D02*
X4048228D01*
G54D25*
X3452795Y2655512D02*
Y2702756D01*
G54D10*
X5129921Y3486246D02*
Y3576746D01*
X3637795Y3273636D02*
Y3340537D01*
X5129921Y3273636D02*
Y3340537D01*
X3637795Y3486246D02*
Y3576746D01*
G54D11*
X4293307Y3496063D03*
X4246063D03*
X4198819D03*
G54D10*
X4809081Y3047244D02*
X4899581D01*
G36*
X3657480Y3066929D02*
X3738189D01*
Y3027559D01*
X3618110D01*
Y3147638D01*
X3657480D01*
Y3066929D01*
G37*
G36*
X5149606Y3027559D02*
X5025591D01*
Y3066929D01*
X5110236D01*
Y3147638D01*
X5149606D01*
Y3027559D01*
G37*
G54D10*
X4100419Y3047244D02*
X4190919D01*
X3864199D02*
X3954699D01*
X4572860D02*
X4663360D01*
X4336640D02*
X4427140D01*
G54D11*
X4246063Y3543307D03*
G54D10*
X4809081Y4039370D02*
X4899581D01*
G36*
X3738189Y4019685D02*
X3657480D01*
Y3937008D01*
X3618110D01*
Y4059055D01*
X3738189D01*
Y4019685D01*
G37*
G36*
X5149606Y4059055D02*
Y3937008D01*
X5110236D01*
Y4019685D01*
X5025591D01*
Y4059055D01*
X5149606D01*
G37*
G54D10*
X3864199Y4039370D02*
X3954699D01*
X4572860D02*
X4663360D01*
X4336640D02*
X4427140D01*
X4100419D02*
X4190919D01*
G54D11*
X4198819Y3590551D03*
X4293307Y3543307D03*
X4198819D03*
X4246063Y3590551D03*
G54D10*
X3637795Y3722466D02*
Y3812967D01*
X5129921Y3722466D02*
Y3812967D01*
G54D11*
X4293307Y3590551D03*
G54D12*
X4068898Y3926142D03*
X4112205D03*
Y3966496D03*
X4068898D03*
X4420276Y3980315D03*
X4376969D03*
X4816929Y3881890D03*
X4773622D03*
X4901575D03*
X4858268D03*
X4460630Y3232283D03*
X4417323D03*
X4826772Y3698819D03*
X4783465D03*
X5259843Y3998031D03*
X5216535D03*
X4537402Y3742126D03*
X4580709D03*
X4661417D03*
X4704724D03*
X5070866Y3814173D03*
X5027559D03*
X5259843Y3875984D03*
X5216535D03*
X4498031Y3742126D03*
X4454724D03*
X4411417Y3694882D03*
X4454724D03*
X4704724Y3698819D03*
X4661417D03*
X4078740Y3429134D03*
X4035433D03*
X3244094Y4210630D03*
X3287402D03*
Y4169291D03*
X3244094D03*
X3287402Y4086614D03*
X3244094D03*
X3661417Y4128543D03*
X3618110D03*
X3244094Y4125984D03*
X3287402D03*
X4712598Y3232283D03*
X4669291D03*
X4954724Y3257874D03*
X4998031D03*
X4377953Y3360236D03*
X4334646D03*
X4543307Y3389764D03*
X4586614D03*
X4458661Y3429134D03*
X4501969D03*
X4551181Y3469843D03*
X4507874D03*
X4501969Y3389764D03*
X4458661D03*
X5259843Y3212598D03*
X5216535D03*
X3763780Y3659449D03*
X3807087D03*
X5216535Y3090551D03*
X5259843D03*
X4708661Y3389764D03*
X4665354D03*
Y3429134D03*
X4708661D03*
X4826772Y3742126D03*
X4783465D03*
X4337598Y3734567D03*
X4380906D03*
X4454724Y3570866D03*
X4411417D03*
X4537402Y3612205D03*
X4494094D03*
X4380906Y3858268D03*
X4337598D03*
X4420276Y3940945D03*
X4376969D03*
X4415354Y3469843D03*
X4458661D03*
Y3515748D03*
X4415354D03*
X4162913Y3759843D03*
Y3716535D03*
X4161417Y3948819D03*
Y3905512D03*
X4816929Y3921260D03*
Y3964567D03*
X4730315Y3838583D03*
Y3881890D03*
X4773622Y3921260D03*
Y3964567D03*
X4411417Y3612205D03*
Y3655512D03*
X5216535Y3915354D03*
Y3958661D03*
X4982362Y3924094D03*
Y3880787D03*
X4337598Y3773937D03*
Y3817244D03*
X4942126Y3697087D03*
Y3653780D03*
X4744094Y3698819D03*
Y3742126D03*
X4337598Y3940945D03*
Y3897638D03*
X4622047Y3698819D03*
Y3742126D03*
X4983465Y3697087D03*
Y3653780D03*
X4828740Y3114173D03*
Y3157480D03*
X4911417Y3114173D03*
Y3157480D03*
X5216535Y3129921D03*
Y3173228D03*
X4911417Y3366142D03*
Y3322835D03*
X3618110Y4215157D03*
Y4171850D03*
X3744134Y4128543D03*
Y4171850D03*
X3702795Y4128543D03*
Y4171850D03*
X4161417Y3822835D03*
Y3866142D03*
X4334646Y3318898D03*
Y3275591D03*
X4375984Y3188976D03*
Y3232283D03*
X4204724Y3765748D03*
Y3722441D03*
X4454724Y3612205D03*
Y3655512D03*
X4625984Y3433071D03*
Y3389764D03*
X4419291Y3346457D03*
Y3389764D03*
X4297244Y3765748D03*
Y3722441D03*
X4257874Y3765748D03*
Y3722441D03*
X4870079Y3114173D03*
Y3157480D03*
X4750000Y3389764D03*
Y3433071D03*
X4868110Y3742126D03*
Y3698819D03*
X4483071Y3937008D03*
Y3893701D03*
G54D13*
X4322835Y3649606D02*
Y3669291D01*
X4297244Y3649606D02*
Y3669291D01*
X4271654Y3649606D02*
Y3669291D01*
X4246063Y3649606D02*
Y3669291D01*
X4220472Y3649606D02*
Y3669291D01*
X4194882Y3649606D02*
Y3669291D01*
X4169291Y3649606D02*
Y3669291D01*
Y3417323D02*
Y3437008D01*
X4194882Y3417323D02*
Y3437008D01*
X4220472Y3417323D02*
Y3437008D01*
X4246063Y3417323D02*
Y3437008D01*
X4271654Y3417323D02*
Y3437008D01*
X4297244Y3417323D02*
Y3437008D01*
X4322835Y3417323D02*
Y3437008D01*
X4120079Y3620079D02*
X4139764D01*
X4120079Y3594488D02*
X4139764D01*
X4120079Y3568898D02*
X4139764D01*
X4120079Y3543307D02*
X4139764D01*
X4120079Y3517717D02*
X4139764D01*
X4120079Y3492126D02*
X4139764D01*
X4120079Y3466535D02*
X4139764D01*
X4352362D02*
X4372047D01*
X4352362Y3492126D02*
X4372047D01*
X4352362Y3517717D02*
X4372047D01*
X4352362Y3543307D02*
X4372047D01*
X4352362Y3568898D02*
X4372047D01*
X4352362Y3594488D02*
X4372047D01*
X4352362Y3620079D02*
X4372047D01*
G54D14*
X4577725Y3185039D02*
X4619125D01*
X4585612Y3232283D02*
X4619112D01*
X4601386Y3279528D02*
X4619086D01*
X4506898Y3185039D02*
X4524598D01*
X4506898Y3232283D02*
X4524598D01*
X4506898Y3279528D02*
X4524598D01*
G54D15*
X3452756Y4064457D02*
Y4128457D01*
G54D16*
X3406006Y4020207D02*
Y4172707D01*
X3499506Y4020207D02*
Y4172707D01*
G54D17*
X3550242Y4171457D02*
X3575742D01*
X3550242Y4121457D02*
X3575742D01*
X3550242Y4021457D02*
X3575742D01*
X3550242Y4071457D02*
X3575742D01*
X3329770D02*
X3355270D01*
X3329770Y4021457D02*
X3355270D01*
X3329770Y4121457D02*
X3355270D01*
X3329770Y4171457D02*
X3355270D01*
G54D18*
X3649606Y2881890D03*
Y2952756D03*
X3348386Y3856299D03*
X3419252D03*
Y2931102D03*
X3348386D03*
X3118071Y2933071D03*
X3047205D03*
G54D19*
X3946850D03*
Y2874016D03*
G54D20*
X3798228Y3620079D02*
X3808071D01*
X3798228Y3600394D02*
X3808071D01*
X3798228Y3580709D02*
X3808071D01*
X3798228Y3561024D02*
X3808071D01*
X3762795D02*
X3772638D01*
X3762795Y3580709D02*
X3772638D01*
X3762795Y3600394D02*
X3772638D01*
X3762795Y3620079D02*
X3772638D01*
X3798228Y3427165D02*
X3808071D01*
X3798228Y3407480D02*
X3808071D01*
X3798228Y3387795D02*
X3808071D01*
X3798228Y3368110D02*
X3808071D01*
X3762795D02*
X3772638D01*
X3762795Y3387795D02*
X3772638D01*
X3762795Y3407480D02*
X3772638D01*
X3762795Y3427165D02*
X3772638D01*
X3798228Y3238189D02*
X3808071D01*
X3798228Y3218504D02*
X3808071D01*
X3798228Y3198819D02*
X3808071D01*
X3798228Y3179134D02*
X3808071D01*
X3762795D02*
X3772638D01*
X3762795Y3198819D02*
X3772638D01*
X3762795Y3218504D02*
X3772638D01*
X3762795Y3238189D02*
X3772638D01*
G54D11*
X4546457Y3964972D02*
Y3988572D01*
X4596457Y3964972D02*
Y3988572D01*
X4646457Y3964972D02*
Y3988572D01*
X4546457Y3790956D02*
Y3814556D01*
X4596457Y3790956D02*
Y3814556D01*
X4646457Y3790956D02*
Y3814556D01*
X4458672Y3939764D02*
X4482272D01*
X4458672Y3839764D02*
X4482272D01*
X4710641Y3939764D02*
X4734241D01*
X4710641Y3839764D02*
X4734241D01*
G54D21*
X5358410Y4043307D02*
X5484110D01*
G54D22*
X5344310Y4059207D02*
X5498210D01*
X5344310Y4027407D02*
X5498210D01*
G54D21*
X5358410Y3043307D02*
X5484110D01*
G54D22*
X5344310Y3059207D02*
X5498210D01*
X5344310Y3027407D02*
X5498210D01*
G54D23*
X4902559Y3283465D02*
X4920276D01*
X4902559Y3257874D02*
X4920276D01*
X4902559Y3232283D02*
X4920276D01*
X4827756D02*
X4845472D01*
X4827756Y3257874D02*
X4845472D01*
X4827756Y3283465D02*
X4845472D01*
X4898622Y3839764D02*
X4916339D01*
X4898622Y3814173D02*
X4916339D01*
X4898622Y3788583D02*
X4916339D01*
X4973425D02*
X4991142D01*
X4973425Y3814173D02*
X4991142D01*
X4973425Y3839764D02*
X4991142D01*
G54D24*
X4105315Y3866142D02*
X4119094D01*
X4034449D02*
X4048228D01*
X4105315Y3759843D02*
X4119094D01*
X4034449D02*
X4048228D01*
G54D25*
X3452795Y4072835D02*
Y4120079D01*
G54D10*
X5129921Y4903569D02*
Y4994069D01*
X3637795Y4690959D02*
Y4757860D01*
X5129921Y4690959D02*
Y4757860D01*
X3637795Y4903569D02*
Y4994069D01*
G54D11*
X4293307Y4913386D03*
X4246063D03*
X4198819D03*
G54D10*
X4809081Y4464567D02*
X4899581D01*
G36*
X3657480Y4484252D02*
X3738189D01*
Y4444882D01*
X3618110D01*
Y4564961D01*
X3657480D01*
Y4484252D01*
G37*
G36*
X5149606Y4444882D02*
X5025591D01*
Y4484252D01*
X5110236D01*
Y4564961D01*
X5149606D01*
Y4444882D01*
G37*
G54D10*
X4100419Y4464567D02*
X4190919D01*
X3864199D02*
X3954699D01*
X4572860D02*
X4663360D01*
X4336640D02*
X4427140D01*
G54D11*
X4246063Y4960630D03*
G54D10*
X4809081Y5456693D02*
X4899581D01*
G36*
X3738189Y5437008D02*
X3657480D01*
Y5354331D01*
X3618110D01*
Y5476378D01*
X3738189D01*
Y5437008D01*
G37*
G36*
X5149606Y5476378D02*
Y5354331D01*
X5110236D01*
Y5437008D01*
X5025591D01*
Y5476378D01*
X5149606D01*
G37*
G54D10*
X3864199Y5456693D02*
X3954699D01*
X4572860D02*
X4663360D01*
X4336640D02*
X4427140D01*
X4100419D02*
X4190919D01*
G54D11*
X4198819Y5007874D03*
X4293307Y4960630D03*
X4198819D03*
X4246063Y5007874D03*
G54D10*
X3637795Y5139789D02*
Y5230290D01*
X5129921Y5139789D02*
Y5230290D01*
G54D11*
X4293307Y5007874D03*
G54D12*
X4068898Y5343465D03*
X4112205D03*
Y5383819D03*
X4068898D03*
X4420276Y5397638D03*
X4376969D03*
X4816929Y5299213D03*
X4773622D03*
X4901575D03*
X4858268D03*
X4460630Y4649606D03*
X4417323D03*
X4826772Y5116142D03*
X4783465D03*
X5259843Y5415354D03*
X5216535D03*
X4537402Y5159449D03*
X4580709D03*
X4661417D03*
X4704724D03*
X5070866Y5231496D03*
X5027559D03*
X5259843Y5293307D03*
X5216535D03*
X4498031Y5159449D03*
X4454724D03*
X4411417Y5112205D03*
X4454724D03*
X4704724Y5116142D03*
X4661417D03*
X4078740Y4846457D03*
X4035433D03*
X3244094Y5627953D03*
X3287402D03*
Y5586614D03*
X3244094D03*
X3287402Y5503937D03*
X3244094D03*
X3661417Y5545866D03*
X3618110D03*
X3244094Y5543307D03*
X3287402D03*
X4712598Y4649606D03*
X4669291D03*
X4954724Y4675197D03*
X4998031D03*
X4377953Y4777559D03*
X4334646D03*
X4543307Y4807087D03*
X4586614D03*
X4458661Y4846457D03*
X4501969D03*
X4551181Y4887165D03*
X4507874D03*
X4501969Y4807087D03*
X4458661D03*
X5259843Y4629921D03*
X5216535D03*
X3763780Y5076772D03*
X3807087D03*
X5216535Y4507874D03*
X5259843D03*
X4708661Y4807087D03*
X4665354D03*
Y4846457D03*
X4708661D03*
X4826772Y5159449D03*
X4783465D03*
X4337598Y5151890D03*
X4380906D03*
X4454724Y4988189D03*
X4411417D03*
X4537402Y5029528D03*
X4494094D03*
X4380906Y5275591D03*
X4337598D03*
X4420276Y5358268D03*
X4376969D03*
X4415354Y4887165D03*
X4458661D03*
Y4933071D03*
X4415354D03*
X4162913Y5177165D03*
Y5133858D03*
X4161417Y5366142D03*
Y5322835D03*
X4816929Y5338583D03*
Y5381890D03*
X4730315Y5255906D03*
Y5299213D03*
X4773622Y5338583D03*
Y5381890D03*
X4411417Y5029528D03*
Y5072835D03*
X5216535Y5332677D03*
Y5375984D03*
X4982362Y5341417D03*
Y5298110D03*
X4337598Y5191260D03*
Y5234567D03*
X4942126Y5114409D03*
Y5071102D03*
X4744094Y5116142D03*
Y5159449D03*
X4337598Y5358268D03*
Y5314961D03*
X4622047Y5116142D03*
Y5159449D03*
X4983465Y5114409D03*
Y5071102D03*
X4828740Y4531496D03*
Y4574803D03*
X4911417Y4531496D03*
Y4574803D03*
X5216535Y4547244D03*
Y4590551D03*
X4911417Y4783465D03*
Y4740157D03*
X3618110Y5632480D03*
Y5589173D03*
X3744134Y5545866D03*
Y5589173D03*
X3702795Y5545866D03*
Y5589173D03*
X4161417Y5240157D03*
Y5283465D03*
X4334646Y4736220D03*
Y4692913D03*
X4375984Y4606299D03*
Y4649606D03*
X4204724Y5183071D03*
Y5139764D03*
X4454724Y5029528D03*
Y5072835D03*
X4625984Y4850394D03*
Y4807087D03*
X4419291Y4763780D03*
Y4807087D03*
X4297244Y5183071D03*
Y5139764D03*
X4257874Y5183071D03*
Y5139764D03*
X4870079Y4531496D03*
Y4574803D03*
X4750000Y4807087D03*
Y4850394D03*
X4868110Y5159449D03*
Y5116142D03*
X4483071Y5354331D03*
Y5311024D03*
G54D13*
X4322835Y5066929D02*
Y5086614D01*
X4297244Y5066929D02*
Y5086614D01*
X4271654Y5066929D02*
Y5086614D01*
X4246063Y5066929D02*
Y5086614D01*
X4220472Y5066929D02*
Y5086614D01*
X4194882Y5066929D02*
Y5086614D01*
X4169291Y5066929D02*
Y5086614D01*
Y4834646D02*
Y4854331D01*
X4194882Y4834646D02*
Y4854331D01*
X4220472Y4834646D02*
Y4854331D01*
X4246063Y4834646D02*
Y4854331D01*
X4271654Y4834646D02*
Y4854331D01*
X4297244Y4834646D02*
Y4854331D01*
X4322835Y4834646D02*
Y4854331D01*
X4120079Y5037402D02*
X4139764D01*
X4120079Y5011811D02*
X4139764D01*
X4120079Y4986220D02*
X4139764D01*
X4120079Y4960630D02*
X4139764D01*
X4120079Y4935039D02*
X4139764D01*
X4120079Y4909449D02*
X4139764D01*
X4120079Y4883858D02*
X4139764D01*
X4352362D02*
X4372047D01*
X4352362Y4909449D02*
X4372047D01*
X4352362Y4935039D02*
X4372047D01*
X4352362Y4960630D02*
X4372047D01*
X4352362Y4986220D02*
X4372047D01*
X4352362Y5011811D02*
X4372047D01*
X4352362Y5037402D02*
X4372047D01*
G54D14*
X4577725Y4602362D02*
X4619125D01*
X4585612Y4649606D02*
X4619112D01*
X4601386Y4696850D02*
X4619086D01*
X4506898Y4602362D02*
X4524598D01*
X4506898Y4649606D02*
X4524598D01*
X4506898Y4696850D02*
X4524598D01*
G54D15*
X3452756Y5481780D02*
Y5545780D01*
G54D16*
X3406006Y5437530D02*
Y5590030D01*
X3499506Y5437530D02*
Y5590030D01*
G54D17*
X3550242Y5588780D02*
X3575742D01*
X3550242Y5538780D02*
X3575742D01*
X3550242Y5438780D02*
X3575742D01*
X3550242Y5488780D02*
X3575742D01*
X3329770D02*
X3355270D01*
X3329770Y5438780D02*
X3355270D01*
X3329770Y5538780D02*
X3355270D01*
X3329770Y5588780D02*
X3355270D01*
G54D18*
X3649606Y4299213D03*
Y4370079D03*
X3348386Y5273622D03*
X3419252D03*
Y4348425D03*
X3348386D03*
X3118071Y4350394D03*
X3047205D03*
G54D19*
X3946850D03*
Y4291339D03*
G54D20*
X3798228Y5037402D02*
X3808071D01*
X3798228Y5017717D02*
X3808071D01*
X3798228Y4998031D02*
X3808071D01*
X3798228Y4978346D02*
X3808071D01*
X3762795D02*
X3772638D01*
X3762795Y4998031D02*
X3772638D01*
X3762795Y5017717D02*
X3772638D01*
X3762795Y5037402D02*
X3772638D01*
X3798228Y4844488D02*
X3808071D01*
X3798228Y4824803D02*
X3808071D01*
X3798228Y4805118D02*
X3808071D01*
X3798228Y4785433D02*
X3808071D01*
X3762795D02*
X3772638D01*
X3762795Y4805118D02*
X3772638D01*
X3762795Y4824803D02*
X3772638D01*
X3762795Y4844488D02*
X3772638D01*
X3798228Y4655512D02*
X3808071D01*
X3798228Y4635827D02*
X3808071D01*
X3798228Y4616142D02*
X3808071D01*
X3798228Y4596457D02*
X3808071D01*
X3762795D02*
X3772638D01*
X3762795Y4616142D02*
X3772638D01*
X3762795Y4635827D02*
X3772638D01*
X3762795Y4655512D02*
X3772638D01*
G54D11*
X4546457Y5382294D02*
Y5405894D01*
X4596457Y5382294D02*
Y5405894D01*
X4646457Y5382294D02*
Y5405894D01*
X4546457Y5208279D02*
Y5231879D01*
X4596457Y5208279D02*
Y5231879D01*
X4646457Y5208279D02*
Y5231879D01*
X4458672Y5357087D02*
X4482272D01*
X4458672Y5257087D02*
X4482272D01*
X4710641Y5357087D02*
X4734241D01*
X4710641Y5257087D02*
X4734241D01*
G54D21*
X5358410Y5460630D02*
X5484110D01*
G54D22*
X5344310Y5476530D02*
X5498210D01*
X5344310Y5444730D02*
X5498210D01*
G54D21*
X5358410Y4460630D02*
X5484110D01*
G54D22*
X5344310Y4476530D02*
X5498210D01*
X5344310Y4444730D02*
X5498210D01*
G54D23*
X4902559Y4700787D02*
X4920276D01*
X4902559Y4675197D02*
X4920276D01*
X4902559Y4649606D02*
X4920276D01*
X4827756D02*
X4845472D01*
X4827756Y4675197D02*
X4845472D01*
X4827756Y4700787D02*
X4845472D01*
X4898622Y5257087D02*
X4916339D01*
X4898622Y5231496D02*
X4916339D01*
X4898622Y5205906D02*
X4916339D01*
X4973425D02*
X4991142D01*
X4973425Y5231496D02*
X4991142D01*
X4973425Y5257087D02*
X4991142D01*
G54D24*
X4105315Y5283465D02*
X4119094D01*
X4034449D02*
X4048228D01*
X4105315Y5177165D02*
X4119094D01*
X4034449D02*
X4048228D01*
G54D25*
X3452795Y5490157D02*
Y5537402D01*
G54D10*
X5129921Y6320892D02*
Y6411392D01*
X3637795Y6108282D02*
Y6175182D01*
X5129921Y6108282D02*
Y6175182D01*
X3637795Y6320892D02*
Y6411392D01*
G54D11*
X4293307Y6330709D03*
X4246063D03*
X4198819D03*
G54D10*
X4809081Y5881890D02*
X4899581D01*
G36*
X3657480Y5901575D02*
X3738189D01*
Y5862205D01*
X3618110D01*
Y5982283D01*
X3657480D01*
Y5901575D01*
G37*
G36*
X5149606Y5862205D02*
X5025591D01*
Y5901575D01*
X5110236D01*
Y5982283D01*
X5149606D01*
Y5862205D01*
G37*
G54D10*
X4100419Y5881890D02*
X4190919D01*
X3864199D02*
X3954699D01*
X4572860D02*
X4663360D01*
X4336640D02*
X4427140D01*
G54D11*
X4246063Y6377953D03*
G54D10*
X4809081Y6874016D02*
X4899581D01*
G36*
X3738189Y6854331D02*
X3657480D01*
Y6771654D01*
X3618110D01*
Y6893701D01*
X3738189D01*
Y6854331D01*
G37*
G36*
X5149606Y6893701D02*
Y6771654D01*
X5110236D01*
Y6854331D01*
X5025591D01*
Y6893701D01*
X5149606D01*
G37*
G54D10*
X3864199Y6874016D02*
X3954699D01*
X4572860D02*
X4663360D01*
X4336640D02*
X4427140D01*
X4100419D02*
X4190919D01*
G54D11*
X4198819Y6425197D03*
X4293307Y6377953D03*
X4198819D03*
X4246063Y6425197D03*
G54D10*
X3637795Y6557112D02*
Y6647612D01*
X5129921Y6557112D02*
Y6647612D01*
G54D11*
X4293307Y6425197D03*
G54D12*
X4068898Y6760787D03*
X4112205D03*
Y6801142D03*
X4068898D03*
X4420276Y6814961D03*
X4376969D03*
X4816929Y6716535D03*
X4773622D03*
X4901575D03*
X4858268D03*
X4460630Y6066929D03*
X4417323D03*
X4826772Y6533465D03*
X4783465D03*
X5259843Y6832677D03*
X5216535D03*
X4537402Y6576772D03*
X4580709D03*
X4661417D03*
X4704724D03*
X5070866Y6648819D03*
X5027559D03*
X5259843Y6710630D03*
X5216535D03*
X4498031Y6576772D03*
X4454724D03*
X4411417Y6529528D03*
X4454724D03*
X4704724Y6533465D03*
X4661417D03*
X4078740Y6263780D03*
X4035433D03*
X3244094Y7045276D03*
X3287402D03*
Y7003937D03*
X3244094D03*
X3287402Y6921260D03*
X3244094D03*
X3661417Y6963189D03*
X3618110D03*
X3244094Y6960630D03*
X3287402D03*
X4712598Y6066929D03*
X4669291D03*
X4954724Y6092520D03*
X4998031D03*
X4377953Y6194882D03*
X4334646D03*
X4543307Y6224409D03*
X4586614D03*
X4458661Y6263780D03*
X4501969D03*
X4551181Y6304488D03*
X4507874D03*
X4501969Y6224409D03*
X4458661D03*
X5259843Y6047244D03*
X5216535D03*
X3763780Y6494094D03*
X3807087D03*
X5216535Y5925197D03*
X5259843D03*
X4708661Y6224409D03*
X4665354D03*
Y6263780D03*
X4708661D03*
X4826772Y6576772D03*
X4783465D03*
X4337598Y6569213D03*
X4380906D03*
X4454724Y6405512D03*
X4411417D03*
X4537402Y6446850D03*
X4494094D03*
X4380906Y6692913D03*
X4337598D03*
X4420276Y6775591D03*
X4376969D03*
X4415354Y6304488D03*
X4458661D03*
Y6350394D03*
X4415354D03*
X4162913Y6594488D03*
Y6551181D03*
X4161417Y6783465D03*
Y6740157D03*
X4816929Y6755906D03*
Y6799213D03*
X4730315Y6673228D03*
Y6716535D03*
X4773622Y6755906D03*
Y6799213D03*
X4411417Y6446850D03*
Y6490157D03*
X5216535Y6750000D03*
Y6793307D03*
X4982362Y6758740D03*
Y6715433D03*
X4337598Y6608583D03*
Y6651890D03*
X4942126Y6531732D03*
Y6488425D03*
X4744094Y6533465D03*
Y6576772D03*
X4337598Y6775591D03*
Y6732283D03*
X4622047Y6533465D03*
Y6576772D03*
X4983465Y6531732D03*
Y6488425D03*
X4828740Y5948819D03*
Y5992126D03*
X4911417Y5948819D03*
Y5992126D03*
X5216535Y5964567D03*
Y6007874D03*
X4911417Y6200787D03*
Y6157480D03*
X3618110Y7049803D03*
Y7006496D03*
X3744134Y6963189D03*
Y7006496D03*
X3702795Y6963189D03*
Y7006496D03*
X4161417Y6657480D03*
Y6700787D03*
X4334646Y6153543D03*
Y6110236D03*
X4375984Y6023622D03*
Y6066929D03*
X4204724Y6600394D03*
Y6557087D03*
X4454724Y6446850D03*
Y6490157D03*
X4625984Y6267717D03*
Y6224409D03*
X4419291Y6181102D03*
Y6224409D03*
X4297244Y6600394D03*
Y6557087D03*
X4257874Y6600394D03*
Y6557087D03*
X4870079Y5948819D03*
Y5992126D03*
X4750000Y6224409D03*
Y6267717D03*
X4868110Y6576772D03*
Y6533465D03*
X4483071Y6771654D03*
Y6728346D03*
G54D13*
X4322835Y6484252D02*
Y6503937D01*
X4297244Y6484252D02*
Y6503937D01*
X4271654Y6484252D02*
Y6503937D01*
X4246063Y6484252D02*
Y6503937D01*
X4220472Y6484252D02*
Y6503937D01*
X4194882Y6484252D02*
Y6503937D01*
X4169291Y6484252D02*
Y6503937D01*
Y6251969D02*
Y6271654D01*
X4194882Y6251969D02*
Y6271654D01*
X4220472Y6251969D02*
Y6271654D01*
X4246063Y6251969D02*
Y6271654D01*
X4271654Y6251969D02*
Y6271654D01*
X4297244Y6251969D02*
Y6271654D01*
X4322835Y6251969D02*
Y6271654D01*
X4120079Y6454724D02*
X4139764D01*
X4120079Y6429134D02*
X4139764D01*
X4120079Y6403543D02*
X4139764D01*
X4120079Y6377953D02*
X4139764D01*
X4120079Y6352362D02*
X4139764D01*
X4120079Y6326772D02*
X4139764D01*
X4120079Y6301181D02*
X4139764D01*
X4352362D02*
X4372047D01*
X4352362Y6326772D02*
X4372047D01*
X4352362Y6352362D02*
X4372047D01*
X4352362Y6377953D02*
X4372047D01*
X4352362Y6403543D02*
X4372047D01*
X4352362Y6429134D02*
X4372047D01*
X4352362Y6454724D02*
X4372047D01*
G54D14*
X4577725Y6019685D02*
X4619125D01*
X4585612Y6066929D02*
X4619112D01*
X4601386Y6114173D02*
X4619086D01*
X4506898Y6019685D02*
X4524598D01*
X4506898Y6066929D02*
X4524598D01*
X4506898Y6114173D02*
X4524598D01*
G54D15*
X3452756Y6899102D02*
Y6963102D01*
G54D16*
X3406006Y6854852D02*
Y7007352D01*
X3499506Y6854852D02*
Y7007352D01*
G54D17*
X3550242Y7006102D02*
X3575742D01*
X3550242Y6956102D02*
X3575742D01*
X3550242Y6856102D02*
X3575742D01*
X3550242Y6906102D02*
X3575742D01*
X3329770D02*
X3355270D01*
X3329770Y6856102D02*
X3355270D01*
X3329770Y6956102D02*
X3355270D01*
X3329770Y7006102D02*
X3355270D01*
G54D18*
X3649606Y5716535D03*
Y5787402D03*
X3348386Y6690945D03*
X3419252D03*
Y5765748D03*
X3348386D03*
X3118071Y5767717D03*
X3047205D03*
G54D19*
X3946850D03*
Y5708661D03*
G54D20*
X3798228Y6454724D02*
X3808071D01*
X3798228Y6435039D02*
X3808071D01*
X3798228Y6415354D02*
X3808071D01*
X3798228Y6395669D02*
X3808071D01*
X3762795D02*
X3772638D01*
X3762795Y6415354D02*
X3772638D01*
X3762795Y6435039D02*
X3772638D01*
X3762795Y6454724D02*
X3772638D01*
X3798228Y6261811D02*
X3808071D01*
X3798228Y6242126D02*
X3808071D01*
X3798228Y6222441D02*
X3808071D01*
X3798228Y6202756D02*
X3808071D01*
X3762795D02*
X3772638D01*
X3762795Y6222441D02*
X3772638D01*
X3762795Y6242126D02*
X3772638D01*
X3762795Y6261811D02*
X3772638D01*
X3798228Y6072835D02*
X3808071D01*
X3798228Y6053150D02*
X3808071D01*
X3798228Y6033465D02*
X3808071D01*
X3798228Y6013780D02*
X3808071D01*
X3762795D02*
X3772638D01*
X3762795Y6033465D02*
X3772638D01*
X3762795Y6053150D02*
X3772638D01*
X3762795Y6072835D02*
X3772638D01*
G54D11*
X4546457Y6799617D02*
Y6823217D01*
X4596457Y6799617D02*
Y6823217D01*
X4646457Y6799617D02*
Y6823217D01*
X4546457Y6625602D02*
Y6649202D01*
X4596457Y6625602D02*
Y6649202D01*
X4646457Y6625602D02*
Y6649202D01*
X4458672Y6774409D02*
X4482272D01*
X4458672Y6674409D02*
X4482272D01*
X4710641Y6774409D02*
X4734241D01*
X4710641Y6674409D02*
X4734241D01*
G54D21*
X5358410Y6877953D02*
X5484110D01*
G54D22*
X5344310Y6893853D02*
X5498210D01*
X5344310Y6862053D02*
X5498210D01*
G54D21*
X5358410Y5877953D02*
X5484110D01*
G54D22*
X5344310Y5893853D02*
X5498210D01*
X5344310Y5862053D02*
X5498210D01*
G54D23*
X4902559Y6118110D02*
X4920276D01*
X4902559Y6092520D02*
X4920276D01*
X4902559Y6066929D02*
X4920276D01*
X4827756D02*
X4845472D01*
X4827756Y6092520D02*
X4845472D01*
X4827756Y6118110D02*
X4845472D01*
X4898622Y6674409D02*
X4916339D01*
X4898622Y6648819D02*
X4916339D01*
X4898622Y6623228D02*
X4916339D01*
X4973425D02*
X4991142D01*
X4973425Y6648819D02*
X4991142D01*
X4973425Y6674409D02*
X4991142D01*
G54D24*
X4105315Y6700787D02*
X4119094D01*
X4034449D02*
X4048228D01*
X4105315Y6594488D02*
X4119094D01*
X4034449D02*
X4048228D01*
G54D25*
X3452795Y6907480D02*
Y6954724D01*
G54D10*
X7688976Y651600D02*
Y742101D01*
X6196850Y438991D02*
Y505891D01*
X7688976Y438991D02*
Y505891D01*
X6196850Y651600D02*
Y742101D01*
G54D11*
X6852362Y661417D03*
X6805118D03*
X6757874D03*
G54D10*
X7368136Y212598D02*
X7458636D01*
G36*
X6216535Y232283D02*
X6297244D01*
Y192913D01*
X6177165D01*
Y312992D01*
X6216535D01*
Y232283D01*
G37*
G36*
X7708661Y192913D02*
X7584646D01*
Y232283D01*
X7669291D01*
Y312992D01*
X7708661D01*
Y192913D01*
G37*
G54D10*
X6659474Y212598D02*
X6749975D01*
X6423254D02*
X6513754D01*
X7131915D02*
X7222416D01*
X6895695D02*
X6986195D01*
G54D11*
X6805118Y708661D03*
G54D10*
X7368136Y1204724D02*
X7458636D01*
G36*
X6297244Y1185039D02*
X6216535D01*
Y1102362D01*
X6177165D01*
Y1224409D01*
X6297244D01*
Y1185039D01*
G37*
G36*
X7708661Y1224409D02*
Y1102362D01*
X7669291D01*
Y1185039D01*
X7584646D01*
Y1224409D01*
X7708661D01*
G37*
G54D10*
X6423254Y1204724D02*
X6513754D01*
X7131915D02*
X7222416D01*
X6895695D02*
X6986195D01*
X6659474D02*
X6749975D01*
G54D11*
X6757874Y755906D03*
X6852362Y708661D03*
X6757874D03*
X6805118Y755906D03*
G54D10*
X6196850Y887821D02*
Y978321D01*
X7688976Y887821D02*
Y978321D01*
G54D11*
X6852362Y755906D03*
G54D12*
X6627953Y1091496D03*
X6671260D03*
Y1131850D03*
X6627953D03*
X6979331Y1145669D03*
X6936024D03*
X7375984Y1047244D03*
X7332677D03*
X7460630D03*
X7417323D03*
X7019685Y397638D03*
X6976378D03*
X7385827Y864173D03*
X7342520D03*
X7818898Y1163386D03*
X7775591D03*
X7096457Y907480D03*
X7139764D03*
X7220472D03*
X7263780D03*
X7629921Y979528D03*
X7586614D03*
X7818898Y1041339D03*
X7775591D03*
X7057087Y907480D03*
X7013780D03*
X6970472Y860236D03*
X7013780D03*
X7263780Y864173D03*
X7220472D03*
X6637795Y594488D03*
X6594488D03*
X5803150Y1375984D03*
X5846457D03*
Y1334646D03*
X5803150D03*
X5846457Y1251969D03*
X5803150D03*
X6220472Y1293898D03*
X6177165D03*
X5803150Y1291339D03*
X5846457D03*
X7271654Y397638D03*
X7228346D03*
X7513780Y423228D03*
X7557087D03*
X6937008Y525591D03*
X6893701D03*
X7102362Y555118D03*
X7145669D03*
X7017717Y594488D03*
X7061024D03*
X7110236Y635197D03*
X7066929D03*
X7061024Y555118D03*
X7017717D03*
X7818898Y377953D03*
X7775591D03*
X6322835Y824803D03*
X6366142D03*
X7775591Y255906D03*
X7818898D03*
X7267717Y555118D03*
X7224409D03*
Y594488D03*
X7267717D03*
X7385827Y907480D03*
X7342520D03*
X6896654Y899921D03*
X6939961D03*
X7013780Y736220D03*
X6970472D03*
X7096457Y777559D03*
X7053150D03*
X6939961Y1023622D03*
X6896654D03*
X6979331Y1106299D03*
X6936024D03*
X6974409Y635197D03*
X7017717D03*
Y681102D03*
X6974409D03*
X6721969Y925197D03*
Y881890D03*
X6720472Y1114173D03*
Y1070866D03*
X7375984Y1086614D03*
Y1129921D03*
X7289370Y1003937D03*
Y1047244D03*
X7332677Y1086614D03*
Y1129921D03*
X6970472Y777559D03*
Y820866D03*
X7775591Y1080709D03*
Y1124016D03*
X7541417Y1089449D03*
Y1046142D03*
X6896654Y939291D03*
Y982598D03*
X7501181Y862441D03*
Y819134D03*
X7303150Y864173D03*
Y907480D03*
X6896654Y1106299D03*
Y1062992D03*
X7181102Y864173D03*
Y907480D03*
X7542520Y862441D03*
Y819134D03*
X7387795Y279528D03*
Y322835D03*
X7470472Y279528D03*
Y322835D03*
X7775591Y295276D03*
Y338583D03*
X7470472Y531496D03*
Y488189D03*
X6177165Y1380512D03*
Y1337205D03*
X6303189Y1293898D03*
Y1337205D03*
X6261850Y1293898D03*
Y1337205D03*
X6720472Y988189D03*
Y1031496D03*
X6893701Y484252D03*
Y440945D03*
X6935039Y354331D03*
Y397638D03*
X6763780Y931102D03*
Y887795D03*
X7013780Y777559D03*
Y820866D03*
X7185039Y598425D03*
Y555118D03*
X6978346Y511811D03*
Y555118D03*
X6856299Y931102D03*
Y887795D03*
X6816929Y931102D03*
Y887795D03*
X7429134Y279528D03*
Y322835D03*
X7309055Y555118D03*
Y598425D03*
X7427165Y907480D03*
Y864173D03*
X7042126Y1102362D03*
Y1059055D03*
G54D13*
X6881890Y814961D02*
Y834646D01*
X6856299Y814961D02*
Y834646D01*
X6830709Y814961D02*
Y834646D01*
X6805118Y814961D02*
Y834646D01*
X6779528Y814961D02*
Y834646D01*
X6753937Y814961D02*
Y834646D01*
X6728346Y814961D02*
Y834646D01*
Y582677D02*
Y602362D01*
X6753937Y582677D02*
Y602362D01*
X6779528Y582677D02*
Y602362D01*
X6805118Y582677D02*
Y602362D01*
X6830709Y582677D02*
Y602362D01*
X6856299Y582677D02*
Y602362D01*
X6881890Y582677D02*
Y602362D01*
X6679134Y785433D02*
X6698819D01*
X6679134Y759843D02*
X6698819D01*
X6679134Y734252D02*
X6698819D01*
X6679134Y708661D02*
X6698819D01*
X6679134Y683071D02*
X6698819D01*
X6679134Y657480D02*
X6698819D01*
X6679134Y631890D02*
X6698819D01*
X6911417D02*
X6931102D01*
X6911417Y657480D02*
X6931102D01*
X6911417Y683071D02*
X6931102D01*
X6911417Y708661D02*
X6931102D01*
X6911417Y734252D02*
X6931102D01*
X6911417Y759843D02*
X6931102D01*
X6911417Y785433D02*
X6931102D01*
G54D14*
X7136781Y350394D02*
X7178180D01*
X7144668Y397638D02*
X7178167D01*
X7160442Y444882D02*
X7178141D01*
X7065953Y350394D02*
X7083653D01*
X7065953Y397638D02*
X7083653D01*
X7065953Y444882D02*
X7083653D01*
G54D15*
X6011811Y1229811D02*
Y1293811D01*
G54D16*
X5965061Y1185561D02*
Y1338061D01*
X6058561Y1185561D02*
Y1338061D01*
G54D17*
X6109297Y1336811D02*
X6134797D01*
X6109297Y1286811D02*
X6134797D01*
X6109297Y1186811D02*
X6134797D01*
X6109297Y1236811D02*
X6134797D01*
X5888825D02*
X5914325D01*
X5888825Y1186811D02*
X5914325D01*
X5888825Y1286811D02*
X5914325D01*
X5888825Y1336811D02*
X5914325D01*
G54D18*
X6208661Y47244D03*
Y118110D03*
X5907441Y1021654D03*
X5978307D03*
Y96457D03*
X5907441D03*
X5677126Y98425D03*
X5606260D03*
G54D19*
X6505906D03*
Y39370D03*
G54D20*
X6357283Y785433D02*
X6367126D01*
X6357283Y765748D02*
X6367126D01*
X6357283Y746063D02*
X6367126D01*
X6357283Y726378D02*
X6367126D01*
X6321850D02*
X6331693D01*
X6321850Y746063D02*
X6331693D01*
X6321850Y765748D02*
X6331693D01*
X6321850Y785433D02*
X6331693D01*
X6357283Y592520D02*
X6367126D01*
X6357283Y572835D02*
X6367126D01*
X6357283Y553150D02*
X6367126D01*
X6357283Y533465D02*
X6367126D01*
X6321850D02*
X6331693D01*
X6321850Y553150D02*
X6331693D01*
X6321850Y572835D02*
X6331693D01*
X6321850Y592520D02*
X6331693D01*
X6357283Y403543D02*
X6367126D01*
X6357283Y383858D02*
X6367126D01*
X6357283Y364173D02*
X6367126D01*
X6357283Y344488D02*
X6367126D01*
X6321850D02*
X6331693D01*
X6321850Y364173D02*
X6331693D01*
X6321850Y383858D02*
X6331693D01*
X6321850Y403543D02*
X6331693D01*
G54D11*
X7105512Y1130326D02*
Y1153926D01*
X7155512Y1130326D02*
Y1153926D01*
X7205512Y1130326D02*
Y1153926D01*
X7105512Y956310D02*
Y979910D01*
X7155512Y956310D02*
Y979910D01*
X7205512Y956310D02*
Y979910D01*
X7017728Y1105118D02*
X7041328D01*
X7017728Y1005118D02*
X7041328D01*
X7269696Y1105118D02*
X7293296D01*
X7269696Y1005118D02*
X7293296D01*
G54D21*
X7917465Y1208661D02*
X8043165D01*
G54D22*
X7903365Y1224561D02*
X8057265D01*
X7903365Y1192761D02*
X8057265D01*
G54D21*
X7917465Y208661D02*
X8043165D01*
G54D22*
X7903365Y224561D02*
X8057265D01*
X7903365Y192761D02*
X8057265D01*
G54D23*
X7461614Y448819D02*
X7479331D01*
X7461614Y423228D02*
X7479331D01*
X7461614Y397638D02*
X7479331D01*
X7386811D02*
X7404528D01*
X7386811Y423228D02*
X7404528D01*
X7386811Y448819D02*
X7404528D01*
X7457677Y1005118D02*
X7475394D01*
X7457677Y979528D02*
X7475394D01*
X7457677Y953937D02*
X7475394D01*
X7532480D02*
X7550197D01*
X7532480Y979528D02*
X7550197D01*
X7532480Y1005118D02*
X7550197D01*
G54D24*
X6664370Y1031496D02*
X6678150D01*
X6593504D02*
X6607283D01*
X6664370Y925197D02*
X6678150D01*
X6593504D02*
X6607283D01*
G54D25*
X6011850Y1238189D02*
Y1285433D01*
G54D10*
X7688976Y2068923D02*
Y2159423D01*
X6196850Y1856314D02*
Y1923214D01*
X7688976Y1856314D02*
Y1923214D01*
X6196850Y2068923D02*
Y2159423D01*
G54D11*
X6852362Y2078740D03*
X6805118D03*
X6757874D03*
G54D10*
X7368136Y1629921D02*
X7458636D01*
G36*
X6216535Y1649606D02*
X6297244D01*
Y1610236D01*
X6177165D01*
Y1730315D01*
X6216535D01*
Y1649606D01*
G37*
G36*
X7708661Y1610236D02*
X7584646D01*
Y1649606D01*
X7669291D01*
Y1730315D01*
X7708661D01*
Y1610236D01*
G37*
G54D10*
X6659474Y1629921D02*
X6749975D01*
X6423254D02*
X6513754D01*
X7131915D02*
X7222416D01*
X6895695D02*
X6986195D01*
G54D11*
X6805118Y2125984D03*
G54D10*
X7368136Y2622047D02*
X7458636D01*
G36*
X6297244Y2602362D02*
X6216535D01*
Y2519685D01*
X6177165D01*
Y2641732D01*
X6297244D01*
Y2602362D01*
G37*
G36*
X7708661Y2641732D02*
Y2519685D01*
X7669291D01*
Y2602362D01*
X7584646D01*
Y2641732D01*
X7708661D01*
G37*
G54D10*
X6423254Y2622047D02*
X6513754D01*
X7131915D02*
X7222416D01*
X6895695D02*
X6986195D01*
X6659474D02*
X6749975D01*
G54D11*
X6757874Y2173228D03*
X6852362Y2125984D03*
X6757874D03*
X6805118Y2173228D03*
G54D10*
X6196850Y2305144D02*
Y2395644D01*
X7688976Y2305144D02*
Y2395644D01*
G54D11*
X6852362Y2173228D03*
G54D12*
X6627953Y2508819D03*
X6671260D03*
Y2549173D03*
X6627953D03*
X6979331Y2562992D03*
X6936024D03*
X7375984Y2464567D03*
X7332677D03*
X7460630D03*
X7417323D03*
X7019685Y1814961D03*
X6976378D03*
X7385827Y2281496D03*
X7342520D03*
X7818898Y2580709D03*
X7775591D03*
X7096457Y2324803D03*
X7139764D03*
X7220472D03*
X7263780D03*
X7629921Y2396850D03*
X7586614D03*
X7818898Y2458661D03*
X7775591D03*
X7057087Y2324803D03*
X7013780D03*
X6970472Y2277559D03*
X7013780D03*
X7263780Y2281496D03*
X7220472D03*
X6637795Y2011811D03*
X6594488D03*
X5803150Y2793307D03*
X5846457D03*
Y2751969D03*
X5803150D03*
X5846457Y2669291D03*
X5803150D03*
X6220472Y2711220D03*
X6177165D03*
X5803150Y2708661D03*
X5846457D03*
X7271654Y1814961D03*
X7228346D03*
X7513780Y1840551D03*
X7557087D03*
X6937008Y1942913D03*
X6893701D03*
X7102362Y1972441D03*
X7145669D03*
X7017717Y2011811D03*
X7061024D03*
X7110236Y2052520D03*
X7066929D03*
X7061024Y1972441D03*
X7017717D03*
X7818898Y1795276D03*
X7775591D03*
X6322835Y2242126D03*
X6366142D03*
X7775591Y1673228D03*
X7818898D03*
X7267717Y1972441D03*
X7224409D03*
Y2011811D03*
X7267717D03*
X7385827Y2324803D03*
X7342520D03*
X6896654Y2317244D03*
X6939961D03*
X7013780Y2153543D03*
X6970472D03*
X7096457Y2194882D03*
X7053150D03*
X6939961Y2440945D03*
X6896654D03*
X6979331Y2523622D03*
X6936024D03*
X6974409Y2052520D03*
X7017717D03*
Y2098425D03*
X6974409D03*
X6721969Y2342520D03*
Y2299213D03*
X6720472Y2531496D03*
Y2488189D03*
X7375984Y2503937D03*
Y2547244D03*
X7289370Y2421260D03*
Y2464567D03*
X7332677Y2503937D03*
Y2547244D03*
X6970472Y2194882D03*
Y2238189D03*
X7775591Y2498031D03*
Y2541339D03*
X7541417Y2506772D03*
Y2463465D03*
X6896654Y2356614D03*
Y2399921D03*
X7501181Y2279764D03*
Y2236457D03*
X7303150Y2281496D03*
Y2324803D03*
X6896654Y2523622D03*
Y2480315D03*
X7181102Y2281496D03*
Y2324803D03*
X7542520Y2279764D03*
Y2236457D03*
X7387795Y1696850D03*
Y1740157D03*
X7470472Y1696850D03*
Y1740157D03*
X7775591Y1712598D03*
Y1755906D03*
X7470472Y1948819D03*
Y1905512D03*
X6177165Y2797835D03*
Y2754528D03*
X6303189Y2711220D03*
Y2754528D03*
X6261850Y2711220D03*
Y2754528D03*
X6720472Y2405512D03*
Y2448819D03*
X6893701Y1901575D03*
Y1858268D03*
X6935039Y1771654D03*
Y1814961D03*
X6763780Y2348425D03*
Y2305118D03*
X7013780Y2194882D03*
Y2238189D03*
X7185039Y2015748D03*
Y1972441D03*
X6978346Y1929134D03*
Y1972441D03*
X6856299Y2348425D03*
Y2305118D03*
X6816929Y2348425D03*
Y2305118D03*
X7429134Y1696850D03*
Y1740157D03*
X7309055Y1972441D03*
Y2015748D03*
X7427165Y2324803D03*
Y2281496D03*
X7042126Y2519685D03*
Y2476378D03*
G54D13*
X6881890Y2232283D02*
Y2251969D01*
X6856299Y2232283D02*
Y2251969D01*
X6830709Y2232283D02*
Y2251969D01*
X6805118Y2232283D02*
Y2251969D01*
X6779528Y2232283D02*
Y2251969D01*
X6753937Y2232283D02*
Y2251969D01*
X6728346Y2232283D02*
Y2251969D01*
Y2000000D02*
Y2019685D01*
X6753937Y2000000D02*
Y2019685D01*
X6779528Y2000000D02*
Y2019685D01*
X6805118Y2000000D02*
Y2019685D01*
X6830709Y2000000D02*
Y2019685D01*
X6856299Y2000000D02*
Y2019685D01*
X6881890Y2000000D02*
Y2019685D01*
X6679134Y2202756D02*
X6698819D01*
X6679134Y2177165D02*
X6698819D01*
X6679134Y2151575D02*
X6698819D01*
X6679134Y2125984D02*
X6698819D01*
X6679134Y2100394D02*
X6698819D01*
X6679134Y2074803D02*
X6698819D01*
X6679134Y2049213D02*
X6698819D01*
X6911417D02*
X6931102D01*
X6911417Y2074803D02*
X6931102D01*
X6911417Y2100394D02*
X6931102D01*
X6911417Y2125984D02*
X6931102D01*
X6911417Y2151575D02*
X6931102D01*
X6911417Y2177165D02*
X6931102D01*
X6911417Y2202756D02*
X6931102D01*
G54D14*
X7136781Y1767717D02*
X7178180D01*
X7144668Y1814961D02*
X7178167D01*
X7160442Y1862205D02*
X7178141D01*
X7065953Y1767717D02*
X7083653D01*
X7065953Y1814961D02*
X7083653D01*
X7065953Y1862205D02*
X7083653D01*
G54D15*
X6011811Y2647134D02*
Y2711134D01*
G54D16*
X5965061Y2602884D02*
Y2755384D01*
X6058561Y2602884D02*
Y2755384D01*
G54D17*
X6109297Y2754134D02*
X6134797D01*
X6109297Y2704134D02*
X6134797D01*
X6109297Y2604134D02*
X6134797D01*
X6109297Y2654134D02*
X6134797D01*
X5888825D02*
X5914325D01*
X5888825Y2604134D02*
X5914325D01*
X5888825Y2704134D02*
X5914325D01*
X5888825Y2754134D02*
X5914325D01*
G54D18*
X6208661Y1464567D03*
Y1535433D03*
X5907441Y2438976D03*
X5978307D03*
Y1513780D03*
X5907441D03*
X5677126Y1515748D03*
X5606260D03*
G54D19*
X6505906D03*
Y1456693D03*
G54D20*
X6357283Y2202756D02*
X6367126D01*
X6357283Y2183071D02*
X6367126D01*
X6357283Y2163386D02*
X6367126D01*
X6357283Y2143701D02*
X6367126D01*
X6321850D02*
X6331693D01*
X6321850Y2163386D02*
X6331693D01*
X6321850Y2183071D02*
X6331693D01*
X6321850Y2202756D02*
X6331693D01*
X6357283Y2009843D02*
X6367126D01*
X6357283Y1990157D02*
X6367126D01*
X6357283Y1970472D02*
X6367126D01*
X6357283Y1950787D02*
X6367126D01*
X6321850D02*
X6331693D01*
X6321850Y1970472D02*
X6331693D01*
X6321850Y1990157D02*
X6331693D01*
X6321850Y2009843D02*
X6331693D01*
X6357283Y1820866D02*
X6367126D01*
X6357283Y1801181D02*
X6367126D01*
X6357283Y1781496D02*
X6367126D01*
X6357283Y1761811D02*
X6367126D01*
X6321850D02*
X6331693D01*
X6321850Y1781496D02*
X6331693D01*
X6321850Y1801181D02*
X6331693D01*
X6321850Y1820866D02*
X6331693D01*
G54D11*
X7105512Y2547649D02*
Y2571249D01*
X7155512Y2547649D02*
Y2571249D01*
X7205512Y2547649D02*
Y2571249D01*
X7105512Y2373633D02*
Y2397233D01*
X7155512Y2373633D02*
Y2397233D01*
X7205512Y2373633D02*
Y2397233D01*
X7017728Y2522441D02*
X7041328D01*
X7017728Y2422441D02*
X7041328D01*
X7269696Y2522441D02*
X7293296D01*
X7269696Y2422441D02*
X7293296D01*
G54D21*
X7917465Y2625984D02*
X8043165D01*
G54D22*
X7903365Y2641884D02*
X8057265D01*
X7903365Y2610084D02*
X8057265D01*
G54D21*
X7917465Y1625984D02*
X8043165D01*
G54D22*
X7903365Y1641884D02*
X8057265D01*
X7903365Y1610084D02*
X8057265D01*
G54D23*
X7461614Y1866142D02*
X7479331D01*
X7461614Y1840551D02*
X7479331D01*
X7461614Y1814961D02*
X7479331D01*
X7386811D02*
X7404528D01*
X7386811Y1840551D02*
X7404528D01*
X7386811Y1866142D02*
X7404528D01*
X7457677Y2422441D02*
X7475394D01*
X7457677Y2396850D02*
X7475394D01*
X7457677Y2371260D02*
X7475394D01*
X7532480D02*
X7550197D01*
X7532480Y2396850D02*
X7550197D01*
X7532480Y2422441D02*
X7550197D01*
G54D24*
X6664370Y2448819D02*
X6678150D01*
X6593504D02*
X6607283D01*
X6664370Y2342520D02*
X6678150D01*
X6593504D02*
X6607283D01*
G54D25*
X6011850Y2655512D02*
Y2702756D01*
G54D10*
X7688976Y3486246D02*
Y3576746D01*
X6196850Y3273636D02*
Y3340537D01*
X7688976Y3273636D02*
Y3340537D01*
X6196850Y3486246D02*
Y3576746D01*
G54D11*
X6852362Y3496063D03*
X6805118D03*
X6757874D03*
G54D10*
X7368136Y3047244D02*
X7458636D01*
G36*
X6216535Y3066929D02*
X6297244D01*
Y3027559D01*
X6177165D01*
Y3147638D01*
X6216535D01*
Y3066929D01*
G37*
G36*
X7708661Y3027559D02*
X7584646D01*
Y3066929D01*
X7669291D01*
Y3147638D01*
X7708661D01*
Y3027559D01*
G37*
G54D10*
X6659474Y3047244D02*
X6749975D01*
X6423254D02*
X6513754D01*
X7131915D02*
X7222416D01*
X6895695D02*
X6986195D01*
G54D11*
X6805118Y3543307D03*
G54D10*
X7368136Y4039370D02*
X7458636D01*
G36*
X6297244Y4019685D02*
X6216535D01*
Y3937008D01*
X6177165D01*
Y4059055D01*
X6297244D01*
Y4019685D01*
G37*
G36*
X7708661Y4059055D02*
Y3937008D01*
X7669291D01*
Y4019685D01*
X7584646D01*
Y4059055D01*
X7708661D01*
G37*
G54D10*
X6423254Y4039370D02*
X6513754D01*
X7131915D02*
X7222416D01*
X6895695D02*
X6986195D01*
X6659474D02*
X6749975D01*
G54D11*
X6757874Y3590551D03*
X6852362Y3543307D03*
X6757874D03*
X6805118Y3590551D03*
G54D10*
X6196850Y3722466D02*
Y3812967D01*
X7688976Y3722466D02*
Y3812967D01*
G54D11*
X6852362Y3590551D03*
G54D12*
X6627953Y3926142D03*
X6671260D03*
Y3966496D03*
X6627953D03*
X6979331Y3980315D03*
X6936024D03*
X7375984Y3881890D03*
X7332677D03*
X7460630D03*
X7417323D03*
X7019685Y3232283D03*
X6976378D03*
X7385827Y3698819D03*
X7342520D03*
X7818898Y3998031D03*
X7775591D03*
X7096457Y3742126D03*
X7139764D03*
X7220472D03*
X7263780D03*
X7629921Y3814173D03*
X7586614D03*
X7818898Y3875984D03*
X7775591D03*
X7057087Y3742126D03*
X7013780D03*
X6970472Y3694882D03*
X7013780D03*
X7263780Y3698819D03*
X7220472D03*
X6637795Y3429134D03*
X6594488D03*
X5803150Y4210630D03*
X5846457D03*
Y4169291D03*
X5803150D03*
X5846457Y4086614D03*
X5803150D03*
X6220472Y4128543D03*
X6177165D03*
X5803150Y4125984D03*
X5846457D03*
X7271654Y3232283D03*
X7228346D03*
X7513780Y3257874D03*
X7557087D03*
X6937008Y3360236D03*
X6893701D03*
X7102362Y3389764D03*
X7145669D03*
X7017717Y3429134D03*
X7061024D03*
X7110236Y3469843D03*
X7066929D03*
X7061024Y3389764D03*
X7017717D03*
X7818898Y3212598D03*
X7775591D03*
X6322835Y3659449D03*
X6366142D03*
X7775591Y3090551D03*
X7818898D03*
X7267717Y3389764D03*
X7224409D03*
Y3429134D03*
X7267717D03*
X7385827Y3742126D03*
X7342520D03*
X6896654Y3734567D03*
X6939961D03*
X7013780Y3570866D03*
X6970472D03*
X7096457Y3612205D03*
X7053150D03*
X6939961Y3858268D03*
X6896654D03*
X6979331Y3940945D03*
X6936024D03*
X6974409Y3469843D03*
X7017717D03*
Y3515748D03*
X6974409D03*
X6721969Y3759843D03*
Y3716535D03*
X6720472Y3948819D03*
Y3905512D03*
X7375984Y3921260D03*
Y3964567D03*
X7289370Y3838583D03*
Y3881890D03*
X7332677Y3921260D03*
Y3964567D03*
X6970472Y3612205D03*
Y3655512D03*
X7775591Y3915354D03*
Y3958661D03*
X7541417Y3924094D03*
Y3880787D03*
X6896654Y3773937D03*
Y3817244D03*
X7501181Y3697087D03*
Y3653780D03*
X7303150Y3698819D03*
Y3742126D03*
X6896654Y3940945D03*
Y3897638D03*
X7181102Y3698819D03*
Y3742126D03*
X7542520Y3697087D03*
Y3653780D03*
X7387795Y3114173D03*
Y3157480D03*
X7470472Y3114173D03*
Y3157480D03*
X7775591Y3129921D03*
Y3173228D03*
X7470472Y3366142D03*
Y3322835D03*
X6177165Y4215157D03*
Y4171850D03*
X6303189Y4128543D03*
Y4171850D03*
X6261850Y4128543D03*
Y4171850D03*
X6720472Y3822835D03*
Y3866142D03*
X6893701Y3318898D03*
Y3275591D03*
X6935039Y3188976D03*
Y3232283D03*
X6763780Y3765748D03*
Y3722441D03*
X7013780Y3612205D03*
Y3655512D03*
X7185039Y3433071D03*
Y3389764D03*
X6978346Y3346457D03*
Y3389764D03*
X6856299Y3765748D03*
Y3722441D03*
X6816929Y3765748D03*
Y3722441D03*
X7429134Y3114173D03*
Y3157480D03*
X7309055Y3389764D03*
Y3433071D03*
X7427165Y3742126D03*
Y3698819D03*
X7042126Y3937008D03*
Y3893701D03*
G54D13*
X6881890Y3649606D02*
Y3669291D01*
X6856299Y3649606D02*
Y3669291D01*
X6830709Y3649606D02*
Y3669291D01*
X6805118Y3649606D02*
Y3669291D01*
X6779528Y3649606D02*
Y3669291D01*
X6753937Y3649606D02*
Y3669291D01*
X6728346Y3649606D02*
Y3669291D01*
Y3417323D02*
Y3437008D01*
X6753937Y3417323D02*
Y3437008D01*
X6779528Y3417323D02*
Y3437008D01*
X6805118Y3417323D02*
Y3437008D01*
X6830709Y3417323D02*
Y3437008D01*
X6856299Y3417323D02*
Y3437008D01*
X6881890Y3417323D02*
Y3437008D01*
X6679134Y3620079D02*
X6698819D01*
X6679134Y3594488D02*
X6698819D01*
X6679134Y3568898D02*
X6698819D01*
X6679134Y3543307D02*
X6698819D01*
X6679134Y3517717D02*
X6698819D01*
X6679134Y3492126D02*
X6698819D01*
X6679134Y3466535D02*
X6698819D01*
X6911417D02*
X6931102D01*
X6911417Y3492126D02*
X6931102D01*
X6911417Y3517717D02*
X6931102D01*
X6911417Y3543307D02*
X6931102D01*
X6911417Y3568898D02*
X6931102D01*
X6911417Y3594488D02*
X6931102D01*
X6911417Y3620079D02*
X6931102D01*
G54D14*
X7136781Y3185039D02*
X7178180D01*
X7144668Y3232283D02*
X7178167D01*
X7160442Y3279528D02*
X7178141D01*
X7065953Y3185039D02*
X7083653D01*
X7065953Y3232283D02*
X7083653D01*
X7065953Y3279528D02*
X7083653D01*
G54D15*
X6011811Y4064457D02*
Y4128457D01*
G54D16*
X5965061Y4020207D02*
Y4172707D01*
X6058561Y4020207D02*
Y4172707D01*
G54D17*
X6109297Y4171457D02*
X6134797D01*
X6109297Y4121457D02*
X6134797D01*
X6109297Y4021457D02*
X6134797D01*
X6109297Y4071457D02*
X6134797D01*
X5888825D02*
X5914325D01*
X5888825Y4021457D02*
X5914325D01*
X5888825Y4121457D02*
X5914325D01*
X5888825Y4171457D02*
X5914325D01*
G54D18*
X6208661Y2881890D03*
Y2952756D03*
X5907441Y3856299D03*
X5978307D03*
Y2931102D03*
X5907441D03*
X5677126Y2933071D03*
X5606260D03*
G54D19*
X6505906D03*
Y2874016D03*
G54D20*
X6357283Y3620079D02*
X6367126D01*
X6357283Y3600394D02*
X6367126D01*
X6357283Y3580709D02*
X6367126D01*
X6357283Y3561024D02*
X6367126D01*
X6321850D02*
X6331693D01*
X6321850Y3580709D02*
X6331693D01*
X6321850Y3600394D02*
X6331693D01*
X6321850Y3620079D02*
X6331693D01*
X6357283Y3427165D02*
X6367126D01*
X6357283Y3407480D02*
X6367126D01*
X6357283Y3387795D02*
X6367126D01*
X6357283Y3368110D02*
X6367126D01*
X6321850D02*
X6331693D01*
X6321850Y3387795D02*
X6331693D01*
X6321850Y3407480D02*
X6331693D01*
X6321850Y3427165D02*
X6331693D01*
X6357283Y3238189D02*
X6367126D01*
X6357283Y3218504D02*
X6367126D01*
X6357283Y3198819D02*
X6367126D01*
X6357283Y3179134D02*
X6367126D01*
X6321850D02*
X6331693D01*
X6321850Y3198819D02*
X6331693D01*
X6321850Y3218504D02*
X6331693D01*
X6321850Y3238189D02*
X6331693D01*
G54D11*
X7105512Y3964972D02*
Y3988572D01*
X7155512Y3964972D02*
Y3988572D01*
X7205512Y3964972D02*
Y3988572D01*
X7105512Y3790956D02*
Y3814556D01*
X7155512Y3790956D02*
Y3814556D01*
X7205512Y3790956D02*
Y3814556D01*
X7017728Y3939764D02*
X7041328D01*
X7017728Y3839764D02*
X7041328D01*
X7269696Y3939764D02*
X7293296D01*
X7269696Y3839764D02*
X7293296D01*
G54D21*
X7917465Y4043307D02*
X8043165D01*
G54D22*
X7903365Y4059207D02*
X8057265D01*
X7903365Y4027407D02*
X8057265D01*
G54D21*
X7917465Y3043307D02*
X8043165D01*
G54D22*
X7903365Y3059207D02*
X8057265D01*
X7903365Y3027407D02*
X8057265D01*
G54D23*
X7461614Y3283465D02*
X7479331D01*
X7461614Y3257874D02*
X7479331D01*
X7461614Y3232283D02*
X7479331D01*
X7386811D02*
X7404528D01*
X7386811Y3257874D02*
X7404528D01*
X7386811Y3283465D02*
X7404528D01*
X7457677Y3839764D02*
X7475394D01*
X7457677Y3814173D02*
X7475394D01*
X7457677Y3788583D02*
X7475394D01*
X7532480D02*
X7550197D01*
X7532480Y3814173D02*
X7550197D01*
X7532480Y3839764D02*
X7550197D01*
G54D24*
X6664370Y3866142D02*
X6678150D01*
X6593504D02*
X6607283D01*
X6664370Y3759843D02*
X6678150D01*
X6593504D02*
X6607283D01*
G54D25*
X6011850Y4072835D02*
Y4120079D01*
G54D10*
X7688976Y4903569D02*
Y4994069D01*
X6196850Y4690959D02*
Y4757860D01*
X7688976Y4690959D02*
Y4757860D01*
X6196850Y4903569D02*
Y4994069D01*
G54D11*
X6852362Y4913386D03*
X6805118D03*
X6757874D03*
G54D10*
X7368136Y4464567D02*
X7458636D01*
G36*
X6216535Y4484252D02*
X6297244D01*
Y4444882D01*
X6177165D01*
Y4564961D01*
X6216535D01*
Y4484252D01*
G37*
G36*
X7708661Y4444882D02*
X7584646D01*
Y4484252D01*
X7669291D01*
Y4564961D01*
X7708661D01*
Y4444882D01*
G37*
G54D10*
X6659474Y4464567D02*
X6749975D01*
X6423254D02*
X6513754D01*
X7131915D02*
X7222416D01*
X6895695D02*
X6986195D01*
G54D11*
X6805118Y4960630D03*
G54D10*
X7368136Y5456693D02*
X7458636D01*
G36*
X6297244Y5437008D02*
X6216535D01*
Y5354331D01*
X6177165D01*
Y5476378D01*
X6297244D01*
Y5437008D01*
G37*
G36*
X7708661Y5476378D02*
Y5354331D01*
X7669291D01*
Y5437008D01*
X7584646D01*
Y5476378D01*
X7708661D01*
G37*
G54D10*
X6423254Y5456693D02*
X6513754D01*
X7131915D02*
X7222416D01*
X6895695D02*
X6986195D01*
X6659474D02*
X6749975D01*
G54D11*
X6757874Y5007874D03*
X6852362Y4960630D03*
X6757874D03*
X6805118Y5007874D03*
G54D10*
X6196850Y5139789D02*
Y5230290D01*
X7688976Y5139789D02*
Y5230290D01*
G54D11*
X6852362Y5007874D03*
G54D12*
X6627953Y5343465D03*
X6671260D03*
Y5383819D03*
X6627953D03*
X6979331Y5397638D03*
X6936024D03*
X7375984Y5299213D03*
X7332677D03*
X7460630D03*
X7417323D03*
X7019685Y4649606D03*
X6976378D03*
X7385827Y5116142D03*
X7342520D03*
X7818898Y5415354D03*
X7775591D03*
X7096457Y5159449D03*
X7139764D03*
X7220472D03*
X7263780D03*
X7629921Y5231496D03*
X7586614D03*
X7818898Y5293307D03*
X7775591D03*
X7057087Y5159449D03*
X7013780D03*
X6970472Y5112205D03*
X7013780D03*
X7263780Y5116142D03*
X7220472D03*
X6637795Y4846457D03*
X6594488D03*
X5803150Y5627953D03*
X5846457D03*
Y5586614D03*
X5803150D03*
X5846457Y5503937D03*
X5803150D03*
X6220472Y5545866D03*
X6177165D03*
X5803150Y5543307D03*
X5846457D03*
X7271654Y4649606D03*
X7228346D03*
X7513780Y4675197D03*
X7557087D03*
X6937008Y4777559D03*
X6893701D03*
X7102362Y4807087D03*
X7145669D03*
X7017717Y4846457D03*
X7061024D03*
X7110236Y4887165D03*
X7066929D03*
X7061024Y4807087D03*
X7017717D03*
X7818898Y4629921D03*
X7775591D03*
X6322835Y5076772D03*
X6366142D03*
X7775591Y4507874D03*
X7818898D03*
X7267717Y4807087D03*
X7224409D03*
Y4846457D03*
X7267717D03*
X7385827Y5159449D03*
X7342520D03*
X6896654Y5151890D03*
X6939961D03*
X7013780Y4988189D03*
X6970472D03*
X7096457Y5029528D03*
X7053150D03*
X6939961Y5275591D03*
X6896654D03*
X6979331Y5358268D03*
X6936024D03*
X6974409Y4887165D03*
X7017717D03*
Y4933071D03*
X6974409D03*
X6721969Y5177165D03*
Y5133858D03*
X6720472Y5366142D03*
Y5322835D03*
X7375984Y5338583D03*
Y5381890D03*
X7289370Y5255906D03*
Y5299213D03*
X7332677Y5338583D03*
Y5381890D03*
X6970472Y5029528D03*
Y5072835D03*
X7775591Y5332677D03*
Y5375984D03*
X7541417Y5341417D03*
Y5298110D03*
X6896654Y5191260D03*
Y5234567D03*
X7501181Y5114409D03*
Y5071102D03*
X7303150Y5116142D03*
Y5159449D03*
X6896654Y5358268D03*
Y5314961D03*
X7181102Y5116142D03*
Y5159449D03*
X7542520Y5114409D03*
Y5071102D03*
X7387795Y4531496D03*
Y4574803D03*
X7470472Y4531496D03*
Y4574803D03*
X7775591Y4547244D03*
Y4590551D03*
X7470472Y4783465D03*
Y4740157D03*
X6177165Y5632480D03*
Y5589173D03*
X6303189Y5545866D03*
Y5589173D03*
X6261850Y5545866D03*
Y5589173D03*
X6720472Y5240157D03*
Y5283465D03*
X6893701Y4736220D03*
Y4692913D03*
X6935039Y4606299D03*
Y4649606D03*
X6763780Y5183071D03*
Y5139764D03*
X7013780Y5029528D03*
Y5072835D03*
X7185039Y4850394D03*
Y4807087D03*
X6978346Y4763780D03*
Y4807087D03*
X6856299Y5183071D03*
Y5139764D03*
X6816929Y5183071D03*
Y5139764D03*
X7429134Y4531496D03*
Y4574803D03*
X7309055Y4807087D03*
Y4850394D03*
X7427165Y5159449D03*
Y5116142D03*
X7042126Y5354331D03*
Y5311024D03*
G54D13*
X6881890Y5066929D02*
Y5086614D01*
X6856299Y5066929D02*
Y5086614D01*
X6830709Y5066929D02*
Y5086614D01*
X6805118Y5066929D02*
Y5086614D01*
X6779528Y5066929D02*
Y5086614D01*
X6753937Y5066929D02*
Y5086614D01*
X6728346Y5066929D02*
Y5086614D01*
Y4834646D02*
Y4854331D01*
X6753937Y4834646D02*
Y4854331D01*
X6779528Y4834646D02*
Y4854331D01*
X6805118Y4834646D02*
Y4854331D01*
X6830709Y4834646D02*
Y4854331D01*
X6856299Y4834646D02*
Y4854331D01*
X6881890Y4834646D02*
Y4854331D01*
X6679134Y5037402D02*
X6698819D01*
X6679134Y5011811D02*
X6698819D01*
X6679134Y4986220D02*
X6698819D01*
X6679134Y4960630D02*
X6698819D01*
X6679134Y4935039D02*
X6698819D01*
X6679134Y4909449D02*
X6698819D01*
X6679134Y4883858D02*
X6698819D01*
X6911417D02*
X6931102D01*
X6911417Y4909449D02*
X6931102D01*
X6911417Y4935039D02*
X6931102D01*
X6911417Y4960630D02*
X6931102D01*
X6911417Y4986220D02*
X6931102D01*
X6911417Y5011811D02*
X6931102D01*
X6911417Y5037402D02*
X6931102D01*
G54D14*
X7136781Y4602362D02*
X7178180D01*
X7144668Y4649606D02*
X7178167D01*
X7160442Y4696850D02*
X7178141D01*
X7065953Y4602362D02*
X7083653D01*
X7065953Y4649606D02*
X7083653D01*
X7065953Y4696850D02*
X7083653D01*
G54D15*
X6011811Y5481780D02*
Y5545780D01*
G54D16*
X5965061Y5437530D02*
Y5590030D01*
X6058561Y5437530D02*
Y5590030D01*
G54D17*
X6109297Y5588780D02*
X6134797D01*
X6109297Y5538780D02*
X6134797D01*
X6109297Y5438780D02*
X6134797D01*
X6109297Y5488780D02*
X6134797D01*
X5888825D02*
X5914325D01*
X5888825Y5438780D02*
X5914325D01*
X5888825Y5538780D02*
X5914325D01*
X5888825Y5588780D02*
X5914325D01*
G54D18*
X6208661Y4299213D03*
Y4370079D03*
X5907441Y5273622D03*
X5978307D03*
Y4348425D03*
X5907441D03*
X5677126Y4350394D03*
X5606260D03*
G54D19*
X6505906D03*
Y4291339D03*
G54D20*
X6357283Y5037402D02*
X6367126D01*
X6357283Y5017717D02*
X6367126D01*
X6357283Y4998031D02*
X6367126D01*
X6357283Y4978346D02*
X6367126D01*
X6321850D02*
X6331693D01*
X6321850Y4998031D02*
X6331693D01*
X6321850Y5017717D02*
X6331693D01*
X6321850Y5037402D02*
X6331693D01*
X6357283Y4844488D02*
X6367126D01*
X6357283Y4824803D02*
X6367126D01*
X6357283Y4805118D02*
X6367126D01*
X6357283Y4785433D02*
X6367126D01*
X6321850D02*
X6331693D01*
X6321850Y4805118D02*
X6331693D01*
X6321850Y4824803D02*
X6331693D01*
X6321850Y4844488D02*
X6331693D01*
X6357283Y4655512D02*
X6367126D01*
X6357283Y4635827D02*
X6367126D01*
X6357283Y4616142D02*
X6367126D01*
X6357283Y4596457D02*
X6367126D01*
X6321850D02*
X6331693D01*
X6321850Y4616142D02*
X6331693D01*
X6321850Y4635827D02*
X6331693D01*
X6321850Y4655512D02*
X6331693D01*
G54D11*
X7105512Y5382294D02*
Y5405894D01*
X7155512Y5382294D02*
Y5405894D01*
X7205512Y5382294D02*
Y5405894D01*
X7105512Y5208279D02*
Y5231879D01*
X7155512Y5208279D02*
Y5231879D01*
X7205512Y5208279D02*
Y5231879D01*
X7017728Y5357087D02*
X7041328D01*
X7017728Y5257087D02*
X7041328D01*
X7269696Y5357087D02*
X7293296D01*
X7269696Y5257087D02*
X7293296D01*
G54D21*
X7917465Y5460630D02*
X8043165D01*
G54D22*
X7903365Y5476530D02*
X8057265D01*
X7903365Y5444730D02*
X8057265D01*
G54D21*
X7917465Y4460630D02*
X8043165D01*
G54D22*
X7903365Y4476530D02*
X8057265D01*
X7903365Y4444730D02*
X8057265D01*
G54D23*
X7461614Y4700787D02*
X7479331D01*
X7461614Y4675197D02*
X7479331D01*
X7461614Y4649606D02*
X7479331D01*
X7386811D02*
X7404528D01*
X7386811Y4675197D02*
X7404528D01*
X7386811Y4700787D02*
X7404528D01*
X7457677Y5257087D02*
X7475394D01*
X7457677Y5231496D02*
X7475394D01*
X7457677Y5205906D02*
X7475394D01*
X7532480D02*
X7550197D01*
X7532480Y5231496D02*
X7550197D01*
X7532480Y5257087D02*
X7550197D01*
G54D24*
X6664370Y5283465D02*
X6678150D01*
X6593504D02*
X6607283D01*
X6664370Y5177165D02*
X6678150D01*
X6593504D02*
X6607283D01*
G54D25*
X6011850Y5490157D02*
Y5537402D01*
G54D10*
X7688976Y6320892D02*
Y6411392D01*
X6196850Y6108282D02*
Y6175182D01*
X7688976Y6108282D02*
Y6175182D01*
X6196850Y6320892D02*
Y6411392D01*
G54D11*
X6852362Y6330709D03*
X6805118D03*
X6757874D03*
G54D10*
X7368136Y5881890D02*
X7458636D01*
G36*
X6216535Y5901575D02*
X6297244D01*
Y5862205D01*
X6177165D01*
Y5982283D01*
X6216535D01*
Y5901575D01*
G37*
G36*
X7708661Y5862205D02*
X7584646D01*
Y5901575D01*
X7669291D01*
Y5982283D01*
X7708661D01*
Y5862205D01*
G37*
G54D10*
X6659474Y5881890D02*
X6749975D01*
X6423254D02*
X6513754D01*
X7131915D02*
X7222416D01*
X6895695D02*
X6986195D01*
G54D11*
X6805118Y6377953D03*
G54D10*
X7368136Y6874016D02*
X7458636D01*
G36*
X6297244Y6854331D02*
X6216535D01*
Y6771654D01*
X6177165D01*
Y6893701D01*
X6297244D01*
Y6854331D01*
G37*
G36*
X7708661Y6893701D02*
Y6771654D01*
X7669291D01*
Y6854331D01*
X7584646D01*
Y6893701D01*
X7708661D01*
G37*
G54D10*
X6423254Y6874016D02*
X6513754D01*
X7131915D02*
X7222416D01*
X6895695D02*
X6986195D01*
X6659474D02*
X6749975D01*
G54D11*
X6757874Y6425197D03*
X6852362Y6377953D03*
X6757874D03*
X6805118Y6425197D03*
G54D10*
X6196850Y6557112D02*
Y6647612D01*
X7688976Y6557112D02*
Y6647612D01*
G54D11*
X6852362Y6425197D03*
G54D12*
X6627953Y6760787D03*
X6671260D03*
Y6801142D03*
X6627953D03*
X6979331Y6814961D03*
X6936024D03*
X7375984Y6716535D03*
X7332677D03*
X7460630D03*
X7417323D03*
X7019685Y6066929D03*
X6976378D03*
X7385827Y6533465D03*
X7342520D03*
X7818898Y6832677D03*
X7775591D03*
X7096457Y6576772D03*
X7139764D03*
X7220472D03*
X7263780D03*
X7629921Y6648819D03*
X7586614D03*
X7818898Y6710630D03*
X7775591D03*
X7057087Y6576772D03*
X7013780D03*
X6970472Y6529528D03*
X7013780D03*
X7263780Y6533465D03*
X7220472D03*
X6637795Y6263780D03*
X6594488D03*
X5803150Y7045276D03*
X5846457D03*
Y7003937D03*
X5803150D03*
X5846457Y6921260D03*
X5803150D03*
X6220472Y6963189D03*
X6177165D03*
X5803150Y6960630D03*
X5846457D03*
X7271654Y6066929D03*
X7228346D03*
X7513780Y6092520D03*
X7557087D03*
X6937008Y6194882D03*
X6893701D03*
X7102362Y6224409D03*
X7145669D03*
X7017717Y6263780D03*
X7061024D03*
X7110236Y6304488D03*
X7066929D03*
X7061024Y6224409D03*
X7017717D03*
X7818898Y6047244D03*
X7775591D03*
X6322835Y6494094D03*
X6366142D03*
X7775591Y5925197D03*
X7818898D03*
X7267717Y6224409D03*
X7224409D03*
Y6263780D03*
X7267717D03*
X7385827Y6576772D03*
X7342520D03*
X6896654Y6569213D03*
X6939961D03*
X7013780Y6405512D03*
X6970472D03*
X7096457Y6446850D03*
X7053150D03*
X6939961Y6692913D03*
X6896654D03*
X6979331Y6775591D03*
X6936024D03*
X6974409Y6304488D03*
X7017717D03*
Y6350394D03*
X6974409D03*
X6721969Y6594488D03*
Y6551181D03*
X6720472Y6783465D03*
Y6740157D03*
X7375984Y6755906D03*
Y6799213D03*
X7289370Y6673228D03*
Y6716535D03*
X7332677Y6755906D03*
Y6799213D03*
X6970472Y6446850D03*
Y6490157D03*
X7775591Y6750000D03*
Y6793307D03*
X7541417Y6758740D03*
Y6715433D03*
X6896654Y6608583D03*
Y6651890D03*
X7501181Y6531732D03*
Y6488425D03*
X7303150Y6533465D03*
Y6576772D03*
X6896654Y6775591D03*
Y6732283D03*
X7181102Y6533465D03*
Y6576772D03*
X7542520Y6531732D03*
Y6488425D03*
X7387795Y5948819D03*
Y5992126D03*
X7470472Y5948819D03*
Y5992126D03*
X7775591Y5964567D03*
Y6007874D03*
X7470472Y6200787D03*
Y6157480D03*
X6177165Y7049803D03*
Y7006496D03*
X6303189Y6963189D03*
Y7006496D03*
X6261850Y6963189D03*
Y7006496D03*
X6720472Y6657480D03*
Y6700787D03*
X6893701Y6153543D03*
Y6110236D03*
X6935039Y6023622D03*
Y6066929D03*
X6763780Y6600394D03*
Y6557087D03*
X7013780Y6446850D03*
Y6490157D03*
X7185039Y6267717D03*
Y6224409D03*
X6978346Y6181102D03*
Y6224409D03*
X6856299Y6600394D03*
Y6557087D03*
X6816929Y6600394D03*
Y6557087D03*
X7429134Y5948819D03*
Y5992126D03*
X7309055Y6224409D03*
Y6267717D03*
X7427165Y6576772D03*
Y6533465D03*
X7042126Y6771654D03*
Y6728346D03*
G54D13*
X6881890Y6484252D02*
Y6503937D01*
X6856299Y6484252D02*
Y6503937D01*
X6830709Y6484252D02*
Y6503937D01*
X6805118Y6484252D02*
Y6503937D01*
X6779528Y6484252D02*
Y6503937D01*
X6753937Y6484252D02*
Y6503937D01*
X6728346Y6484252D02*
Y6503937D01*
Y6251969D02*
Y6271654D01*
X6753937Y6251969D02*
Y6271654D01*
X6779528Y6251969D02*
Y6271654D01*
X6805118Y6251969D02*
Y6271654D01*
X6830709Y6251969D02*
Y6271654D01*
X6856299Y6251969D02*
Y6271654D01*
X6881890Y6251969D02*
Y6271654D01*
X6679134Y6454724D02*
X6698819D01*
X6679134Y6429134D02*
X6698819D01*
X6679134Y6403543D02*
X6698819D01*
X6679134Y6377953D02*
X6698819D01*
X6679134Y6352362D02*
X6698819D01*
X6679134Y6326772D02*
X6698819D01*
X6679134Y6301181D02*
X6698819D01*
X6911417D02*
X6931102D01*
X6911417Y6326772D02*
X6931102D01*
X6911417Y6352362D02*
X6931102D01*
X6911417Y6377953D02*
X6931102D01*
X6911417Y6403543D02*
X6931102D01*
X6911417Y6429134D02*
X6931102D01*
X6911417Y6454724D02*
X6931102D01*
G54D14*
X7136781Y6019685D02*
X7178180D01*
X7144668Y6066929D02*
X7178167D01*
X7160442Y6114173D02*
X7178141D01*
X7065953Y6019685D02*
X7083653D01*
X7065953Y6066929D02*
X7083653D01*
X7065953Y6114173D02*
X7083653D01*
G54D15*
X6011811Y6899102D02*
Y6963102D01*
G54D16*
X5965061Y6854852D02*
Y7007352D01*
X6058561Y6854852D02*
Y7007352D01*
G54D17*
X6109297Y7006102D02*
X6134797D01*
X6109297Y6956102D02*
X6134797D01*
X6109297Y6856102D02*
X6134797D01*
X6109297Y6906102D02*
X6134797D01*
X5888825D02*
X5914325D01*
X5888825Y6856102D02*
X5914325D01*
X5888825Y6956102D02*
X5914325D01*
X5888825Y7006102D02*
X5914325D01*
G54D18*
X6208661Y5716535D03*
Y5787402D03*
X5907441Y6690945D03*
X5978307D03*
Y5765748D03*
X5907441D03*
X5677126Y5767717D03*
X5606260D03*
G54D19*
X6505906D03*
Y5708661D03*
G54D20*
X6357283Y6454724D02*
X6367126D01*
X6357283Y6435039D02*
X6367126D01*
X6357283Y6415354D02*
X6367126D01*
X6357283Y6395669D02*
X6367126D01*
X6321850D02*
X6331693D01*
X6321850Y6415354D02*
X6331693D01*
X6321850Y6435039D02*
X6331693D01*
X6321850Y6454724D02*
X6331693D01*
X6357283Y6261811D02*
X6367126D01*
X6357283Y6242126D02*
X6367126D01*
X6357283Y6222441D02*
X6367126D01*
X6357283Y6202756D02*
X6367126D01*
X6321850D02*
X6331693D01*
X6321850Y6222441D02*
X6331693D01*
X6321850Y6242126D02*
X6331693D01*
X6321850Y6261811D02*
X6331693D01*
X6357283Y6072835D02*
X6367126D01*
X6357283Y6053150D02*
X6367126D01*
X6357283Y6033465D02*
X6367126D01*
X6357283Y6013780D02*
X6367126D01*
X6321850D02*
X6331693D01*
X6321850Y6033465D02*
X6331693D01*
X6321850Y6053150D02*
X6331693D01*
X6321850Y6072835D02*
X6331693D01*
G54D11*
X7105512Y6799617D02*
Y6823217D01*
X7155512Y6799617D02*
Y6823217D01*
X7205512Y6799617D02*
Y6823217D01*
X7105512Y6625602D02*
Y6649202D01*
X7155512Y6625602D02*
Y6649202D01*
X7205512Y6625602D02*
Y6649202D01*
X7017728Y6774409D02*
X7041328D01*
X7017728Y6674409D02*
X7041328D01*
X7269696Y6774409D02*
X7293296D01*
X7269696Y6674409D02*
X7293296D01*
G54D21*
X7917465Y6877953D02*
X8043165D01*
G54D22*
X7903365Y6893853D02*
X8057265D01*
X7903365Y6862053D02*
X8057265D01*
G54D21*
X7917465Y5877953D02*
X8043165D01*
G54D22*
X7903365Y5893853D02*
X8057265D01*
X7903365Y5862053D02*
X8057265D01*
G54D23*
X7461614Y6118110D02*
X7479331D01*
X7461614Y6092520D02*
X7479331D01*
X7461614Y6066929D02*
X7479331D01*
X7386811D02*
X7404528D01*
X7386811Y6092520D02*
X7404528D01*
X7386811Y6118110D02*
X7404528D01*
X7457677Y6674409D02*
X7475394D01*
X7457677Y6648819D02*
X7475394D01*
X7457677Y6623228D02*
X7475394D01*
X7532480D02*
X7550197D01*
X7532480Y6648819D02*
X7550197D01*
X7532480Y6674409D02*
X7550197D01*
G54D24*
X6664370Y6700787D02*
X6678150D01*
X6593504D02*
X6607283D01*
X6664370Y6594488D02*
X6678150D01*
X6593504D02*
X6607283D01*
G54D25*
X6011850Y6907480D02*
Y6954724D01*
G54D26*
X8267717Y196850D03*
X196850Y6889764D03*
G54D27*
X2952756Y0D02*
Y7086614D01*
X59055Y0D02*
X8405512D01*
X0Y1417323D02*
X8464567D01*
X0Y2834646D02*
X8464567D01*
X0Y4251969D02*
X8464567D01*
X5511811Y0D02*
Y7086614D01*
X59055D02*
X8405512D01*
X0Y5669291D02*
X8464567D01*
X393701Y0D02*
Y7086614D01*
X0Y7027559D02*
Y59055D01*
X8070866Y0D02*
Y7086614D01*
X8464567Y7027559D02*
Y59055D01*
X0Y7027559D02*
X493Y7035172D01*
X1963Y7042658D01*
X4386Y7049893D01*
X7721Y7056754D01*
X11913Y7063128D01*
X16892Y7068909D01*
X22575Y7073999D01*
X28866Y7078315D01*
X35661Y7081783D01*
X42847Y7084346D01*
X50303Y7085962D01*
X57905Y7086603D01*
X59055Y7086614D01*
X8405512D02*
X8413125Y7086121D01*
X8420611Y7084651D01*
X8427845Y7082228D01*
X8434707Y7078893D01*
X8441081Y7074701D01*
X8446862Y7069722D01*
X8451952Y7064039D01*
X8456267Y7057748D01*
X8459736Y7050953D01*
X8462299Y7043767D01*
X8463915Y7036311D01*
X8464556Y7028709D01*
X8464567Y7027559D01*
X8405512Y0D02*
X8413125Y493D01*
X8420611Y1963D01*
X8427845Y4386D01*
X8434707Y7721D01*
X8441081Y11913D01*
X8446862Y16892D01*
X8451952Y22575D01*
X8456267Y28866D01*
X8459736Y35661D01*
X8462299Y42847D01*
X8463915Y50303D01*
X8464556Y57905D01*
X8464567Y59055D01*
X0D02*
X493Y51442D01*
X1963Y43956D01*
X4386Y36722D01*
X7721Y29860D01*
X11913Y23486D01*
X16892Y17705D01*
X22575Y12615D01*
X28866Y8300D01*
X35661Y4831D01*
X42847Y2268D01*
X50303Y652D01*
X57905Y11D01*
X59055Y0D01*
M02*
