%FSLAX35Y35*%
%MOMM*%
G04 EasyPC Gerber Version 18.0.9 Build 3640 *
%ADD24C,0.12700*%
%ADD23C,2.54000*%
X0Y0D02*
D02*
D23*
X1416050Y580650D03*
Y930650D03*
X1606550Y5221350D03*
Y5721350D03*
Y6221350D03*
X1670050Y1403350D03*
Y3181350D03*
X1720850Y6991350D03*
Y9277350D03*
X1974850Y6991350D03*
Y9277350D03*
X2228850Y6991350D03*
Y9277350D03*
X2305050Y4530350D03*
Y4880350D03*
X2482850Y6991350D03*
Y9277350D03*
X2559050Y5975350D03*
X2736850Y6991350D03*
Y9277350D03*
X2990850Y6991350D03*
Y9277350D03*
X3194050Y3689350D03*
Y5650230D03*
Y6356350D03*
X3244850Y6991350D03*
Y9277350D03*
X3498850Y6991350D03*
Y9277350D03*
X3575050Y5975350D03*
X3752850Y6991350D03*
Y9277350D03*
X3956050Y4586350D03*
Y5586350D03*
X4006850Y6991350D03*
Y9277350D03*
X4210050Y4586350D03*
Y5586350D03*
Y6356350D03*
X4591050D03*
X4845050D03*
X4924050Y3943350D03*
X4972050Y4578350D03*
X5274050Y3943350D03*
X5305050Y527050D03*
X5424170Y5086350D03*
X5594350Y5403850D03*
X5655050Y527050D03*
X5734050Y1403350D03*
Y3181350D03*
X5988050Y3816350D03*
Y4070350D03*
Y4578350D03*
X6186170Y2038350D03*
X6305550Y4413250D03*
X6623050Y2800350D03*
Y3054350D03*
Y3308350D03*
Y3562350D03*
Y3816350D03*
Y4070350D03*
Y4324350D03*
X6631050Y8997950D03*
X6956050Y527050D03*
Y1289050D03*
X7131050Y8997950D03*
X7306050Y527050D03*
Y1289050D03*
X7385050Y2800350D03*
Y3054350D03*
Y3308350D03*
Y3562350D03*
Y3816350D03*
Y4070350D03*
Y4324350D03*
Y5086350D03*
X7631050Y8997950D03*
X7893050Y2927350D03*
Y3181350D03*
Y3435350D03*
X8147050Y2038350D03*
D02*
D24*
X1670050Y731460D02*
Y826710D01*
X1725610*
X1741490Y818780*
X1749430Y802900*
X1741490Y787030*
X1725610Y779090*
X1670050*
Y1081460D02*
Y1176710D01*
X1725610*
X1741490Y1168780*
X1749430Y1152900*
X1741490Y1137030*
X1725610Y1129090*
X1670050*
X1860550Y5467410D02*
X1868490Y5372160D01*
X1900240Y5419790*
X1931990Y5372160*
X1939930Y5467410*
X1860550Y5967410D02*
X1868490Y5872160D01*
X1900240Y5919790*
X1931990Y5872160*
X1939930Y5967410*
X1860550Y6467410D02*
X1868490Y6372160D01*
X1900240Y6419790*
X1931990Y6372160*
X1939930Y6467410*
X1924050Y1554160D02*
Y1649410D01*
Y1601790D02*
X2003430D01*
Y1554160D02*
Y1649410D01*
X1924050Y3332160D02*
Y3427410D01*
Y3379790D02*
X2003430D01*
Y3332160D02*
Y3427410D01*
X1974850Y7142160D02*
Y7237410D01*
Y7189790D02*
X2054230D01*
Y7142160D02*
Y7237410D01*
X1974850Y9428160D02*
Y9523410D01*
Y9475790D02*
X2054230D01*
Y9428160D02*
Y9523410D01*
X2228850Y7142160D02*
Y7237410D01*
Y7189790D02*
X2308230D01*
Y7142160D02*
Y7237410D01*
X2228850Y9428160D02*
Y9523410D01*
Y9475790D02*
X2308230D01*
Y9428160D02*
Y9523410D01*
X2482850Y7142160D02*
Y7237410D01*
Y7189790D02*
X2562230D01*
Y7142160D02*
Y7237410D01*
X2482850Y9428160D02*
Y9523410D01*
Y9475790D02*
X2562230D01*
Y9428160D02*
Y9523410D01*
X2559050Y4776410D02*
X2598740Y4681160D01*
X2638430Y4776410*
X2559050Y5126410D02*
X2598740Y5031160D01*
X2638430Y5126410*
X2736850Y7142160D02*
Y7237410D01*
Y7189790D02*
X2816230D01*
Y7142160D02*
Y7237410D01*
X2736850Y9428160D02*
Y9523410D01*
Y9475790D02*
X2816230D01*
Y9428160D02*
Y9523410D01*
X2813050Y6126160D02*
Y6221410D01*
Y6173790D02*
X2892430D01*
Y6126160D02*
Y6221410D01*
X2990850Y7142160D02*
Y7237410D01*
Y7189790D02*
X3070230D01*
Y7142160D02*
Y7237410D01*
X2990850Y9428160D02*
Y9523410D01*
Y9475790D02*
X3070230D01*
Y9428160D02*
Y9523410D01*
X3244850Y7142160D02*
Y7237410D01*
Y7189790D02*
X3324230D01*
Y7142160D02*
Y7237410D01*
X3244850Y9428160D02*
Y9523410D01*
Y9475790D02*
X3324230D01*
Y9428160D02*
Y9523410D01*
X3448050Y3840160D02*
Y3935410D01*
Y3887790D02*
X3527430D01*
Y3840160D02*
Y3935410D01*
X3448050Y5801040D02*
Y5896290D01*
Y5848670D02*
X3527430D01*
Y5801040D02*
Y5896290D01*
X3448050Y6507160D02*
Y6602410D01*
Y6554790D02*
X3527430D01*
Y6507160D02*
Y6602410D01*
X3498850Y7142160D02*
Y7237410D01*
Y7189790D02*
X3578230D01*
Y7142160D02*
Y7237410D01*
X3498850Y9428160D02*
Y9523410D01*
Y9475790D02*
X3578230D01*
Y9428160D02*
Y9523410D01*
X3752850Y7142160D02*
Y7237410D01*
Y7189790D02*
X3832230D01*
Y7142160D02*
Y7237410D01*
X3752850Y9428160D02*
Y9523410D01*
Y9475790D02*
X3832230D01*
Y9428160D02*
Y9523410D01*
X3829050Y6126160D02*
Y6221410D01*
Y6173790D02*
X3908430D01*
Y6126160D02*
Y6221410D01*
X4006850Y7142160D02*
Y7237410D01*
Y7189790D02*
X4086230D01*
Y7142160D02*
Y7237410D01*
X4006850Y9428160D02*
Y9523410D01*
Y9475790D02*
X4086230D01*
Y9428160D02*
Y9523410D01*
X4210050Y4737160D02*
Y4832410D01*
Y4784790D02*
X4289430D01*
Y4737160D02*
Y4832410D01*
X4210050Y5737160D02*
Y5832410D01*
Y5784790D02*
X4289430D01*
Y5737160D02*
Y5832410D01*
X4260850Y7142160D02*
Y7237410D01*
Y7189790D02*
X4340230D01*
Y7142160D02*
Y7237410D01*
X4260850Y9428160D02*
Y9523410D01*
Y9475790D02*
X4340230D01*
Y9428160D02*
Y9523410D01*
X4464050Y4737160D02*
Y4832410D01*
Y4784790D02*
X4543430D01*
Y4737160D02*
Y4832410D01*
X4464050Y5737160D02*
Y5832410D01*
Y5784790D02*
X4543430D01*
Y5737160D02*
Y5832410D01*
X4464050Y6507160D02*
Y6602410D01*
Y6554790D02*
X4543430D01*
Y6507160D02*
Y6602410D01*
X4845050Y6507160D02*
Y6602410D01*
Y6554790D02*
X4924430D01*
Y6507160D02*
Y6602410D01*
X5099050Y6507160D02*
Y6602410D01*
Y6554790D02*
X5178430D01*
Y6507160D02*
Y6602410D01*
X5178050Y4189410D02*
X5217740Y4094160D01*
X5257430Y4189410*
X5226050Y4729160D02*
Y4824410D01*
Y4776790D02*
X5305430D01*
Y4729160D02*
Y4824410D01*
X5528050Y4189410D02*
X5567740Y4094160D01*
X5607430Y4189410*
X5559050Y677860D02*
Y773110D01*
X5614610*
X5630490Y765180*
X5638430Y749300*
X5630490Y733430*
X5614610Y725490*
X5559050*
X5678170Y5237160D02*
Y5332410D01*
Y5284790D02*
X5757550D01*
Y5237160D02*
Y5332410D01*
X5848350Y5554660D02*
Y5649910D01*
Y5602290D02*
X5927730D01*
Y5554660D02*
Y5649910D01*
X5909050Y677860D02*
Y773110D01*
X5964610*
X5980490Y765180*
X5988430Y749300*
X5980490Y733430*
X5964610Y725490*
X5909050*
X5988050Y1554160D02*
Y1649410D01*
Y1601790D02*
X6067430D01*
Y1554160D02*
Y1649410D01*
X5988050Y3332160D02*
Y3427410D01*
Y3379790D02*
X6067430D01*
Y3332160D02*
Y3427410D01*
X6242050Y3967160D02*
Y4062410D01*
Y4014790D02*
X6321430D01*
Y3967160D02*
Y4062410D01*
X6242050Y4221160D02*
Y4316410D01*
Y4268790D02*
X6321430D01*
Y4221160D02*
Y4316410D01*
X6242050Y4729160D02*
Y4824410D01*
Y4776790D02*
X6321430D01*
Y4729160D02*
Y4824410D01*
X6440170Y2189160D02*
Y2284410D01*
Y2236790D02*
X6519550D01*
Y2189160D02*
Y2284410D01*
X6559550Y4564060D02*
Y4659310D01*
Y4611690D02*
X6638930D01*
Y4564060D02*
Y4659310D01*
X6877050Y2951160D02*
Y3046410D01*
Y2998790D02*
X6956430D01*
Y2951160D02*
Y3046410D01*
X6877050Y3205160D02*
Y3300410D01*
Y3252790D02*
X6956430D01*
Y3205160D02*
Y3300410D01*
X6877050Y3459160D02*
Y3554410D01*
Y3506790D02*
X6956430D01*
Y3459160D02*
Y3554410D01*
X6877050Y3713160D02*
Y3808410D01*
Y3760790D02*
X6956430D01*
Y3713160D02*
Y3808410D01*
X6877050Y3967160D02*
Y4062410D01*
Y4014790D02*
X6956430D01*
Y3967160D02*
Y4062410D01*
X6877050Y4221160D02*
Y4316410D01*
Y4268790D02*
X6956430D01*
Y4221160D02*
Y4316410D01*
X6877050Y4475160D02*
Y4570410D01*
Y4522790D02*
X6956430D01*
Y4475160D02*
Y4570410D01*
X6885050Y9244010D02*
X6892990Y9148760D01*
X6924740Y9196390*
X6956490Y9148760*
X6964430Y9244010*
X7210050Y677860D02*
Y773110D01*
X7265610*
X7281490Y765180*
X7289430Y749300*
X7281490Y733430*
X7265610Y725490*
X7210050*
Y1535110D02*
X7249740Y1439860D01*
X7289430Y1535110*
X7385050Y9244010D02*
X7392990Y9148760D01*
X7424740Y9196390*
X7456490Y9148760*
X7464430Y9244010*
X7560050Y677860D02*
Y773110D01*
X7615610*
X7631490Y765180*
X7639430Y749300*
X7631490Y733430*
X7615610Y725490*
X7560050*
Y1535110D02*
X7599740Y1439860D01*
X7639430Y1535110*
X7639050Y2951160D02*
Y3046410D01*
Y2998790D02*
X7718430D01*
Y2951160D02*
Y3046410D01*
X7639050Y3205160D02*
Y3300410D01*
Y3252790D02*
X7718430D01*
Y3205160D02*
Y3300410D01*
X7639050Y3459160D02*
Y3554410D01*
Y3506790D02*
X7718430D01*
Y3459160D02*
Y3554410D01*
X7639050Y3713160D02*
Y3808410D01*
Y3760790D02*
X7718430D01*
Y3713160D02*
Y3808410D01*
X7639050Y3967160D02*
Y4062410D01*
Y4014790D02*
X7718430D01*
Y3967160D02*
Y4062410D01*
X7639050Y4221160D02*
Y4316410D01*
Y4268790D02*
X7718430D01*
Y4221160D02*
Y4316410D01*
X7639050Y4475160D02*
Y4570410D01*
Y4522790D02*
X7718430D01*
Y4475160D02*
Y4570410D01*
X7639050Y5237160D02*
Y5332410D01*
Y5284790D02*
X7718430D01*
Y5237160D02*
Y5332410D01*
X7885050Y9244010D02*
X7892990Y9148760D01*
X7924740Y9196390*
X7956490Y9148760*
X7964430Y9244010*
X8226430Y3094040D02*
X8218490Y3086100D01*
X8202610Y3078160*
X8178800*
X8162930Y3086100*
X8154990Y3094040*
X8147050Y3109910*
Y3141660*
X8154990Y3157540*
X8162930Y3165480*
X8178800Y3173410*
X8202610*
X8218490Y3165480*
X8226430Y3157540*
Y3348040D02*
X8218490Y3340100D01*
X8202610Y3332160*
X8178800*
X8162930Y3340100*
X8154990Y3348040*
X8147050Y3363910*
Y3395660*
X8154990Y3411540*
X8162930Y3419480*
X8178800Y3427410*
X8202610*
X8218490Y3419480*
X8226430Y3411540*
Y3602040D02*
X8218490Y3594100D01*
X8202610Y3586160*
X8178800*
X8162930Y3594100*
X8154990Y3602040*
X8147050Y3617910*
Y3649660*
X8154990Y3665540*
X8162930Y3673480*
X8178800Y3681410*
X8202610*
X8218490Y3673480*
X8226430Y3665540*
X8401050Y2189160D02*
Y2284410D01*
Y2236790D02*
X8480430D01*
Y2189160D02*
Y2284410D01*
X0Y0D02*
M02*
