%FSLAX35Y35*%
%MOMM*%
G04 EasyPC Gerber Version 18.0.9 Build 3640 *
%ADD18R,2.00000X2.00000*%
%ADD77R,2.10000X2.10000*%
%ADD25R,2.10000X2.10000*%
%ADD27R,2.20000X2.20000*%
%ADD28R,2.50000X2.50000*%
%ADD73R,2.50000X2.50000*%
%ADD75R,3.00000X3.00000*%
%ADD24C,0.12700*%
%ADD79C,0.80000*%
%ADD80C,1.00000*%
%ADD72C,2.00000*%
%ADD78C,2.10000*%
%ADD26C,2.10000*%
%ADD17C,2.20000*%
%ADD70C,2.40000*%
%ADD29C,2.50000*%
%ADD74C,2.50000*%
%ADD76C,3.00000*%
X0Y0D02*
D02*
D17*
X2305050Y4530350D03*
X4845050Y6356350D03*
X5274050Y3943350D03*
X5988050Y4070350D03*
X7306050Y1289050D03*
D02*
D18*
X7893050Y3435350D03*
D02*
D70*
X2559050Y5975350D03*
X3194050Y6356350D03*
X3575050Y5975350D03*
X4210050Y6356350D03*
X4972050Y4578350D03*
X5988050D03*
D02*
D24*
X1174750Y6350D02*
X8312150D01*
Y9707350*
X1174750*
Y6350*
D02*
D25*
X4006850Y9277350D03*
X4210050Y5586350D03*
X4591050Y6356350D03*
X5988050Y3816350D03*
D02*
D26*
X1720850Y6991350D03*
Y9277350D03*
X1974850Y6991350D03*
Y9277350D03*
X2228850Y6991350D03*
Y9277350D03*
X2482850Y6991350D03*
Y9277350D03*
X2736850Y6991350D03*
Y9277350D03*
X2990850Y6991350D03*
Y9277350D03*
X3244850Y6991350D03*
Y9277350D03*
X3498850Y6991350D03*
Y9277350D03*
X3752850Y6991350D03*
Y9277350D03*
X3956050Y4586350D03*
Y5586350D03*
X4006850Y6991350D03*
X4210050Y4586350D03*
X7385050Y2800350D03*
Y3054350D03*
Y3308350D03*
Y3562350D03*
Y3816350D03*
Y4070350D03*
Y4324350D03*
D02*
D27*
X2305050Y4880350D03*
X4924050Y3943350D03*
X6956050Y1289050D03*
D02*
D28*
X1670050Y3181350D03*
X3194050Y5650230D03*
X5424170Y5086350D03*
X6186170Y2038350D03*
D02*
D29*
X1670050Y1403350D03*
X3194050Y3689350D03*
X5594350Y5403850D03*
X5734050Y1403350D03*
Y3181350D03*
X6305550Y4413250D03*
X7385050Y5086350D03*
X8147050Y2038350D03*
D02*
D72*
X7893050Y2927350D03*
Y3181350D03*
D02*
D73*
X1416050Y930650D03*
X5305050Y527050D03*
X6956050D03*
D02*
D74*
X1416050Y580650D03*
X5655050Y527050D03*
X7306050D03*
D02*
D75*
X1606550Y6221350D03*
X7631050Y8997950D03*
D02*
D76*
X1606550Y5221350D03*
Y5721350D03*
X6631050Y8997950D03*
X7131050D03*
D02*
D77*
X6623050Y4324350D03*
D02*
D78*
Y2800350D03*
Y3054350D03*
Y3308350D03*
Y3562350D03*
Y3816350D03*
Y4070350D03*
D02*
D79*
X1416050Y930650D02*
Y2051050D01*
X1682750Y2317750*
Y3143250*
X1670050Y3155950*
Y3181350*
X1606550Y5721350D02*
X1441450D01*
X1314450Y5848350*
Y8007350*
X1695450Y8388350*
X3625850*
X3752850Y8515350*
X1606550Y6221350D02*
X2043050D01*
X2482850Y6661150*
Y6991350*
X2305050Y4880350D02*
Y5276850D01*
X2495550Y5467350*
X2736850*
X2901950Y5632450*
Y6064250*
X2914650Y6076950*
X2686050Y6305550D02*
Y6102350D01*
X2559050Y5975350*
X2736850Y6991350D02*
Y6648450D01*
X2686050*
Y6305550*
X2914650Y6076950D02*
X2686050Y6305550D01*
X3194050Y5650230D02*
Y5797550D01*
X2914650Y6076950*
X3194050Y6356350D02*
Y6521450D01*
X3321050Y6648450*
X3384550*
X3498850Y6762750*
Y6991350*
X3575050Y5975350D02*
X4070350D01*
X4197350Y5848350*
Y5599050*
X4210050Y5586350*
X3752850Y8515350D02*
Y9277350D01*
X4210050Y4586350D02*
Y4425950D01*
X4362450Y4273550*
X4924050*
X4210050Y6356350D02*
X4591050D01*
X4924050Y3943350D02*
Y4273550D01*
Y4530350*
X4972050Y4578350*
X5424170Y5086350D02*
Y4573270D01*
X5124450Y4273550*
X4924050*
X5594350Y5403850D02*
Y5256530D01*
X5424170Y5086350*
X5655050Y527050D02*
X6292850D01*
X6648450Y882650*
X5734050Y3181350D02*
X5873750D01*
X6000750Y3308350*
Y3803650*
X5988050Y3816350*
X6186170Y2038350D02*
Y1344930D01*
X6648450Y882650*
X6623050Y4070350D02*
X6457950D01*
X6369050Y3981450*
Y2698750*
X6648450Y2419350*
X7639050*
X7880350Y2660650*
Y2914650*
X7893050Y2927350*
X6623050Y4324350D02*
X6394450D01*
X6305550Y4413250*
X6648450Y882650D02*
X6956050D01*
Y527050D02*
Y882650D01*
Y1289050*
X7631050Y8997950D02*
Y8507350D01*
X7258050Y8134350*
X4133850*
X3752850Y8515350*
D02*
D80*
X1416050Y580650D02*
X2193550D01*
X3016250Y1403350*
X1606550Y5221350D02*
Y4298950D01*
X1809750Y4095750*
X2546350*
X2787650Y4337050*
X1670050Y1403350D02*
X3016250D01*
X2597150Y4527550D02*
X2307850D01*
X2305050Y4530350*
X2787650Y4337050D02*
X2597150Y4527550D01*
X3016250Y1403350D02*
X3028950D01*
X3943350Y2317750*
X3956050*
X3194050Y3689350D02*
Y3930650D01*
X2787650Y4337050*
X3390900Y5334000D02*
X4470400D01*
X4730750Y5594350*
Y5797550*
X4908550Y5975350*
X5111750*
X5353050Y6216650*
Y7562850*
X5200650Y7715250*
X3390900Y5334000D02*
X3143250Y5086350D01*
Y5073650*
X2597150Y4527550*
X3956050Y2317750D02*
Y4586350D01*
Y5586350D02*
X3643250D01*
X3390900Y5334000*
X4006850Y9277350D02*
Y8845550D01*
X4337050Y8515350*
X5721350*
X4705350Y7715250D02*
X4146550D01*
X4006850Y7575550*
Y6991350*
X4845050Y6356350D02*
Y7575550D01*
X4705350Y7715250*
X5200650D02*
X4705350D01*
X5274050Y3943350D02*
Y3635750D01*
X3956050Y2317750*
X5305050Y527050D02*
Y3196850D01*
X5670550Y3562350*
Y3943350*
X5746750Y4019550*
X5645150Y4362450D02*
Y4121150D01*
X5746750Y4019550*
X5721350Y8515350D02*
X5810250D01*
X6089650Y8794750*
Y9264650*
X6254750Y9429750*
X7880350*
X8070850Y9239250*
Y8185150*
X7600950Y7715250*
X5200650*
X5721350Y8515350D02*
X6369050D01*
X5734050Y1403350D02*
Y2292350D01*
X5924550Y2482850*
X6191250*
X6534150Y2139950*
X7372350*
X7588250Y1924050*
X5746750Y4019550D02*
X5797550Y4070350D01*
X5988050*
Y4578350D02*
X5861050D01*
X5645150Y4362450*
X6369050Y8515350D02*
X6877050D01*
X7131050Y8769350*
Y8997950*
X6623050Y2800350D02*
X6940550D01*
X7054850Y2914650*
Y3079750*
X6623050Y3308350D02*
X6826250D01*
X7054850Y3079750*
X6623050Y3816350D02*
X6965950D01*
X7067550Y3714750*
Y3625850*
X6631050Y8997950D02*
Y8777350D01*
X6369050Y8515350*
X7054850Y3079750D02*
X7359650D01*
X7385050Y3054350*
X7067550Y3448050D02*
Y3092450D01*
X7054850Y3079750*
X7067550Y3625850D02*
Y3448050D01*
X7073900Y3949700D02*
X7067550Y3943350D01*
Y3625850*
X7306050Y527050D02*
Y895350D01*
Y1289050*
X7385050Y3054350D02*
X7537450D01*
X7651750Y3168650*
X7880350*
X7893050Y3181350*
X7385050Y3562350D02*
X7181850D01*
X7067550Y3448050*
X7385050Y4070350D02*
X7194550D01*
X7073900Y3949700*
X7385050Y5086350D02*
X7169150D01*
X7092950Y5010150*
Y3968750*
X7073900Y3949700*
X7588250Y1924050D02*
X8147050Y1365250D01*
X7702550Y4337050D02*
Y5327650D01*
X7537450Y5492750*
X6483350*
X5645150Y4654550*
Y4362450*
X7702550Y4337050D02*
X7397750D01*
X7385050Y4324350*
X7893050Y3181350D02*
X8045450D01*
X8185150Y3041650*
Y2520950*
X7588250Y1924050*
X7893050Y3435350D02*
Y4146550D01*
X7702550Y4337050*
X8147050Y1365250D02*
Y590550D01*
X7778750Y222250*
X4349750*
X3168650Y1403350*
X3016250*
X8147050Y1365250D02*
X8045450D01*
X7575550Y895350*
X7306050*
X8147050Y2038350D02*
Y1365250D01*
X0Y0D02*
M02*
